M48
;DRILL file {KiCad 4.0.5} date 07/19/18 22:11:53
;FORMAT={-:-/ absolute / inch / decimal}
FMAT,2
INCH,TZ
T1C0.010
T2C0.016
T3C0.030
T4C0.031
T5C0.039
%
G90
G05
M72
T1
X5.19Y-1.85
X5.19Y-1.915
X5.2175Y-1.59
X5.315Y-1.85
X5.315Y-2.0225
X5.3175Y-1.9575
X5.3175Y-2.065
X5.33Y-2.0902
X5.3432Y-1.9352
X5.455Y-2.1182
X5.475Y-1.86
X5.48Y-2.015
X5.4801Y-1.8783
X5.515Y-2.135
X5.61Y-2.11
X5.6194Y-1.9956
X5.6215Y-1.9249
X5.655Y-2.084
X5.655Y-2.115
X5.655Y-2.1844
X5.6575Y-1.8775
X5.6587Y-1.9107
X5.66Y-2.0371
X5.6819Y-1.7887
X5.6953Y-1.7753
X5.6962Y-1.9107
X5.6962Y-2.0682
X5.6965Y-1.879
X5.6967Y-1.9417
X5.6968Y-1.8472
X5.6968Y-1.9732
X5.697Y-2.0371
X5.6975Y-2.1675
X5.7103Y-1.7603
X5.72Y-1.445
X5.7275Y-1.81
X5.7277Y-1.9107
X5.7277Y-2.0998
X5.728Y-1.8795
X5.7282Y-2.1318
X5.7282Y-2.1707
X5.7283Y-1.8472
X5.7592Y-1.9422
X5.7592Y-1.8793
X5.7592Y-2.0997
X5.7595Y-2.0055
X5.7598Y-1.9731
X5.7598Y-2.0361
X5.7598Y-2.1318
X5.7598Y-2.1698
X5.7598Y-2.0688
X5.7598Y-1.9102
X5.76Y-1.81
X5.76Y-1.8475
X5.78Y-2.24
X5.7907Y-1.8106
X5.7907Y-1.8478
X5.7907Y-1.9422
X5.7907Y-2.0997
X5.7907Y-1.8793
X5.791Y-2.1315
X5.791Y-2.169
X5.7912Y-2.0362
X5.7918Y-2.0041
X5.792Y-2.0668
X5.8222Y-2.0682
X5.8225Y-2.005
X5.8225Y-2.035
X5.8228Y-1.8787
X5.8228Y-2.1003
X5.8228Y-2.1318
X5.825Y-1.975
X5.8253Y-2.2178
X5.84Y-2.17
X5.8543Y-1.8169
X5.8543Y-1.9107
X5.855Y-1.9425
X5.885Y-1.9425
X5.8852Y-2.0998
X5.8861Y-2.0364
X5.8863Y-1.8793
X5.8863Y-2.0052
X5.9132Y-1.5682
X5.9161Y-1.9112
X5.9173Y-1.9732
X5.9173Y-1.8798
X5.9175Y-1.8075
X5.9175Y-1.8475
X5.9178Y-2.0682
X5.9178Y-2.0997
X5.9178Y-2.1312
X5.9223Y-1.7192
X5.9422Y-1.7197
X5.9475Y-1.8075
X5.9475Y-1.88
X5.9487Y-2.1318
X5.9493Y-2.0997
X5.9493Y-1.8478
X5.95Y-2.1675
X5.98Y-1.88
X5.98Y-2.005
X5.9802Y-2.1318
X6.015Y-2.155
X6.0225Y-1.7825
X6.025Y-1.92
X6.025Y-1.975
X6.0358Y-2.1466
X6.05Y-1.835
X6.0767Y-2.1609
X6.095Y-2.425
X6.0975Y-2.4475
X6.1Y-2.4675
X6.105Y-2.235
X6.1153Y-2.1318
X6.175Y-2.045
X6.185Y-2.155
X6.205Y-1.905
X6.205Y-2.065
X6.21Y-1.94
X6.255Y-2.06
X6.31Y-2.14
X6.335Y-1.975
X6.34Y-1.92
X6.37Y-2.
T2
X5.01Y-2.295
X5.07Y-2.42
X5.12Y-2.82
X5.18Y-1.98
X5.19Y-2.285
X5.19Y-2.965
X5.22Y-2.145
X5.2677Y-2.6744
X5.2677Y-2.8004
X5.28Y-2.165
X5.3Y-1.665
X5.3Y-3.005
X5.305Y-2.435
X5.31Y-2.275
X5.3218Y-1.9896
X5.3277Y-2.7345
X5.3277Y-2.7345
X5.35Y-3.07
X5.35Y-3.105
X5.36Y-2.965
X5.3617Y-3.01
X5.365Y-2.1441
X5.37Y-2.905
X5.3878Y-2.6744
X5.3878Y-2.8004
X5.475Y-1.9564
X5.475Y-1.985
X5.4912Y-2.8377
X5.515Y-3.035
X5.5228Y-2.995
X5.545Y-2.97
X5.558Y-3.088
X5.58Y-3.15
X5.5925Y-2.4475
X5.595Y-2.485
X5.595Y-2.585
X5.595Y-2.675
X5.595Y-2.715
X5.595Y-2.78
X5.595Y-2.84
X5.595Y-2.7398
X5.6043Y-2.885
X5.605Y-2.81
X5.62Y-1.385
X5.625Y-2.855
X5.6275Y-1.43
X5.6275Y-1.45
X5.63Y-2.815
X5.63Y-2.885
X5.64Y-2.66
X5.655Y-2.885
X5.675Y-2.51
X5.675Y-2.66
X5.68Y-1.37
X5.68Y-2.885
X5.69Y-2.41
X5.705Y-2.52
X5.705Y-2.655
X5.705Y-2.885
X5.73Y-2.885
X5.74Y-3.015
X5.74Y-3.155
X5.745Y-2.765
X5.75Y-1.62
X5.755Y-1.525
X5.76Y-2.86
X5.77Y-2.57
X5.77Y-2.62
X5.77Y-2.67
X5.77Y-2.72
X5.775Y-2.39
X5.775Y-3.01
X5.7767Y-1.6233
X5.78Y-2.28
X5.795Y-1.24
X5.795Y-1.27
X5.8Y-2.49
X5.8Y-3.155
X5.8Y-3.22
X5.8028Y-1.375
X5.8075Y-2.8925
X5.81Y-2.4
X5.81Y-3.
X5.815Y-1.525
X5.82Y-2.57
X5.82Y-2.62
X5.82Y-2.67
X5.82Y-2.72
X5.83Y-2.49
X5.8314Y-1.375
X5.84Y-3.
X5.85Y-2.39
X5.8525Y-2.8925
X5.86Y-1.375
X5.87Y-2.57
X5.87Y-2.62
X5.87Y-2.67
X5.87Y-2.72
X5.87Y-3.
X5.88Y-3.165
X5.881Y-2.8899
X5.885Y-1.375
X5.885Y-1.525
X5.895Y-1.225
X5.9Y-2.995
X5.9Y-3.04
X5.9Y-3.09
X5.905Y-2.89
X5.915Y-1.375
X5.92Y-2.57
X5.92Y-2.62
X5.92Y-2.67
X5.92Y-2.72
X5.925Y-1.625
X5.9314Y-3.
X5.935Y-2.765
X5.94Y-1.375
X5.9446Y-2.2507
X5.945Y-1.525
X5.96Y-3.
X5.9625Y-2.8975
X5.97Y-1.62
X5.97Y-2.229
X5.9725Y-1.565
X5.975Y-3.2
X5.9775Y-1.59
X5.9789Y-1.53
X5.98Y-2.705
X5.99Y-1.3
X5.99Y-2.845
X5.995Y-3.02
X6.Y-2.54
X6.0034Y-3.105
X6.005Y-2.4
X6.015Y-2.685
X6.02Y-2.84
X6.025Y-2.55
X6.04Y-1.24
X6.0425Y-3.0025
X6.0496Y-3.0404
X6.06Y-2.395
X6.075Y-2.24
X6.0775Y-2.9975
X6.08Y-1.39
X6.085Y-2.755
X6.085Y-3.165
X6.095Y-2.685
X6.095Y-2.725
X6.0975Y-2.5275
X6.0975Y-2.6175
X6.0975Y-2.6475
X6.0975Y-2.795
X6.0975Y-2.825
X6.1049Y-2.9225
X6.11Y-1.94
X6.12Y-1.81
X6.1275Y-2.3575
X6.14Y-1.69
X6.1975Y-2.7025
X6.2Y-2.62
X6.2Y-2.8
X6.2Y-2.83
X6.2Y-3.125
X6.2025Y-2.5625
X6.21Y-2.46
X6.21Y-2.49
X6.22Y-1.3
X6.22Y-1.62
X6.24Y-2.93
X6.24Y-3.06
X6.2496Y-3.0304
X6.26Y-1.79
X6.29Y-1.45
X6.29Y-1.49
X6.29Y-1.69
X6.29Y-2.49
X6.29Y-2.63
X6.295Y-1.42
X6.3Y-2.77
X6.31Y-1.55
X6.32Y-2.64
X6.335Y-1.275
X6.335Y-2.945
X6.34Y-2.1
X6.34Y-2.56
X6.34Y-2.7
X6.35Y-1.44
T3
X5.3176Y-1.14
X5.3963Y-1.14
X5.475Y-1.14
X5.5538Y-1.14
X5.6325Y-1.14
X5.7113Y-1.14
X5.79Y-1.14
X5.8687Y-1.14
X5.9475Y-1.14
X6.0262Y-1.14
X6.105Y-1.14
X6.1837Y-1.14
X6.45Y-1.5313
X6.45Y-1.61
T4
X5.0513Y-3.205
X5.13Y-3.205
X5.15Y-2.435
X5.15Y-2.5137
X5.3775Y-2.2125
X5.3775Y-2.2912
X5.38Y-2.435
X5.38Y-2.5137
X5.475Y-1.6563
X5.475Y-1.735
X6.3Y-2.2413
X6.3Y-2.32
T5
X5.02Y-1.435
X5.02Y-1.535
X5.02Y-1.635
X5.02Y-1.735
X5.02Y-1.835
X5.02Y-1.935
X5.02Y-2.035
X5.02Y-2.135
X5.03Y-2.72
X5.03Y-2.82
X5.03Y-2.92
X5.12Y-1.435
X5.12Y-1.535
X5.12Y-1.635
X5.12Y-1.735
X5.12Y-1.835
X5.12Y-1.935
X5.12Y-2.035
X5.12Y-2.135
X5.2875Y-1.4
X5.2875Y-1.5
X5.3875Y-1.4
X5.3875Y-1.5
X5.425Y-3.3
X5.425Y-3.4
X5.4875Y-1.4
X5.4875Y-1.5
X5.525Y-3.3
X5.525Y-3.4
X5.625Y-3.3
X5.625Y-3.4
X5.725Y-3.3
X5.725Y-3.4
X5.825Y-3.3
X5.825Y-3.4
X5.925Y-3.3
X5.925Y-3.4
X6.025Y-3.3
X6.025Y-3.4
X6.125Y-3.3
X6.125Y-3.4
X6.225Y-3.3
X6.225Y-3.4
X6.325Y-3.3
X6.325Y-3.4
X6.475Y-1.835
X6.475Y-1.935
X6.475Y-2.035
X6.475Y-2.135
X6.475Y-2.235
X6.475Y-2.335
X6.475Y-2.435
T0
M30
