G04 #@! TF.FileFunction,Soldermask,Top*
%FSLAX46Y46*%
G04 Gerber Fmt 4.6, Leading zero omitted, Abs format (unit mm)*
G04 Created by KiCad (PCBNEW 4.0.5) date 07/19/18 22:11:56*
%MOMM*%
%LPD*%
G01*
G04 APERTURE LIST*
%ADD10C,0.100000*%
%ADD11R,1.276200X1.776200*%
%ADD12O,1.276200X1.776200*%
%ADD13R,1.826200X0.526200*%
%ADD14R,0.326200X1.376200*%
%ADD15R,1.376200X0.326200*%
%ADD16R,1.676200X1.676200*%
%ADD17C,1.676200*%
%ADD18R,0.876200X0.826200*%
%ADD19R,1.776200X1.776200*%
%ADD20O,1.776200X1.776200*%
%ADD21R,0.876200X0.876200*%
%ADD22R,1.276200X0.976200*%
%ADD23R,0.576200X0.976200*%
%ADD24R,0.976200X0.576200*%
%ADD25C,1.576200*%
%ADD26R,1.276200X2.276200*%
%ADD27R,5.876200X6.476200*%
%ADD28R,0.726200X1.136200*%
%ADD29R,1.636200X0.726200*%
%ADD30R,1.576200X0.376200*%
%ADD31R,0.376200X1.576200*%
%ADD32R,6.276200X6.276200*%
%ADD33R,0.976200X0.876200*%
%ADD34R,0.584200X1.219200*%
%ADD35R,1.876200X1.876200*%
%ADD36O,1.876200X1.876200*%
%ADD37C,2.276200*%
%ADD38R,1.776200X1.276200*%
%ADD39O,1.776200X1.276200*%
%ADD40C,0.426200*%
G04 APERTURE END LIST*
D10*
D11*
X135066000Y-28956000D03*
D12*
X137066000Y-28956000D03*
X139066000Y-28956000D03*
X141066000Y-28956000D03*
X143066000Y-28956000D03*
X145066000Y-28956000D03*
X147066000Y-28956000D03*
X149066000Y-28956000D03*
X151066000Y-28956000D03*
X153066000Y-28956000D03*
X155066000Y-28956000D03*
X157066000Y-28956000D03*
D13*
X140506000Y-53090000D03*
X140506000Y-52440000D03*
X140506000Y-51790000D03*
X140506000Y-51140000D03*
X140506000Y-50490000D03*
X140506000Y-49840000D03*
X140506000Y-49190000D03*
X140506000Y-48540000D03*
X140506000Y-47890000D03*
X140506000Y-47240000D03*
X133306000Y-47240000D03*
X133306000Y-47890000D03*
X133306000Y-48540000D03*
X133306000Y-49190000D03*
X133306000Y-49840000D03*
X133306000Y-50490000D03*
X133306000Y-51140000D03*
X133306000Y-51790000D03*
X133306000Y-52440000D03*
X133306000Y-53090000D03*
D14*
X145840000Y-42450000D03*
X146340000Y-42450000D03*
X146840000Y-42450000D03*
X147340000Y-42450000D03*
X147840000Y-42450000D03*
X148340000Y-42450000D03*
X148840000Y-42450000D03*
X149340000Y-42450000D03*
X149840000Y-42450000D03*
X150340000Y-42450000D03*
X150840000Y-42450000D03*
X151340000Y-42450000D03*
D15*
X152940000Y-40850000D03*
X152940000Y-40350000D03*
X152940000Y-39850000D03*
X152940000Y-39350000D03*
X152940000Y-38850000D03*
X152940000Y-38350000D03*
X152940000Y-37850000D03*
X152940000Y-37350000D03*
X152940000Y-36850000D03*
X152940000Y-36350000D03*
X152940000Y-35850000D03*
X152940000Y-35350000D03*
D14*
X151340000Y-33750000D03*
X150840000Y-33750000D03*
X150340000Y-33750000D03*
X149840000Y-33750000D03*
X149340000Y-33750000D03*
X148840000Y-33750000D03*
X148340000Y-33750000D03*
X147840000Y-33750000D03*
X147340000Y-33750000D03*
X146840000Y-33750000D03*
X146340000Y-33750000D03*
X145840000Y-33750000D03*
D15*
X144240000Y-35350000D03*
X144240000Y-35850000D03*
X144240000Y-36350000D03*
X144240000Y-36850000D03*
X144240000Y-37350000D03*
X144240000Y-37850000D03*
X144240000Y-38350000D03*
X144240000Y-38850000D03*
X144240000Y-39350000D03*
X144240000Y-39850000D03*
X144240000Y-40350000D03*
X144240000Y-40850000D03*
D16*
X139065000Y-42069000D03*
D17*
X139065000Y-44069000D03*
D16*
X130302000Y-81407000D03*
D17*
X128302000Y-81407000D03*
D16*
X130810000Y-63849000D03*
D17*
X130810000Y-61849000D03*
D16*
X136652000Y-63849000D03*
D17*
X136652000Y-61849000D03*
D16*
X136588500Y-56197500D03*
D17*
X136588500Y-58197500D03*
D18*
X159829500Y-69405500D03*
X158329500Y-69405500D03*
X159817500Y-68008500D03*
X158317500Y-68008500D03*
X160262000Y-71882000D03*
X158762000Y-71882000D03*
X160262000Y-73406000D03*
X158762000Y-73406000D03*
X159944500Y-65722500D03*
X158444500Y-65722500D03*
X159956500Y-64325500D03*
X158456500Y-64325500D03*
X160897000Y-33401000D03*
X159397000Y-33401000D03*
D16*
X160020000Y-56928000D03*
D17*
X160020000Y-58928000D03*
D19*
X139382500Y-35560000D03*
D20*
X139382500Y-38100000D03*
X136842500Y-35560000D03*
X136842500Y-38100000D03*
X134302500Y-35560000D03*
X134302500Y-38100000D03*
D21*
X156083000Y-55080000D03*
X156083000Y-56680000D03*
D22*
X157203500Y-77406500D03*
X155003500Y-77406500D03*
D19*
X137795000Y-86360000D03*
D20*
X137795000Y-83820000D03*
X140335000Y-86360000D03*
X140335000Y-83820000D03*
X142875000Y-86360000D03*
X142875000Y-83820000D03*
X145415000Y-86360000D03*
X145415000Y-83820000D03*
X147955000Y-86360000D03*
X147955000Y-83820000D03*
X150495000Y-86360000D03*
X150495000Y-83820000D03*
X153035000Y-86360000D03*
X153035000Y-83820000D03*
X155575000Y-86360000D03*
X155575000Y-83820000D03*
X158115000Y-86360000D03*
X158115000Y-83820000D03*
X160655000Y-86360000D03*
X160655000Y-83820000D03*
D23*
X158710500Y-75755500D03*
X160210500Y-75755500D03*
D24*
X140970000Y-55015000D03*
X140970000Y-56515000D03*
D25*
X160274000Y-77724000D03*
X144780000Y-77724000D03*
X141478000Y-76962000D03*
X137414000Y-78740000D03*
X139700000Y-78740000D03*
D26*
X133044500Y-75755500D03*
X137604500Y-75755500D03*
D27*
X135324500Y-69455500D03*
D28*
X130876000Y-59139000D03*
X131826000Y-59139000D03*
X132776000Y-59139000D03*
X132776000Y-56939000D03*
X130876000Y-56939000D03*
D29*
X151083000Y-79436000D03*
X151083000Y-78486000D03*
X151083000Y-77536000D03*
X148383000Y-77536000D03*
X148383000Y-79436000D03*
X148383000Y-78486000D03*
D30*
X156146500Y-73135500D03*
X156146500Y-72635500D03*
X156146500Y-72135500D03*
X156146500Y-71635500D03*
X156146500Y-71135500D03*
X156146500Y-70635500D03*
X156146500Y-70135500D03*
X156146500Y-69635500D03*
X156146500Y-69135500D03*
X156146500Y-68635500D03*
X156146500Y-68135500D03*
X156146500Y-67635500D03*
X156146500Y-67135500D03*
X156146500Y-66635500D03*
X156146500Y-66135500D03*
X156146500Y-65635500D03*
X156146500Y-65135500D03*
X156146500Y-64635500D03*
X156146500Y-64135500D03*
X156146500Y-63635500D03*
X156146500Y-63135500D03*
X156146500Y-62635500D03*
X156146500Y-62135500D03*
X156146500Y-61635500D03*
X156146500Y-61135500D03*
D31*
X154446500Y-59435500D03*
X153946500Y-59435500D03*
X153446500Y-59435500D03*
X152946500Y-59435500D03*
X152446500Y-59435500D03*
X151946500Y-59435500D03*
X151446500Y-59435500D03*
X150946500Y-59435500D03*
X150446500Y-59435500D03*
X149946500Y-59435500D03*
X149446500Y-59435500D03*
X148946500Y-59435500D03*
X148446500Y-59435500D03*
X147946500Y-59435500D03*
X147446500Y-59435500D03*
X146946500Y-59435500D03*
X146446500Y-59435500D03*
X145946500Y-59435500D03*
X145446500Y-59435500D03*
X144946500Y-59435500D03*
X144446500Y-59435500D03*
X143946500Y-59435500D03*
X143446500Y-59435500D03*
X142946500Y-59435500D03*
X142446500Y-59435500D03*
D30*
X140746500Y-61135500D03*
X140746500Y-61635500D03*
X140746500Y-62135500D03*
X140746500Y-62635500D03*
X140746500Y-63135500D03*
X140746500Y-63635500D03*
X140746500Y-64135500D03*
X140746500Y-64635500D03*
X140746500Y-65135500D03*
X140746500Y-65635500D03*
X140746500Y-66135500D03*
X140746500Y-66635500D03*
X140746500Y-67135500D03*
X140746500Y-67635500D03*
X140746500Y-68135500D03*
X140746500Y-68635500D03*
X140746500Y-69135500D03*
X140746500Y-69635500D03*
X140746500Y-70135500D03*
X140746500Y-70635500D03*
X140746500Y-71135500D03*
X140746500Y-71635500D03*
X140746500Y-72135500D03*
X140746500Y-72635500D03*
X140746500Y-73135500D03*
D31*
X142446500Y-74835500D03*
X142946500Y-74835500D03*
X143446500Y-74835500D03*
X143946500Y-74835500D03*
X144446500Y-74835500D03*
X144946500Y-74835500D03*
X145446500Y-74835500D03*
X145946500Y-74835500D03*
X146446500Y-74835500D03*
X146946500Y-74835500D03*
X147446500Y-74835500D03*
X147946500Y-74835500D03*
X148446500Y-74835500D03*
X148946500Y-74835500D03*
X149446500Y-74835500D03*
X149946500Y-74835500D03*
X150446500Y-74835500D03*
X150946500Y-74835500D03*
X151446500Y-74835500D03*
X151946500Y-74835500D03*
X152446500Y-74835500D03*
X152946500Y-74835500D03*
X153446500Y-74835500D03*
X153946500Y-74835500D03*
X154446500Y-74835500D03*
D32*
X148446500Y-67135500D03*
D33*
X155527500Y-33594000D03*
X155527500Y-35494000D03*
X157527500Y-34544000D03*
D34*
X156337000Y-46990000D03*
X157607000Y-46990000D03*
X158877000Y-46990000D03*
X160147000Y-46990000D03*
X160147000Y-53340000D03*
X158877000Y-53340000D03*
X157607000Y-53340000D03*
X156337000Y-53340000D03*
D35*
X127762000Y-74168000D03*
D36*
X127762000Y-71628000D03*
X127762000Y-69088000D03*
D19*
X130048000Y-54229000D03*
D20*
X127508000Y-54229000D03*
X130048000Y-51689000D03*
X127508000Y-51689000D03*
X130048000Y-49149000D03*
X127508000Y-49149000D03*
X130048000Y-46609000D03*
X127508000Y-46609000D03*
X130048000Y-44069000D03*
X127508000Y-44069000D03*
X130048000Y-41529000D03*
X127508000Y-41529000D03*
X130048000Y-38989000D03*
X127508000Y-38989000D03*
X130048000Y-36449000D03*
X127508000Y-36449000D03*
D37*
X128270000Y-29210000D03*
X163830000Y-29210000D03*
X163830000Y-77216000D03*
X128270000Y-87122000D03*
D25*
X157099000Y-59944000D03*
X159004000Y-61722000D03*
D19*
X164465000Y-61849000D03*
D20*
X164465000Y-59309000D03*
X164465000Y-56769000D03*
X164465000Y-54229000D03*
X164465000Y-51689000D03*
X164465000Y-49149000D03*
X164465000Y-46609000D03*
D38*
X163830000Y-38894000D03*
D39*
X163830000Y-40894000D03*
D21*
X159258000Y-39370000D03*
X159258000Y-40970000D03*
X158788000Y-42418000D03*
X157188000Y-42418000D03*
D40*
X144298000Y-46533000D03*
X145098000Y-46533000D03*
X145898000Y-46533000D03*
X146698000Y-46533000D03*
X147498000Y-46533000D03*
X148298000Y-46533000D03*
X149098000Y-46533000D03*
X149898000Y-46533000D03*
X150698000Y-46533000D03*
X151498000Y-46533000D03*
X152298000Y-46533000D03*
X144298000Y-47333000D03*
X144298000Y-48133000D03*
X144298000Y-48933000D03*
X144298000Y-49733000D03*
X144298000Y-50533000D03*
X144298000Y-51333000D03*
X144298000Y-52133000D03*
X144298000Y-52933000D03*
X152298000Y-47333000D03*
X151498000Y-47333000D03*
X150698000Y-47333000D03*
X149898000Y-47333000D03*
X149098000Y-47333000D03*
X148298000Y-47333000D03*
X147498000Y-47333000D03*
X145098000Y-47333000D03*
X145898000Y-47333000D03*
X146698000Y-47333000D03*
X145098000Y-48133000D03*
X145898000Y-48133000D03*
X146698000Y-48133000D03*
X147498000Y-48133000D03*
X148298000Y-48133000D03*
X149098000Y-48133000D03*
X149898000Y-48133000D03*
X150698000Y-48133000D03*
X145098000Y-48933000D03*
X145898000Y-48933000D03*
X146698000Y-48933000D03*
X147498000Y-48933000D03*
X148298000Y-48933000D03*
X149098000Y-48933000D03*
X149898000Y-48933000D03*
X150698000Y-48933000D03*
X145098000Y-49733000D03*
X145898000Y-49733000D03*
X146698000Y-49733000D03*
X151498000Y-48133000D03*
X151498000Y-48933000D03*
X152298000Y-48133000D03*
X152298000Y-48933000D03*
X145098000Y-50533000D03*
X145898000Y-50533000D03*
X146698000Y-50533000D03*
X146698000Y-51333000D03*
X145898000Y-51333000D03*
X145098000Y-51333000D03*
X145098000Y-52133000D03*
X145898000Y-52133000D03*
X146698000Y-52133000D03*
X146698000Y-52933000D03*
X145898000Y-52933000D03*
X145098000Y-52933000D03*
X144298000Y-53733000D03*
X145098000Y-53733000D03*
X145898000Y-53733000D03*
X146698000Y-53733000D03*
X146698000Y-54533000D03*
X145898000Y-54533000D03*
X145098000Y-54533000D03*
X144298000Y-54533000D03*
X149898000Y-49733000D03*
X149098000Y-49733000D03*
X148298000Y-49733000D03*
X147498000Y-49733000D03*
X147498000Y-50533000D03*
X148298000Y-50533000D03*
X149098000Y-50533000D03*
X149898000Y-50533000D03*
X147498000Y-51333000D03*
X148298000Y-51333000D03*
X149098000Y-51333000D03*
X149898000Y-51333000D03*
X147498000Y-52133000D03*
X148298000Y-52133000D03*
X149098000Y-52133000D03*
X149898000Y-52133000D03*
X147498000Y-52933000D03*
X148298000Y-52933000D03*
X149098000Y-52933000D03*
X149898000Y-52933000D03*
X147498000Y-53733000D03*
X148298000Y-53733000D03*
X149098000Y-53733000D03*
X149898000Y-53733000D03*
X147498000Y-54533000D03*
X148298000Y-54533000D03*
X149098000Y-54533000D03*
X149898000Y-54533000D03*
X150698000Y-49733000D03*
X151498000Y-49733000D03*
X152298000Y-49733000D03*
X150698000Y-50533000D03*
X151498000Y-50533000D03*
X152298000Y-50533000D03*
X150698000Y-52933000D03*
X152298000Y-51333000D03*
X151498000Y-51333000D03*
X150698000Y-51333000D03*
X150698000Y-52133000D03*
X151498000Y-52133000D03*
X152298000Y-52133000D03*
X151498000Y-52933000D03*
X152298000Y-52933000D03*
X150698000Y-54533000D03*
X150698000Y-53733000D03*
X151498000Y-53733000D03*
X151498000Y-54533000D03*
X152298000Y-54533000D03*
X152298000Y-53733000D03*
M02*
