G04 #@! TF.FileFunction,Legend,Bot*
%FSLAX46Y46*%
G04 Gerber Fmt 4.6, Leading zero omitted, Abs format (unit mm)*
G04 Created by KiCad (PCBNEW 4.0.5) date 07/19/18 22:11:56*
%MOMM*%
%LPD*%
G01*
G04 APERTURE LIST*
%ADD10C,0.100000*%
%ADD11C,0.120000*%
G04 APERTURE END LIST*
D10*
D11*
X158488000Y-43262000D02*
X157488000Y-43262000D01*
X157488000Y-44622000D02*
X158488000Y-44622000D01*
X151603000Y-37434000D02*
X151603000Y-36734000D01*
X150403000Y-36734000D02*
X150403000Y-37434000D01*
X145130000Y-71028000D02*
X144430000Y-71028000D01*
X144430000Y-72228000D02*
X145130000Y-72228000D01*
X141570000Y-74010000D02*
X141570000Y-73310000D01*
X140370000Y-73310000D02*
X140370000Y-74010000D01*
X143172000Y-78705000D02*
X143872000Y-78705000D01*
X143872000Y-77505000D02*
X143172000Y-77505000D01*
X143148000Y-80102000D02*
X143848000Y-80102000D01*
X143848000Y-78902000D02*
X143148000Y-78902000D01*
X144241000Y-64424000D02*
X143541000Y-64424000D01*
X143541000Y-65624000D02*
X144241000Y-65624000D01*
X144241000Y-65821000D02*
X143541000Y-65821000D01*
X143541000Y-67021000D02*
X144241000Y-67021000D01*
X137445000Y-78578000D02*
X138145000Y-78578000D01*
X138145000Y-77378000D02*
X137445000Y-77378000D01*
X137457000Y-80102000D02*
X138157000Y-80102000D01*
X138157000Y-78902000D02*
X137457000Y-78902000D01*
X158338000Y-35849000D02*
X157638000Y-35849000D01*
X157638000Y-37049000D02*
X158338000Y-37049000D01*
X158338000Y-37373000D02*
X157638000Y-37373000D01*
X157638000Y-38573000D02*
X158338000Y-38573000D01*
X129378000Y-60040000D02*
X129378000Y-59340000D01*
X128178000Y-59340000D02*
X128178000Y-60040000D01*
X135093000Y-60421000D02*
X135093000Y-59721000D01*
X133893000Y-59721000D02*
X133893000Y-60421000D01*
X148748000Y-82388000D02*
X149448000Y-82388000D01*
X149448000Y-81188000D02*
X148748000Y-81188000D01*
X148914600Y-74330000D02*
X148214600Y-74330000D01*
X148214600Y-75530000D02*
X148914600Y-75530000D01*
X157016500Y-76425500D02*
X156316500Y-76425500D01*
X156316500Y-77625500D02*
X157016500Y-77625500D01*
X159544500Y-64487500D02*
X158844500Y-64487500D01*
X158844500Y-65687500D02*
X159544500Y-65687500D01*
X157068000Y-77886000D02*
X156368000Y-77886000D01*
X156368000Y-79086000D02*
X157068000Y-79086000D01*
X159417500Y-68043500D02*
X158717500Y-68043500D01*
X158717500Y-69243500D02*
X159417500Y-69243500D01*
X154143000Y-79979000D02*
X154143000Y-79279000D01*
X152943000Y-79279000D02*
X152943000Y-79979000D01*
X156992500Y-73631500D02*
X156292500Y-73631500D01*
X156292500Y-74831500D02*
X156992500Y-74831500D01*
X157016500Y-75028500D02*
X156316500Y-75028500D01*
X156316500Y-76228500D02*
X157016500Y-76228500D01*
X146974000Y-71151000D02*
X146974000Y-71851000D01*
X148174000Y-71851000D02*
X148174000Y-71151000D01*
X146396000Y-78709000D02*
X146396000Y-78009000D01*
X145196000Y-78009000D02*
X145196000Y-78709000D01*
X147920000Y-78709000D02*
X147920000Y-78009000D01*
X146720000Y-78009000D02*
X146720000Y-78709000D01*
X144368000Y-69567500D02*
X143668000Y-69567500D01*
X143668000Y-70767500D02*
X144368000Y-70767500D01*
X149698000Y-62834000D02*
X149698000Y-62134000D01*
X148498000Y-62134000D02*
X148498000Y-62834000D01*
X152863500Y-64100000D02*
X153563500Y-64100000D01*
X153563500Y-62900000D02*
X152863500Y-62900000D01*
X152304000Y-70323000D02*
X153004000Y-70323000D01*
X153004000Y-69123000D02*
X152304000Y-69123000D01*
X152875500Y-71847000D02*
X153575500Y-71847000D01*
X153575500Y-70647000D02*
X152875500Y-70647000D01*
X152939000Y-73752000D02*
X153639000Y-73752000D01*
X153639000Y-72552000D02*
X152939000Y-72552000D01*
X150466500Y-71595500D02*
X150466500Y-72295500D01*
X151666500Y-72295500D02*
X151666500Y-71595500D01*
X152111000Y-78455000D02*
X152111000Y-77755000D01*
X150911000Y-77755000D02*
X150911000Y-78455000D01*
X152863500Y-66386000D02*
X153563500Y-66386000D01*
X153563500Y-65186000D02*
X152863500Y-65186000D01*
X152863500Y-67783000D02*
X153563500Y-67783000D01*
X153563500Y-66583000D02*
X152863500Y-66583000D01*
X152939000Y-60036000D02*
X153639000Y-60036000D01*
X153639000Y-58836000D02*
X152939000Y-58836000D01*
X146904000Y-62834000D02*
X146904000Y-62134000D01*
X145704000Y-62134000D02*
X145704000Y-62834000D01*
X144038500Y-61566500D02*
X143338500Y-61566500D01*
X143338500Y-62766500D02*
X144038500Y-62766500D01*
X144368000Y-68107000D02*
X143668000Y-68107000D01*
X143668000Y-69307000D02*
X144368000Y-69307000D01*
X151161000Y-42637000D02*
X151861000Y-42637000D01*
X151861000Y-41437000D02*
X151161000Y-41437000D01*
X152308000Y-39528000D02*
X152308000Y-40228000D01*
X153508000Y-40228000D02*
X153508000Y-39528000D01*
X153701000Y-34382000D02*
X154401000Y-34382000D01*
X154401000Y-33182000D02*
X153701000Y-33182000D01*
X148301000Y-37434000D02*
X148301000Y-36734000D01*
X147101000Y-36734000D02*
X147101000Y-37434000D01*
X146777000Y-37434000D02*
X146777000Y-36734000D01*
X145577000Y-36734000D02*
X145577000Y-37434000D01*
X150079000Y-37434000D02*
X150079000Y-36734000D01*
X148879000Y-36734000D02*
X148879000Y-37434000D01*
X133696000Y-50896000D02*
X133696000Y-50196000D01*
X132496000Y-50196000D02*
X132496000Y-50896000D01*
X137195000Y-49180000D02*
X137195000Y-49880000D01*
X138395000Y-49880000D02*
X138395000Y-49180000D01*
X153893000Y-55153000D02*
X153193000Y-55153000D01*
X153193000Y-56353000D02*
X153893000Y-56353000D01*
X157576000Y-45374000D02*
X156876000Y-45374000D01*
X156876000Y-46574000D02*
X157576000Y-46574000D01*
X152393000Y-48225000D02*
X152393000Y-47025000D01*
X154243000Y-48225000D02*
X152393000Y-48225000D01*
X154243000Y-47025000D02*
X152393000Y-47025000D01*
X140888000Y-68826000D02*
X140888000Y-67826000D01*
X139528000Y-67826000D02*
X139528000Y-68826000D01*
X143545000Y-75901000D02*
X142545000Y-75901000D01*
X142545000Y-77261000D02*
X143545000Y-77261000D01*
X140835000Y-63582000D02*
X139835000Y-63582000D01*
X139835000Y-64942000D02*
X140835000Y-64942000D01*
X137787000Y-75774000D02*
X136787000Y-75774000D01*
X136787000Y-77134000D02*
X137787000Y-77134000D01*
X157996000Y-35478000D02*
X158996000Y-35478000D01*
X158996000Y-34118000D02*
X157996000Y-34118000D01*
X128897000Y-56343000D02*
X127897000Y-56343000D01*
X127897000Y-57703000D02*
X128897000Y-57703000D01*
X134346000Y-76917000D02*
X133346000Y-76917000D01*
X133346000Y-78277000D02*
X134346000Y-78277000D01*
X132416000Y-74049000D02*
X132416000Y-75049000D01*
X133776000Y-75049000D02*
X133776000Y-74049000D01*
X151376000Y-79584000D02*
X150376000Y-79584000D01*
X150376000Y-80944000D02*
X151376000Y-80944000D01*
X132416000Y-47252000D02*
X132416000Y-48252000D01*
X133776000Y-48252000D02*
X133776000Y-47252000D01*
X135337000Y-47252000D02*
X135337000Y-48252000D01*
X136697000Y-48252000D02*
X136697000Y-47252000D01*
X150032000Y-72128000D02*
X150032000Y-71128000D01*
X148672000Y-71128000D02*
X148672000Y-72128000D01*
X137676000Y-74340000D02*
X138676000Y-74340000D01*
X138676000Y-72980000D02*
X137676000Y-72980000D01*
X144010000Y-33229000D02*
X143010000Y-33229000D01*
X143010000Y-34589000D02*
X144010000Y-34589000D01*
X157726000Y-31324000D02*
X156726000Y-31324000D01*
X156726000Y-32684000D02*
X157726000Y-32684000D01*
X145915000Y-31324000D02*
X144915000Y-31324000D01*
X144915000Y-32684000D02*
X145915000Y-32684000D01*
X149471000Y-31324000D02*
X148471000Y-31324000D01*
X148471000Y-32684000D02*
X149471000Y-32684000D01*
X152392000Y-31324000D02*
X151392000Y-31324000D01*
X151392000Y-32684000D02*
X152392000Y-32684000D01*
X133850000Y-52660000D02*
X132850000Y-52660000D01*
X132850000Y-54020000D02*
X133850000Y-54020000D01*
X137533000Y-52660000D02*
X136533000Y-52660000D01*
X136533000Y-54020000D02*
X137533000Y-54020000D01*
X135755000Y-39833000D02*
X134755000Y-39833000D01*
X134755000Y-41193000D02*
X135755000Y-41193000D01*
X156472000Y-58211000D02*
X157472000Y-58211000D01*
X157472000Y-56851000D02*
X156472000Y-56851000D01*
X135771000Y-42971000D02*
X136771000Y-42971000D01*
X136771000Y-41611000D02*
X135771000Y-41611000D01*
X158250000Y-55290000D02*
X159250000Y-55290000D01*
X159250000Y-53930000D02*
X158250000Y-53930000D01*
X158770000Y-50845000D02*
X159770000Y-50845000D01*
X159770000Y-49485000D02*
X158770000Y-49485000D01*
X161536000Y-51009000D02*
X160536000Y-51009000D01*
X160536000Y-52369000D02*
X161536000Y-52369000D01*
X156509000Y-51300000D02*
X156509000Y-50300000D01*
X155149000Y-50300000D02*
X155149000Y-51300000D01*
X159012000Y-49194000D02*
X160012000Y-49194000D01*
X160012000Y-47834000D02*
X159012000Y-47834000D01*
X149571000Y-78709000D02*
X149571000Y-78009000D01*
X148371000Y-78009000D02*
X148371000Y-78709000D01*
X148205000Y-40558000D02*
X149205000Y-40558000D01*
X149205000Y-39198000D02*
X148205000Y-39198000D01*
X148217000Y-42082000D02*
X149217000Y-42082000D01*
X149217000Y-40722000D02*
X148217000Y-40722000D01*
X149187000Y-47121000D02*
X149187000Y-47621000D01*
X148247000Y-47621000D02*
X148247000Y-47121000D01*
X152015000Y-50635000D02*
X151515000Y-50635000D01*
X151515000Y-49695000D02*
X152015000Y-49695000D01*
X143768000Y-50584000D02*
X144268000Y-50584000D01*
X144268000Y-51524000D02*
X143768000Y-51524000D01*
X145072000Y-50161000D02*
X145072000Y-49661000D01*
X146012000Y-49661000D02*
X146012000Y-50161000D01*
X149187000Y-51566000D02*
X149187000Y-52066000D01*
X148247000Y-52066000D02*
X148247000Y-51566000D01*
X147697000Y-49238000D02*
X147197000Y-49238000D01*
X147197000Y-48298000D02*
X147697000Y-48298000D01*
X151761000Y-49238000D02*
X151261000Y-49238000D01*
X151261000Y-48298000D02*
X151761000Y-48298000D01*
X151973000Y-52286000D02*
X151473000Y-52286000D01*
X151473000Y-51346000D02*
X151973000Y-51346000D01*
X146012000Y-51905000D02*
X146012000Y-52405000D01*
X145072000Y-52405000D02*
X145072000Y-51905000D01*
X149371000Y-56861000D02*
X150071000Y-56861000D01*
X150071000Y-55661000D02*
X149371000Y-55661000D01*
X146970000Y-45431000D02*
X147670000Y-45431000D01*
X147670000Y-44231000D02*
X146970000Y-44231000D01*
X161970000Y-38842000D02*
X161970000Y-37842000D01*
X160610000Y-37842000D02*
X160610000Y-38842000D01*
M02*
