G04 #@! TF.FileFunction,Legend,Top*
%FSLAX46Y46*%
G04 Gerber Fmt 4.6, Leading zero omitted, Abs format (unit mm)*
G04 Created by KiCad (PCBNEW 4.0.5) date 07/19/18 22:11:56*
%MOMM*%
%LPD*%
G01*
G04 APERTURE LIST*
%ADD10C,0.100000*%
%ADD11C,0.300000*%
%ADD12C,0.250000*%
%ADD13C,0.120000*%
%ADD14C,0.150000*%
G04 APERTURE END LIST*
D10*
D11*
X153657903Y-43389741D02*
X152597243Y-42329081D01*
X153102319Y-42834158D02*
X153708411Y-42228066D01*
X154263995Y-42783650D02*
X153203334Y-41722990D01*
X154769071Y-42278573D02*
X153708411Y-41217913D01*
X154112472Y-40813852D01*
X154263995Y-40763345D01*
X154365010Y-40763345D01*
X154516534Y-40813852D01*
X154668056Y-40965375D01*
X154718564Y-41116899D01*
X154718564Y-41217913D01*
X154668056Y-41369437D01*
X154263995Y-41773497D01*
X154819579Y-40308777D02*
X154819579Y-40207761D01*
X154870086Y-40056238D01*
X155122624Y-39803700D01*
X155274148Y-39753192D01*
X155375163Y-39753192D01*
X155526686Y-39803700D01*
X155627701Y-39904715D01*
X155728717Y-40106746D01*
X155728716Y-41318928D01*
X156385315Y-40662329D01*
X155627700Y-39298624D02*
X157041914Y-40005731D01*
X156334807Y-38591517D01*
X157294452Y-37732888D02*
X157142929Y-37783395D01*
X156991406Y-37934918D01*
X156890391Y-38136948D01*
X156890391Y-38338979D01*
X156940899Y-38490502D01*
X157092422Y-38743041D01*
X157243944Y-38894563D01*
X157496483Y-39046086D01*
X157648005Y-39096594D01*
X157850036Y-39096593D01*
X158052066Y-38995578D01*
X158153081Y-38894563D01*
X158254097Y-38692533D01*
X158254097Y-38591517D01*
X157900544Y-38237964D01*
X157698513Y-38439995D01*
X158456127Y-37985426D02*
X158961204Y-37480350D01*
X158658158Y-38389487D02*
X157951051Y-36975273D01*
X159365264Y-37682380D01*
D12*
X164379619Y-64214999D02*
X165379619Y-64214999D01*
X164665333Y-64548333D01*
X165379619Y-64881666D01*
X164379619Y-64881666D01*
X164379619Y-65786428D02*
X164903429Y-65786428D01*
X164998667Y-65738809D01*
X165046286Y-65643571D01*
X165046286Y-65453094D01*
X164998667Y-65357856D01*
X164427238Y-65786428D02*
X164379619Y-65691190D01*
X164379619Y-65453094D01*
X164427238Y-65357856D01*
X164522476Y-65310237D01*
X164617714Y-65310237D01*
X164712952Y-65357856D01*
X164760571Y-65453094D01*
X164760571Y-65691190D01*
X164808190Y-65786428D01*
X165046286Y-66119761D02*
X165046286Y-66500713D01*
X165379619Y-66262618D02*
X164522476Y-66262618D01*
X164427238Y-66310237D01*
X164379619Y-66405475D01*
X164379619Y-66500713D01*
X165046286Y-66691190D02*
X165046286Y-67072142D01*
X165379619Y-66834047D02*
X164522476Y-66834047D01*
X164427238Y-66881666D01*
X164379619Y-66976904D01*
X164379619Y-67072142D01*
X164379619Y-68167381D02*
X165379619Y-68167381D01*
X164903429Y-68167381D02*
X164903429Y-68738810D01*
X164379619Y-68738810D02*
X165379619Y-68738810D01*
X164379619Y-69357857D02*
X164427238Y-69262619D01*
X164474857Y-69215000D01*
X164570095Y-69167381D01*
X164855810Y-69167381D01*
X164951048Y-69215000D01*
X164998667Y-69262619D01*
X165046286Y-69357857D01*
X165046286Y-69500715D01*
X164998667Y-69595953D01*
X164951048Y-69643572D01*
X164855810Y-69691191D01*
X164570095Y-69691191D01*
X164474857Y-69643572D01*
X164427238Y-69595953D01*
X164379619Y-69500715D01*
X164379619Y-69357857D01*
X164379619Y-70262619D02*
X164427238Y-70167381D01*
X164522476Y-70119762D01*
X165379619Y-70119762D01*
X164379619Y-70786429D02*
X164427238Y-70691191D01*
X164522476Y-70643572D01*
X165379619Y-70643572D01*
X164379619Y-71595954D02*
X164903429Y-71595954D01*
X164998667Y-71548335D01*
X165046286Y-71453097D01*
X165046286Y-71262620D01*
X164998667Y-71167382D01*
X164427238Y-71595954D02*
X164379619Y-71500716D01*
X164379619Y-71262620D01*
X164427238Y-71167382D01*
X164522476Y-71119763D01*
X164617714Y-71119763D01*
X164712952Y-71167382D01*
X164760571Y-71262620D01*
X164760571Y-71500716D01*
X164808190Y-71595954D01*
X165046286Y-72072144D02*
X164379619Y-72072144D01*
X164951048Y-72072144D02*
X164998667Y-72119763D01*
X165046286Y-72215001D01*
X165046286Y-72357859D01*
X164998667Y-72453097D01*
X164903429Y-72500716D01*
X164379619Y-72500716D01*
X164379619Y-73405478D02*
X165379619Y-73405478D01*
X164427238Y-73405478D02*
X164379619Y-73310240D01*
X164379619Y-73119763D01*
X164427238Y-73024525D01*
X164474857Y-72976906D01*
X164570095Y-72929287D01*
X164855810Y-72929287D01*
X164951048Y-72976906D01*
X164998667Y-73024525D01*
X165046286Y-73119763D01*
X165046286Y-73310240D01*
X164998667Y-73405478D01*
X164427238Y-73834049D02*
X164379619Y-73929287D01*
X164379619Y-74119763D01*
X164427238Y-74215002D01*
X164522476Y-74262621D01*
X164570095Y-74262621D01*
X164665333Y-74215002D01*
X164712952Y-74119763D01*
X164712952Y-73976906D01*
X164760571Y-73881668D01*
X164855810Y-73834049D01*
X164903429Y-73834049D01*
X164998667Y-73881668D01*
X165046286Y-73976906D01*
X165046286Y-74119763D01*
X164998667Y-74215002D01*
X163534381Y-67500714D02*
X163582000Y-67548333D01*
X163629619Y-67643571D01*
X163629619Y-67881667D01*
X163582000Y-67976905D01*
X163534381Y-68024524D01*
X163439143Y-68072143D01*
X163343905Y-68072143D01*
X163201048Y-68024524D01*
X162629619Y-67453095D01*
X162629619Y-68072143D01*
X163629619Y-68691190D02*
X163629619Y-68786429D01*
X163582000Y-68881667D01*
X163534381Y-68929286D01*
X163439143Y-68976905D01*
X163248667Y-69024524D01*
X163010571Y-69024524D01*
X162820095Y-68976905D01*
X162724857Y-68929286D01*
X162677238Y-68881667D01*
X162629619Y-68786429D01*
X162629619Y-68691190D01*
X162677238Y-68595952D01*
X162724857Y-68548333D01*
X162820095Y-68500714D01*
X163010571Y-68453095D01*
X163248667Y-68453095D01*
X163439143Y-68500714D01*
X163534381Y-68548333D01*
X163582000Y-68595952D01*
X163629619Y-68691190D01*
X162629619Y-69976905D02*
X162629619Y-69405476D01*
X162629619Y-69691190D02*
X163629619Y-69691190D01*
X163486762Y-69595952D01*
X163391524Y-69500714D01*
X163343905Y-69405476D01*
X163201048Y-70548333D02*
X163248667Y-70453095D01*
X163296286Y-70405476D01*
X163391524Y-70357857D01*
X163439143Y-70357857D01*
X163534381Y-70405476D01*
X163582000Y-70453095D01*
X163629619Y-70548333D01*
X163629619Y-70738810D01*
X163582000Y-70834048D01*
X163534381Y-70881667D01*
X163439143Y-70929286D01*
X163391524Y-70929286D01*
X163296286Y-70881667D01*
X163248667Y-70834048D01*
X163201048Y-70738810D01*
X163201048Y-70548333D01*
X163153429Y-70453095D01*
X163105810Y-70405476D01*
X163010571Y-70357857D01*
X162820095Y-70357857D01*
X162724857Y-70405476D01*
X162677238Y-70453095D01*
X162629619Y-70548333D01*
X162629619Y-70738810D01*
X162677238Y-70834048D01*
X162724857Y-70881667D01*
X162820095Y-70929286D01*
X163010571Y-70929286D01*
X163105810Y-70881667D01*
X163153429Y-70834048D01*
X163201048Y-70738810D01*
X145400332Y-44108714D02*
X145400332Y-45108714D01*
X145400332Y-44156333D02*
X145495570Y-44108714D01*
X145686047Y-44108714D01*
X145781285Y-44156333D01*
X145828904Y-44203952D01*
X145876523Y-44299190D01*
X145876523Y-44584905D01*
X145828904Y-44680143D01*
X145781285Y-44727762D01*
X145686047Y-44775381D01*
X145495570Y-44775381D01*
X145400332Y-44727762D01*
X146305094Y-44775381D02*
X146305094Y-44108714D01*
X146305094Y-44299190D02*
X146352713Y-44203952D01*
X146400332Y-44156333D01*
X146495570Y-44108714D01*
X146590809Y-44108714D01*
X147066999Y-44775381D02*
X146971761Y-44727762D01*
X146924142Y-44680143D01*
X146876523Y-44584905D01*
X146876523Y-44299190D01*
X146924142Y-44203952D01*
X146971761Y-44156333D01*
X147066999Y-44108714D01*
X147209857Y-44108714D01*
X147305095Y-44156333D01*
X147352714Y-44203952D01*
X147400333Y-44299190D01*
X147400333Y-44584905D01*
X147352714Y-44680143D01*
X147305095Y-44727762D01*
X147209857Y-44775381D01*
X147066999Y-44775381D01*
X147828904Y-44108714D02*
X147828904Y-44965857D01*
X147781285Y-45061095D01*
X147686047Y-45108714D01*
X147638428Y-45108714D01*
X147828904Y-43775381D02*
X147781285Y-43823000D01*
X147828904Y-43870619D01*
X147876523Y-43823000D01*
X147828904Y-43775381D01*
X147828904Y-43870619D01*
X148686047Y-44727762D02*
X148590809Y-44775381D01*
X148400332Y-44775381D01*
X148305094Y-44727762D01*
X148257475Y-44632524D01*
X148257475Y-44251571D01*
X148305094Y-44156333D01*
X148400332Y-44108714D01*
X148590809Y-44108714D01*
X148686047Y-44156333D01*
X148733666Y-44251571D01*
X148733666Y-44346810D01*
X148257475Y-44442048D01*
X149590809Y-44727762D02*
X149495571Y-44775381D01*
X149305094Y-44775381D01*
X149209856Y-44727762D01*
X149162237Y-44680143D01*
X149114618Y-44584905D01*
X149114618Y-44299190D01*
X149162237Y-44203952D01*
X149209856Y-44156333D01*
X149305094Y-44108714D01*
X149495571Y-44108714D01*
X149590809Y-44156333D01*
X149876523Y-44108714D02*
X150257475Y-44108714D01*
X150019380Y-43775381D02*
X150019380Y-44632524D01*
X150066999Y-44727762D01*
X150162237Y-44775381D01*
X150257475Y-44775381D01*
X150543190Y-44727762D02*
X150638428Y-44775381D01*
X150828904Y-44775381D01*
X150924143Y-44727762D01*
X150971762Y-44632524D01*
X150971762Y-44584905D01*
X150924143Y-44489667D01*
X150828904Y-44442048D01*
X150686047Y-44442048D01*
X150590809Y-44394429D01*
X150543190Y-44299190D01*
X150543190Y-44251571D01*
X150590809Y-44156333D01*
X150686047Y-44108714D01*
X150828904Y-44108714D01*
X150924143Y-44156333D01*
X151400333Y-44680143D02*
X151447952Y-44727762D01*
X151400333Y-44775381D01*
X151352714Y-44727762D01*
X151400333Y-44680143D01*
X151400333Y-44775381D01*
X151876523Y-44775381D02*
X151876523Y-44108714D01*
X151876523Y-44203952D02*
X151924142Y-44156333D01*
X152019380Y-44108714D01*
X152162238Y-44108714D01*
X152257476Y-44156333D01*
X152305095Y-44251571D01*
X152305095Y-44775381D01*
X152305095Y-44251571D02*
X152352714Y-44156333D01*
X152447952Y-44108714D01*
X152590809Y-44108714D01*
X152686047Y-44156333D01*
X152733666Y-44251571D01*
X152733666Y-44775381D01*
X153638428Y-44775381D02*
X153638428Y-44251571D01*
X153590809Y-44156333D01*
X153495571Y-44108714D01*
X153305094Y-44108714D01*
X153209856Y-44156333D01*
X153638428Y-44727762D02*
X153543190Y-44775381D01*
X153305094Y-44775381D01*
X153209856Y-44727762D01*
X153162237Y-44632524D01*
X153162237Y-44537286D01*
X153209856Y-44442048D01*
X153305094Y-44394429D01*
X153543190Y-44394429D01*
X153638428Y-44346810D01*
X153971761Y-44108714D02*
X154352713Y-44108714D01*
X154114618Y-43775381D02*
X154114618Y-44632524D01*
X154162237Y-44727762D01*
X154257475Y-44775381D01*
X154352713Y-44775381D01*
X154543190Y-44108714D02*
X154924142Y-44108714D01*
X154686047Y-43775381D02*
X154686047Y-44632524D01*
X154733666Y-44727762D01*
X154828904Y-44775381D01*
X154924142Y-44775381D01*
X155257476Y-44775381D02*
X155257476Y-43775381D01*
X155686048Y-44775381D02*
X155686048Y-44251571D01*
X155638429Y-44156333D01*
X155543191Y-44108714D01*
X155400333Y-44108714D01*
X155305095Y-44156333D01*
X155257476Y-44203952D01*
X156305095Y-44775381D02*
X156209857Y-44727762D01*
X156162238Y-44680143D01*
X156114619Y-44584905D01*
X156114619Y-44299190D01*
X156162238Y-44203952D01*
X156209857Y-44156333D01*
X156305095Y-44108714D01*
X156447953Y-44108714D01*
X156543191Y-44156333D01*
X156590810Y-44203952D01*
X156638429Y-44299190D01*
X156638429Y-44584905D01*
X156590810Y-44680143D01*
X156543191Y-44727762D01*
X156447953Y-44775381D01*
X156305095Y-44775381D01*
X157209857Y-44775381D02*
X157114619Y-44727762D01*
X157067000Y-44632524D01*
X157067000Y-43775381D01*
X157733667Y-44775381D02*
X157638429Y-44727762D01*
X157590810Y-44632524D01*
X157590810Y-43775381D01*
X158543192Y-44775381D02*
X158543192Y-44251571D01*
X158495573Y-44156333D01*
X158400335Y-44108714D01*
X158209858Y-44108714D01*
X158114620Y-44156333D01*
X158543192Y-44727762D02*
X158447954Y-44775381D01*
X158209858Y-44775381D01*
X158114620Y-44727762D01*
X158067001Y-44632524D01*
X158067001Y-44537286D01*
X158114620Y-44442048D01*
X158209858Y-44394429D01*
X158447954Y-44394429D01*
X158543192Y-44346810D01*
X159019382Y-44108714D02*
X159019382Y-44775381D01*
X159019382Y-44203952D02*
X159067001Y-44156333D01*
X159162239Y-44108714D01*
X159305097Y-44108714D01*
X159400335Y-44156333D01*
X159447954Y-44251571D01*
X159447954Y-44775381D01*
X160352716Y-44775381D02*
X160352716Y-43775381D01*
X160352716Y-44727762D02*
X160257478Y-44775381D01*
X160067001Y-44775381D01*
X159971763Y-44727762D01*
X159924144Y-44680143D01*
X159876525Y-44584905D01*
X159876525Y-44299190D01*
X159924144Y-44203952D01*
X159971763Y-44156333D01*
X160067001Y-44108714D01*
X160257478Y-44108714D01*
X160352716Y-44156333D01*
X160781287Y-44727762D02*
X160876525Y-44775381D01*
X161067001Y-44775381D01*
X161162240Y-44727762D01*
X161209859Y-44632524D01*
X161209859Y-44584905D01*
X161162240Y-44489667D01*
X161067001Y-44442048D01*
X160924144Y-44442048D01*
X160828906Y-44394429D01*
X160781287Y-44299190D01*
X160781287Y-44251571D01*
X160828906Y-44156333D01*
X160924144Y-44108714D01*
X161067001Y-44108714D01*
X161162240Y-44156333D01*
X161638430Y-44680143D02*
X161686049Y-44727762D01*
X161638430Y-44775381D01*
X161590811Y-44727762D01*
X161638430Y-44680143D01*
X161638430Y-44775381D01*
X162543192Y-44727762D02*
X162447954Y-44775381D01*
X162257477Y-44775381D01*
X162162239Y-44727762D01*
X162114620Y-44680143D01*
X162067001Y-44584905D01*
X162067001Y-44299190D01*
X162114620Y-44203952D01*
X162162239Y-44156333D01*
X162257477Y-44108714D01*
X162447954Y-44108714D01*
X162543192Y-44156333D01*
X163114620Y-44775381D02*
X163019382Y-44727762D01*
X162971763Y-44680143D01*
X162924144Y-44584905D01*
X162924144Y-44299190D01*
X162971763Y-44203952D01*
X163019382Y-44156333D01*
X163114620Y-44108714D01*
X163257478Y-44108714D01*
X163352716Y-44156333D01*
X163400335Y-44203952D01*
X163447954Y-44299190D01*
X163447954Y-44584905D01*
X163400335Y-44680143D01*
X163352716Y-44727762D01*
X163257478Y-44775381D01*
X163114620Y-44775381D01*
X163876525Y-44775381D02*
X163876525Y-44108714D01*
X163876525Y-44203952D02*
X163924144Y-44156333D01*
X164019382Y-44108714D01*
X164162240Y-44108714D01*
X164257478Y-44156333D01*
X164305097Y-44251571D01*
X164305097Y-44775381D01*
X164305097Y-44251571D02*
X164352716Y-44156333D01*
X164447954Y-44108714D01*
X164590811Y-44108714D01*
X164686049Y-44156333D01*
X164733668Y-44251571D01*
X164733668Y-44775381D01*
D13*
X133016000Y-27156000D02*
X133016000Y-31856000D01*
X133016000Y-31856000D02*
X159116000Y-31856000D01*
X159116000Y-31856000D02*
X159116000Y-27156000D01*
X159116000Y-27156000D02*
X133016000Y-27156000D01*
X135566000Y-27156000D02*
X135566000Y-27756000D01*
X135566000Y-27756000D02*
X133616000Y-27756000D01*
X133616000Y-27756000D02*
X133616000Y-31256000D01*
X133616000Y-31256000D02*
X158516000Y-31256000D01*
X158516000Y-31256000D02*
X158516000Y-27756000D01*
X158516000Y-27756000D02*
X156566000Y-27756000D01*
X156566000Y-27756000D02*
X156566000Y-27156000D01*
X133016000Y-28456000D02*
X133616000Y-28456000D01*
X133016000Y-29756000D02*
X133616000Y-29756000D01*
X159116000Y-28456000D02*
X158516000Y-28456000D01*
X159116000Y-29756000D02*
X158516000Y-29756000D01*
X134766000Y-27156000D02*
X134766000Y-26956000D01*
X134766000Y-26956000D02*
X134466000Y-26956000D01*
X134466000Y-26956000D02*
X134466000Y-27156000D01*
X134766000Y-27056000D02*
X134466000Y-27056000D01*
X135966000Y-31256000D02*
X135966000Y-30756000D01*
X135966000Y-30756000D02*
X136166000Y-30756000D01*
X136166000Y-30756000D02*
X136166000Y-31256000D01*
X136066000Y-31256000D02*
X136066000Y-30756000D01*
X137966000Y-31256000D02*
X137966000Y-30756000D01*
X137966000Y-30756000D02*
X138166000Y-30756000D01*
X138166000Y-30756000D02*
X138166000Y-31256000D01*
X138066000Y-31256000D02*
X138066000Y-30756000D01*
X139966000Y-31256000D02*
X139966000Y-30756000D01*
X139966000Y-30756000D02*
X140166000Y-30756000D01*
X140166000Y-30756000D02*
X140166000Y-31256000D01*
X140066000Y-31256000D02*
X140066000Y-30756000D01*
X141966000Y-31256000D02*
X141966000Y-30756000D01*
X141966000Y-30756000D02*
X142166000Y-30756000D01*
X142166000Y-30756000D02*
X142166000Y-31256000D01*
X142066000Y-31256000D02*
X142066000Y-30756000D01*
X143966000Y-31256000D02*
X143966000Y-30756000D01*
X143966000Y-30756000D02*
X144166000Y-30756000D01*
X144166000Y-30756000D02*
X144166000Y-31256000D01*
X144066000Y-31256000D02*
X144066000Y-30756000D01*
X145966000Y-31256000D02*
X145966000Y-30756000D01*
X145966000Y-30756000D02*
X146166000Y-30756000D01*
X146166000Y-30756000D02*
X146166000Y-31256000D01*
X146066000Y-31256000D02*
X146066000Y-30756000D01*
X147966000Y-31256000D02*
X147966000Y-30756000D01*
X147966000Y-30756000D02*
X148166000Y-30756000D01*
X148166000Y-30756000D02*
X148166000Y-31256000D01*
X148066000Y-31256000D02*
X148066000Y-30756000D01*
X149966000Y-31256000D02*
X149966000Y-30756000D01*
X149966000Y-30756000D02*
X150166000Y-30756000D01*
X150166000Y-30756000D02*
X150166000Y-31256000D01*
X150066000Y-31256000D02*
X150066000Y-30756000D01*
X151966000Y-31256000D02*
X151966000Y-30756000D01*
X151966000Y-30756000D02*
X152166000Y-30756000D01*
X152166000Y-30756000D02*
X152166000Y-31256000D01*
X152066000Y-31256000D02*
X152066000Y-30756000D01*
X153966000Y-31256000D02*
X153966000Y-30756000D01*
X153966000Y-30756000D02*
X154166000Y-30756000D01*
X154166000Y-30756000D02*
X154166000Y-31256000D01*
X154066000Y-31256000D02*
X154066000Y-30756000D01*
X155966000Y-31256000D02*
X155966000Y-30756000D01*
X155966000Y-30756000D02*
X156166000Y-30756000D01*
X156166000Y-30756000D02*
X156166000Y-31256000D01*
X156066000Y-31256000D02*
X156066000Y-30756000D01*
X133966000Y-26856000D02*
X132716000Y-26856000D01*
X132716000Y-26856000D02*
X132716000Y-28106000D01*
D14*
X139781000Y-53990000D02*
X139781000Y-53640000D01*
X134031000Y-53990000D02*
X134031000Y-53540000D01*
X134031000Y-46340000D02*
X134031000Y-46790000D01*
X139781000Y-46340000D02*
X139781000Y-46790000D01*
X139781000Y-53990000D02*
X134031000Y-53990000D01*
X139781000Y-46340000D02*
X134031000Y-46340000D01*
X139781000Y-53640000D02*
X141381000Y-53640000D01*
X144965000Y-41725000D02*
X145415000Y-41725000D01*
X144965000Y-34475000D02*
X145490000Y-34475000D01*
X152215000Y-34475000D02*
X151690000Y-34475000D01*
X152215000Y-41725000D02*
X151690000Y-41725000D01*
X144965000Y-41725000D02*
X144965000Y-41200000D01*
X152215000Y-41725000D02*
X152215000Y-41200000D01*
X152215000Y-34475000D02*
X152215000Y-35000000D01*
X144965000Y-34475000D02*
X144965000Y-35000000D01*
X145415000Y-41725000D02*
X145415000Y-43100000D01*
D13*
X140244723Y-45374722D02*
G75*
G03X140245000Y-40763420I-1179723J2305722D01*
G01*
X137885277Y-45374722D02*
G75*
G02X137885000Y-40763420I1179723J2305722D01*
G01*
X137885277Y-45374722D02*
G75*
G03X140245000Y-45374580I1179723J2305722D01*
G01*
X141615000Y-43069000D02*
X136515000Y-43069000D01*
X141615000Y-43109000D02*
X140045000Y-43109000D01*
X138085000Y-43109000D02*
X136515000Y-43109000D01*
X141614000Y-43149000D02*
X140045000Y-43149000D01*
X138085000Y-43149000D02*
X136516000Y-43149000D01*
X141613000Y-43189000D02*
X140045000Y-43189000D01*
X138085000Y-43189000D02*
X136517000Y-43189000D01*
X141611000Y-43229000D02*
X140045000Y-43229000D01*
X138085000Y-43229000D02*
X136519000Y-43229000D01*
X141608000Y-43269000D02*
X140045000Y-43269000D01*
X138085000Y-43269000D02*
X136522000Y-43269000D01*
X141604000Y-43309000D02*
X140045000Y-43309000D01*
X138085000Y-43309000D02*
X136526000Y-43309000D01*
X141600000Y-43349000D02*
X140045000Y-43349000D01*
X138085000Y-43349000D02*
X136530000Y-43349000D01*
X141596000Y-43389000D02*
X140045000Y-43389000D01*
X138085000Y-43389000D02*
X136534000Y-43389000D01*
X141590000Y-43429000D02*
X140045000Y-43429000D01*
X138085000Y-43429000D02*
X136540000Y-43429000D01*
X141584000Y-43469000D02*
X140045000Y-43469000D01*
X138085000Y-43469000D02*
X136546000Y-43469000D01*
X141578000Y-43509000D02*
X140045000Y-43509000D01*
X138085000Y-43509000D02*
X136552000Y-43509000D01*
X141571000Y-43549000D02*
X140045000Y-43549000D01*
X138085000Y-43549000D02*
X136559000Y-43549000D01*
X141563000Y-43589000D02*
X140045000Y-43589000D01*
X138085000Y-43589000D02*
X136567000Y-43589000D01*
X141554000Y-43629000D02*
X140045000Y-43629000D01*
X138085000Y-43629000D02*
X136576000Y-43629000D01*
X141545000Y-43669000D02*
X140045000Y-43669000D01*
X138085000Y-43669000D02*
X136585000Y-43669000D01*
X141535000Y-43709000D02*
X140045000Y-43709000D01*
X138085000Y-43709000D02*
X136595000Y-43709000D01*
X141525000Y-43749000D02*
X140045000Y-43749000D01*
X138085000Y-43749000D02*
X136605000Y-43749000D01*
X141513000Y-43790000D02*
X140045000Y-43790000D01*
X138085000Y-43790000D02*
X136617000Y-43790000D01*
X141501000Y-43830000D02*
X140045000Y-43830000D01*
X138085000Y-43830000D02*
X136629000Y-43830000D01*
X141489000Y-43870000D02*
X140045000Y-43870000D01*
X138085000Y-43870000D02*
X136641000Y-43870000D01*
X141475000Y-43910000D02*
X140045000Y-43910000D01*
X138085000Y-43910000D02*
X136655000Y-43910000D01*
X141461000Y-43950000D02*
X140045000Y-43950000D01*
X138085000Y-43950000D02*
X136669000Y-43950000D01*
X141447000Y-43990000D02*
X140045000Y-43990000D01*
X138085000Y-43990000D02*
X136683000Y-43990000D01*
X141431000Y-44030000D02*
X140045000Y-44030000D01*
X138085000Y-44030000D02*
X136699000Y-44030000D01*
X141415000Y-44070000D02*
X140045000Y-44070000D01*
X138085000Y-44070000D02*
X136715000Y-44070000D01*
X141398000Y-44110000D02*
X140045000Y-44110000D01*
X138085000Y-44110000D02*
X136732000Y-44110000D01*
X141380000Y-44150000D02*
X140045000Y-44150000D01*
X138085000Y-44150000D02*
X136750000Y-44150000D01*
X141361000Y-44190000D02*
X140045000Y-44190000D01*
X138085000Y-44190000D02*
X136769000Y-44190000D01*
X141341000Y-44230000D02*
X140045000Y-44230000D01*
X138085000Y-44230000D02*
X136789000Y-44230000D01*
X141321000Y-44270000D02*
X140045000Y-44270000D01*
X138085000Y-44270000D02*
X136809000Y-44270000D01*
X141299000Y-44310000D02*
X140045000Y-44310000D01*
X138085000Y-44310000D02*
X136831000Y-44310000D01*
X141277000Y-44350000D02*
X140045000Y-44350000D01*
X138085000Y-44350000D02*
X136853000Y-44350000D01*
X141254000Y-44390000D02*
X140045000Y-44390000D01*
X138085000Y-44390000D02*
X136876000Y-44390000D01*
X141230000Y-44430000D02*
X140045000Y-44430000D01*
X138085000Y-44430000D02*
X136900000Y-44430000D01*
X141205000Y-44470000D02*
X140045000Y-44470000D01*
X138085000Y-44470000D02*
X136925000Y-44470000D01*
X141178000Y-44510000D02*
X140045000Y-44510000D01*
X138085000Y-44510000D02*
X136952000Y-44510000D01*
X141151000Y-44550000D02*
X140045000Y-44550000D01*
X138085000Y-44550000D02*
X136979000Y-44550000D01*
X141123000Y-44590000D02*
X140045000Y-44590000D01*
X138085000Y-44590000D02*
X137007000Y-44590000D01*
X141093000Y-44630000D02*
X140045000Y-44630000D01*
X138085000Y-44630000D02*
X137037000Y-44630000D01*
X141062000Y-44670000D02*
X140045000Y-44670000D01*
X138085000Y-44670000D02*
X137068000Y-44670000D01*
X141030000Y-44710000D02*
X140045000Y-44710000D01*
X138085000Y-44710000D02*
X137100000Y-44710000D01*
X140997000Y-44750000D02*
X140045000Y-44750000D01*
X138085000Y-44750000D02*
X137133000Y-44750000D01*
X140962000Y-44790000D02*
X140045000Y-44790000D01*
X138085000Y-44790000D02*
X137168000Y-44790000D01*
X140926000Y-44830000D02*
X140045000Y-44830000D01*
X138085000Y-44830000D02*
X137204000Y-44830000D01*
X140888000Y-44870000D02*
X140045000Y-44870000D01*
X138085000Y-44870000D02*
X137242000Y-44870000D01*
X140848000Y-44910000D02*
X140045000Y-44910000D01*
X138085000Y-44910000D02*
X137282000Y-44910000D01*
X140807000Y-44950000D02*
X140045000Y-44950000D01*
X138085000Y-44950000D02*
X137323000Y-44950000D01*
X140764000Y-44990000D02*
X140045000Y-44990000D01*
X138085000Y-44990000D02*
X137366000Y-44990000D01*
X140719000Y-45030000D02*
X140045000Y-45030000D01*
X138085000Y-45030000D02*
X137411000Y-45030000D01*
X140671000Y-45070000D02*
X137459000Y-45070000D01*
X140621000Y-45110000D02*
X137509000Y-45110000D01*
X140569000Y-45150000D02*
X137561000Y-45150000D01*
X140513000Y-45190000D02*
X137617000Y-45190000D01*
X140455000Y-45230000D02*
X137675000Y-45230000D01*
X140392000Y-45270000D02*
X137738000Y-45270000D01*
X140326000Y-45310000D02*
X137804000Y-45310000D01*
X140254000Y-45350000D02*
X137876000Y-45350000D01*
X140177000Y-45390000D02*
X137953000Y-45390000D01*
X140093000Y-45430000D02*
X138037000Y-45430000D01*
X139999000Y-45470000D02*
X138131000Y-45470000D01*
X139894000Y-45510000D02*
X138236000Y-45510000D01*
X139772000Y-45550000D02*
X138358000Y-45550000D01*
X139624000Y-45590000D02*
X138506000Y-45590000D01*
X139419000Y-45630000D02*
X138711000Y-45630000D01*
X139065000Y-39869000D02*
X139065000Y-41069000D01*
X139715000Y-40469000D02*
X138415000Y-40469000D01*
X126996278Y-82586723D02*
G75*
G03X131607580Y-82587000I2305722J1179723D01*
G01*
X126996278Y-80227277D02*
G75*
G02X131607580Y-80227000I2305722J-1179723D01*
G01*
X126996278Y-80227277D02*
G75*
G03X126996420Y-82587000I2305722J-1179723D01*
G01*
X129302000Y-83957000D02*
X129302000Y-78857000D01*
X129262000Y-83957000D02*
X129262000Y-82387000D01*
X129262000Y-80427000D02*
X129262000Y-78857000D01*
X129222000Y-83956000D02*
X129222000Y-82387000D01*
X129222000Y-80427000D02*
X129222000Y-78858000D01*
X129182000Y-83955000D02*
X129182000Y-82387000D01*
X129182000Y-80427000D02*
X129182000Y-78859000D01*
X129142000Y-83953000D02*
X129142000Y-82387000D01*
X129142000Y-80427000D02*
X129142000Y-78861000D01*
X129102000Y-83950000D02*
X129102000Y-82387000D01*
X129102000Y-80427000D02*
X129102000Y-78864000D01*
X129062000Y-83946000D02*
X129062000Y-82387000D01*
X129062000Y-80427000D02*
X129062000Y-78868000D01*
X129022000Y-83942000D02*
X129022000Y-82387000D01*
X129022000Y-80427000D02*
X129022000Y-78872000D01*
X128982000Y-83938000D02*
X128982000Y-82387000D01*
X128982000Y-80427000D02*
X128982000Y-78876000D01*
X128942000Y-83932000D02*
X128942000Y-82387000D01*
X128942000Y-80427000D02*
X128942000Y-78882000D01*
X128902000Y-83926000D02*
X128902000Y-82387000D01*
X128902000Y-80427000D02*
X128902000Y-78888000D01*
X128862000Y-83920000D02*
X128862000Y-82387000D01*
X128862000Y-80427000D02*
X128862000Y-78894000D01*
X128822000Y-83913000D02*
X128822000Y-82387000D01*
X128822000Y-80427000D02*
X128822000Y-78901000D01*
X128782000Y-83905000D02*
X128782000Y-82387000D01*
X128782000Y-80427000D02*
X128782000Y-78909000D01*
X128742000Y-83896000D02*
X128742000Y-82387000D01*
X128742000Y-80427000D02*
X128742000Y-78918000D01*
X128702000Y-83887000D02*
X128702000Y-82387000D01*
X128702000Y-80427000D02*
X128702000Y-78927000D01*
X128662000Y-83877000D02*
X128662000Y-82387000D01*
X128662000Y-80427000D02*
X128662000Y-78937000D01*
X128622000Y-83867000D02*
X128622000Y-82387000D01*
X128622000Y-80427000D02*
X128622000Y-78947000D01*
X128581000Y-83855000D02*
X128581000Y-82387000D01*
X128581000Y-80427000D02*
X128581000Y-78959000D01*
X128541000Y-83843000D02*
X128541000Y-82387000D01*
X128541000Y-80427000D02*
X128541000Y-78971000D01*
X128501000Y-83831000D02*
X128501000Y-82387000D01*
X128501000Y-80427000D02*
X128501000Y-78983000D01*
X128461000Y-83817000D02*
X128461000Y-82387000D01*
X128461000Y-80427000D02*
X128461000Y-78997000D01*
X128421000Y-83803000D02*
X128421000Y-82387000D01*
X128421000Y-80427000D02*
X128421000Y-79011000D01*
X128381000Y-83789000D02*
X128381000Y-82387000D01*
X128381000Y-80427000D02*
X128381000Y-79025000D01*
X128341000Y-83773000D02*
X128341000Y-82387000D01*
X128341000Y-80427000D02*
X128341000Y-79041000D01*
X128301000Y-83757000D02*
X128301000Y-82387000D01*
X128301000Y-80427000D02*
X128301000Y-79057000D01*
X128261000Y-83740000D02*
X128261000Y-82387000D01*
X128261000Y-80427000D02*
X128261000Y-79074000D01*
X128221000Y-83722000D02*
X128221000Y-82387000D01*
X128221000Y-80427000D02*
X128221000Y-79092000D01*
X128181000Y-83703000D02*
X128181000Y-82387000D01*
X128181000Y-80427000D02*
X128181000Y-79111000D01*
X128141000Y-83683000D02*
X128141000Y-82387000D01*
X128141000Y-80427000D02*
X128141000Y-79131000D01*
X128101000Y-83663000D02*
X128101000Y-82387000D01*
X128101000Y-80427000D02*
X128101000Y-79151000D01*
X128061000Y-83641000D02*
X128061000Y-82387000D01*
X128061000Y-80427000D02*
X128061000Y-79173000D01*
X128021000Y-83619000D02*
X128021000Y-82387000D01*
X128021000Y-80427000D02*
X128021000Y-79195000D01*
X127981000Y-83596000D02*
X127981000Y-82387000D01*
X127981000Y-80427000D02*
X127981000Y-79218000D01*
X127941000Y-83572000D02*
X127941000Y-82387000D01*
X127941000Y-80427000D02*
X127941000Y-79242000D01*
X127901000Y-83547000D02*
X127901000Y-82387000D01*
X127901000Y-80427000D02*
X127901000Y-79267000D01*
X127861000Y-83520000D02*
X127861000Y-82387000D01*
X127861000Y-80427000D02*
X127861000Y-79294000D01*
X127821000Y-83493000D02*
X127821000Y-82387000D01*
X127821000Y-80427000D02*
X127821000Y-79321000D01*
X127781000Y-83465000D02*
X127781000Y-82387000D01*
X127781000Y-80427000D02*
X127781000Y-79349000D01*
X127741000Y-83435000D02*
X127741000Y-82387000D01*
X127741000Y-80427000D02*
X127741000Y-79379000D01*
X127701000Y-83404000D02*
X127701000Y-82387000D01*
X127701000Y-80427000D02*
X127701000Y-79410000D01*
X127661000Y-83372000D02*
X127661000Y-82387000D01*
X127661000Y-80427000D02*
X127661000Y-79442000D01*
X127621000Y-83339000D02*
X127621000Y-82387000D01*
X127621000Y-80427000D02*
X127621000Y-79475000D01*
X127581000Y-83304000D02*
X127581000Y-82387000D01*
X127581000Y-80427000D02*
X127581000Y-79510000D01*
X127541000Y-83268000D02*
X127541000Y-82387000D01*
X127541000Y-80427000D02*
X127541000Y-79546000D01*
X127501000Y-83230000D02*
X127501000Y-82387000D01*
X127501000Y-80427000D02*
X127501000Y-79584000D01*
X127461000Y-83190000D02*
X127461000Y-82387000D01*
X127461000Y-80427000D02*
X127461000Y-79624000D01*
X127421000Y-83149000D02*
X127421000Y-82387000D01*
X127421000Y-80427000D02*
X127421000Y-79665000D01*
X127381000Y-83106000D02*
X127381000Y-82387000D01*
X127381000Y-80427000D02*
X127381000Y-79708000D01*
X127341000Y-83061000D02*
X127341000Y-82387000D01*
X127341000Y-80427000D02*
X127341000Y-79753000D01*
X127301000Y-83013000D02*
X127301000Y-79801000D01*
X127261000Y-82963000D02*
X127261000Y-79851000D01*
X127221000Y-82911000D02*
X127221000Y-79903000D01*
X127181000Y-82855000D02*
X127181000Y-79959000D01*
X127141000Y-82797000D02*
X127141000Y-80017000D01*
X127101000Y-82734000D02*
X127101000Y-80080000D01*
X127061000Y-82668000D02*
X127061000Y-80146000D01*
X127021000Y-82596000D02*
X127021000Y-80218000D01*
X126981000Y-82519000D02*
X126981000Y-80295000D01*
X126941000Y-82435000D02*
X126941000Y-80379000D01*
X126901000Y-82341000D02*
X126901000Y-80473000D01*
X126861000Y-82236000D02*
X126861000Y-80578000D01*
X126821000Y-82114000D02*
X126821000Y-80700000D01*
X126781000Y-81966000D02*
X126781000Y-80848000D01*
X126741000Y-81761000D02*
X126741000Y-81053000D01*
X132502000Y-81407000D02*
X131302000Y-81407000D01*
X131902000Y-82057000D02*
X131902000Y-80757000D01*
X129630277Y-60543278D02*
G75*
G03X129630000Y-65154580I1179723J-2305722D01*
G01*
X131989723Y-60543278D02*
G75*
G02X131990000Y-65154580I-1179723J-2305722D01*
G01*
X131989723Y-60543278D02*
G75*
G03X129630000Y-60543420I-1179723J-2305722D01*
G01*
X128260000Y-62849000D02*
X133360000Y-62849000D01*
X128260000Y-62809000D02*
X129830000Y-62809000D01*
X131790000Y-62809000D02*
X133360000Y-62809000D01*
X128261000Y-62769000D02*
X129830000Y-62769000D01*
X131790000Y-62769000D02*
X133359000Y-62769000D01*
X128262000Y-62729000D02*
X129830000Y-62729000D01*
X131790000Y-62729000D02*
X133358000Y-62729000D01*
X128264000Y-62689000D02*
X129830000Y-62689000D01*
X131790000Y-62689000D02*
X133356000Y-62689000D01*
X128267000Y-62649000D02*
X129830000Y-62649000D01*
X131790000Y-62649000D02*
X133353000Y-62649000D01*
X128271000Y-62609000D02*
X129830000Y-62609000D01*
X131790000Y-62609000D02*
X133349000Y-62609000D01*
X128275000Y-62569000D02*
X129830000Y-62569000D01*
X131790000Y-62569000D02*
X133345000Y-62569000D01*
X128279000Y-62529000D02*
X129830000Y-62529000D01*
X131790000Y-62529000D02*
X133341000Y-62529000D01*
X128285000Y-62489000D02*
X129830000Y-62489000D01*
X131790000Y-62489000D02*
X133335000Y-62489000D01*
X128291000Y-62449000D02*
X129830000Y-62449000D01*
X131790000Y-62449000D02*
X133329000Y-62449000D01*
X128297000Y-62409000D02*
X129830000Y-62409000D01*
X131790000Y-62409000D02*
X133323000Y-62409000D01*
X128304000Y-62369000D02*
X129830000Y-62369000D01*
X131790000Y-62369000D02*
X133316000Y-62369000D01*
X128312000Y-62329000D02*
X129830000Y-62329000D01*
X131790000Y-62329000D02*
X133308000Y-62329000D01*
X128321000Y-62289000D02*
X129830000Y-62289000D01*
X131790000Y-62289000D02*
X133299000Y-62289000D01*
X128330000Y-62249000D02*
X129830000Y-62249000D01*
X131790000Y-62249000D02*
X133290000Y-62249000D01*
X128340000Y-62209000D02*
X129830000Y-62209000D01*
X131790000Y-62209000D02*
X133280000Y-62209000D01*
X128350000Y-62169000D02*
X129830000Y-62169000D01*
X131790000Y-62169000D02*
X133270000Y-62169000D01*
X128362000Y-62128000D02*
X129830000Y-62128000D01*
X131790000Y-62128000D02*
X133258000Y-62128000D01*
X128374000Y-62088000D02*
X129830000Y-62088000D01*
X131790000Y-62088000D02*
X133246000Y-62088000D01*
X128386000Y-62048000D02*
X129830000Y-62048000D01*
X131790000Y-62048000D02*
X133234000Y-62048000D01*
X128400000Y-62008000D02*
X129830000Y-62008000D01*
X131790000Y-62008000D02*
X133220000Y-62008000D01*
X128414000Y-61968000D02*
X129830000Y-61968000D01*
X131790000Y-61968000D02*
X133206000Y-61968000D01*
X128428000Y-61928000D02*
X129830000Y-61928000D01*
X131790000Y-61928000D02*
X133192000Y-61928000D01*
X128444000Y-61888000D02*
X129830000Y-61888000D01*
X131790000Y-61888000D02*
X133176000Y-61888000D01*
X128460000Y-61848000D02*
X129830000Y-61848000D01*
X131790000Y-61848000D02*
X133160000Y-61848000D01*
X128477000Y-61808000D02*
X129830000Y-61808000D01*
X131790000Y-61808000D02*
X133143000Y-61808000D01*
X128495000Y-61768000D02*
X129830000Y-61768000D01*
X131790000Y-61768000D02*
X133125000Y-61768000D01*
X128514000Y-61728000D02*
X129830000Y-61728000D01*
X131790000Y-61728000D02*
X133106000Y-61728000D01*
X128534000Y-61688000D02*
X129830000Y-61688000D01*
X131790000Y-61688000D02*
X133086000Y-61688000D01*
X128554000Y-61648000D02*
X129830000Y-61648000D01*
X131790000Y-61648000D02*
X133066000Y-61648000D01*
X128576000Y-61608000D02*
X129830000Y-61608000D01*
X131790000Y-61608000D02*
X133044000Y-61608000D01*
X128598000Y-61568000D02*
X129830000Y-61568000D01*
X131790000Y-61568000D02*
X133022000Y-61568000D01*
X128621000Y-61528000D02*
X129830000Y-61528000D01*
X131790000Y-61528000D02*
X132999000Y-61528000D01*
X128645000Y-61488000D02*
X129830000Y-61488000D01*
X131790000Y-61488000D02*
X132975000Y-61488000D01*
X128670000Y-61448000D02*
X129830000Y-61448000D01*
X131790000Y-61448000D02*
X132950000Y-61448000D01*
X128697000Y-61408000D02*
X129830000Y-61408000D01*
X131790000Y-61408000D02*
X132923000Y-61408000D01*
X128724000Y-61368000D02*
X129830000Y-61368000D01*
X131790000Y-61368000D02*
X132896000Y-61368000D01*
X128752000Y-61328000D02*
X129830000Y-61328000D01*
X131790000Y-61328000D02*
X132868000Y-61328000D01*
X128782000Y-61288000D02*
X129830000Y-61288000D01*
X131790000Y-61288000D02*
X132838000Y-61288000D01*
X128813000Y-61248000D02*
X129830000Y-61248000D01*
X131790000Y-61248000D02*
X132807000Y-61248000D01*
X128845000Y-61208000D02*
X129830000Y-61208000D01*
X131790000Y-61208000D02*
X132775000Y-61208000D01*
X128878000Y-61168000D02*
X129830000Y-61168000D01*
X131790000Y-61168000D02*
X132742000Y-61168000D01*
X128913000Y-61128000D02*
X129830000Y-61128000D01*
X131790000Y-61128000D02*
X132707000Y-61128000D01*
X128949000Y-61088000D02*
X129830000Y-61088000D01*
X131790000Y-61088000D02*
X132671000Y-61088000D01*
X128987000Y-61048000D02*
X129830000Y-61048000D01*
X131790000Y-61048000D02*
X132633000Y-61048000D01*
X129027000Y-61008000D02*
X129830000Y-61008000D01*
X131790000Y-61008000D02*
X132593000Y-61008000D01*
X129068000Y-60968000D02*
X129830000Y-60968000D01*
X131790000Y-60968000D02*
X132552000Y-60968000D01*
X129111000Y-60928000D02*
X129830000Y-60928000D01*
X131790000Y-60928000D02*
X132509000Y-60928000D01*
X129156000Y-60888000D02*
X129830000Y-60888000D01*
X131790000Y-60888000D02*
X132464000Y-60888000D01*
X129204000Y-60848000D02*
X132416000Y-60848000D01*
X129254000Y-60808000D02*
X132366000Y-60808000D01*
X129306000Y-60768000D02*
X132314000Y-60768000D01*
X129362000Y-60728000D02*
X132258000Y-60728000D01*
X129420000Y-60688000D02*
X132200000Y-60688000D01*
X129483000Y-60648000D02*
X132137000Y-60648000D01*
X129549000Y-60608000D02*
X132071000Y-60608000D01*
X129621000Y-60568000D02*
X131999000Y-60568000D01*
X129698000Y-60528000D02*
X131922000Y-60528000D01*
X129782000Y-60488000D02*
X131838000Y-60488000D01*
X129876000Y-60448000D02*
X131744000Y-60448000D01*
X129981000Y-60408000D02*
X131639000Y-60408000D01*
X130103000Y-60368000D02*
X131517000Y-60368000D01*
X130251000Y-60328000D02*
X131369000Y-60328000D01*
X130456000Y-60288000D02*
X131164000Y-60288000D01*
X130810000Y-66049000D02*
X130810000Y-64849000D01*
X130160000Y-65449000D02*
X131460000Y-65449000D01*
X135472277Y-60543278D02*
G75*
G03X135472000Y-65154580I1179723J-2305722D01*
G01*
X137831723Y-60543278D02*
G75*
G02X137832000Y-65154580I-1179723J-2305722D01*
G01*
X137831723Y-60543278D02*
G75*
G03X135472000Y-60543420I-1179723J-2305722D01*
G01*
X134102000Y-62849000D02*
X139202000Y-62849000D01*
X134102000Y-62809000D02*
X135672000Y-62809000D01*
X137632000Y-62809000D02*
X139202000Y-62809000D01*
X134103000Y-62769000D02*
X135672000Y-62769000D01*
X137632000Y-62769000D02*
X139201000Y-62769000D01*
X134104000Y-62729000D02*
X135672000Y-62729000D01*
X137632000Y-62729000D02*
X139200000Y-62729000D01*
X134106000Y-62689000D02*
X135672000Y-62689000D01*
X137632000Y-62689000D02*
X139198000Y-62689000D01*
X134109000Y-62649000D02*
X135672000Y-62649000D01*
X137632000Y-62649000D02*
X139195000Y-62649000D01*
X134113000Y-62609000D02*
X135672000Y-62609000D01*
X137632000Y-62609000D02*
X139191000Y-62609000D01*
X134117000Y-62569000D02*
X135672000Y-62569000D01*
X137632000Y-62569000D02*
X139187000Y-62569000D01*
X134121000Y-62529000D02*
X135672000Y-62529000D01*
X137632000Y-62529000D02*
X139183000Y-62529000D01*
X134127000Y-62489000D02*
X135672000Y-62489000D01*
X137632000Y-62489000D02*
X139177000Y-62489000D01*
X134133000Y-62449000D02*
X135672000Y-62449000D01*
X137632000Y-62449000D02*
X139171000Y-62449000D01*
X134139000Y-62409000D02*
X135672000Y-62409000D01*
X137632000Y-62409000D02*
X139165000Y-62409000D01*
X134146000Y-62369000D02*
X135672000Y-62369000D01*
X137632000Y-62369000D02*
X139158000Y-62369000D01*
X134154000Y-62329000D02*
X135672000Y-62329000D01*
X137632000Y-62329000D02*
X139150000Y-62329000D01*
X134163000Y-62289000D02*
X135672000Y-62289000D01*
X137632000Y-62289000D02*
X139141000Y-62289000D01*
X134172000Y-62249000D02*
X135672000Y-62249000D01*
X137632000Y-62249000D02*
X139132000Y-62249000D01*
X134182000Y-62209000D02*
X135672000Y-62209000D01*
X137632000Y-62209000D02*
X139122000Y-62209000D01*
X134192000Y-62169000D02*
X135672000Y-62169000D01*
X137632000Y-62169000D02*
X139112000Y-62169000D01*
X134204000Y-62128000D02*
X135672000Y-62128000D01*
X137632000Y-62128000D02*
X139100000Y-62128000D01*
X134216000Y-62088000D02*
X135672000Y-62088000D01*
X137632000Y-62088000D02*
X139088000Y-62088000D01*
X134228000Y-62048000D02*
X135672000Y-62048000D01*
X137632000Y-62048000D02*
X139076000Y-62048000D01*
X134242000Y-62008000D02*
X135672000Y-62008000D01*
X137632000Y-62008000D02*
X139062000Y-62008000D01*
X134256000Y-61968000D02*
X135672000Y-61968000D01*
X137632000Y-61968000D02*
X139048000Y-61968000D01*
X134270000Y-61928000D02*
X135672000Y-61928000D01*
X137632000Y-61928000D02*
X139034000Y-61928000D01*
X134286000Y-61888000D02*
X135672000Y-61888000D01*
X137632000Y-61888000D02*
X139018000Y-61888000D01*
X134302000Y-61848000D02*
X135672000Y-61848000D01*
X137632000Y-61848000D02*
X139002000Y-61848000D01*
X134319000Y-61808000D02*
X135672000Y-61808000D01*
X137632000Y-61808000D02*
X138985000Y-61808000D01*
X134337000Y-61768000D02*
X135672000Y-61768000D01*
X137632000Y-61768000D02*
X138967000Y-61768000D01*
X134356000Y-61728000D02*
X135672000Y-61728000D01*
X137632000Y-61728000D02*
X138948000Y-61728000D01*
X134376000Y-61688000D02*
X135672000Y-61688000D01*
X137632000Y-61688000D02*
X138928000Y-61688000D01*
X134396000Y-61648000D02*
X135672000Y-61648000D01*
X137632000Y-61648000D02*
X138908000Y-61648000D01*
X134418000Y-61608000D02*
X135672000Y-61608000D01*
X137632000Y-61608000D02*
X138886000Y-61608000D01*
X134440000Y-61568000D02*
X135672000Y-61568000D01*
X137632000Y-61568000D02*
X138864000Y-61568000D01*
X134463000Y-61528000D02*
X135672000Y-61528000D01*
X137632000Y-61528000D02*
X138841000Y-61528000D01*
X134487000Y-61488000D02*
X135672000Y-61488000D01*
X137632000Y-61488000D02*
X138817000Y-61488000D01*
X134512000Y-61448000D02*
X135672000Y-61448000D01*
X137632000Y-61448000D02*
X138792000Y-61448000D01*
X134539000Y-61408000D02*
X135672000Y-61408000D01*
X137632000Y-61408000D02*
X138765000Y-61408000D01*
X134566000Y-61368000D02*
X135672000Y-61368000D01*
X137632000Y-61368000D02*
X138738000Y-61368000D01*
X134594000Y-61328000D02*
X135672000Y-61328000D01*
X137632000Y-61328000D02*
X138710000Y-61328000D01*
X134624000Y-61288000D02*
X135672000Y-61288000D01*
X137632000Y-61288000D02*
X138680000Y-61288000D01*
X134655000Y-61248000D02*
X135672000Y-61248000D01*
X137632000Y-61248000D02*
X138649000Y-61248000D01*
X134687000Y-61208000D02*
X135672000Y-61208000D01*
X137632000Y-61208000D02*
X138617000Y-61208000D01*
X134720000Y-61168000D02*
X135672000Y-61168000D01*
X137632000Y-61168000D02*
X138584000Y-61168000D01*
X134755000Y-61128000D02*
X135672000Y-61128000D01*
X137632000Y-61128000D02*
X138549000Y-61128000D01*
X134791000Y-61088000D02*
X135672000Y-61088000D01*
X137632000Y-61088000D02*
X138513000Y-61088000D01*
X134829000Y-61048000D02*
X135672000Y-61048000D01*
X137632000Y-61048000D02*
X138475000Y-61048000D01*
X134869000Y-61008000D02*
X135672000Y-61008000D01*
X137632000Y-61008000D02*
X138435000Y-61008000D01*
X134910000Y-60968000D02*
X135672000Y-60968000D01*
X137632000Y-60968000D02*
X138394000Y-60968000D01*
X134953000Y-60928000D02*
X135672000Y-60928000D01*
X137632000Y-60928000D02*
X138351000Y-60928000D01*
X134998000Y-60888000D02*
X135672000Y-60888000D01*
X137632000Y-60888000D02*
X138306000Y-60888000D01*
X135046000Y-60848000D02*
X138258000Y-60848000D01*
X135096000Y-60808000D02*
X138208000Y-60808000D01*
X135148000Y-60768000D02*
X138156000Y-60768000D01*
X135204000Y-60728000D02*
X138100000Y-60728000D01*
X135262000Y-60688000D02*
X138042000Y-60688000D01*
X135325000Y-60648000D02*
X137979000Y-60648000D01*
X135391000Y-60608000D02*
X137913000Y-60608000D01*
X135463000Y-60568000D02*
X137841000Y-60568000D01*
X135540000Y-60528000D02*
X137764000Y-60528000D01*
X135624000Y-60488000D02*
X137680000Y-60488000D01*
X135718000Y-60448000D02*
X137586000Y-60448000D01*
X135823000Y-60408000D02*
X137481000Y-60408000D01*
X135945000Y-60368000D02*
X137359000Y-60368000D01*
X136093000Y-60328000D02*
X137211000Y-60328000D01*
X136298000Y-60288000D02*
X137006000Y-60288000D01*
X136652000Y-66049000D02*
X136652000Y-64849000D01*
X136002000Y-65449000D02*
X137302000Y-65449000D01*
X137768223Y-59503222D02*
G75*
G03X137768500Y-54891920I-1179723J2305722D01*
G01*
X135408777Y-59503222D02*
G75*
G02X135408500Y-54891920I1179723J2305722D01*
G01*
X135408777Y-59503222D02*
G75*
G03X137768500Y-59503080I1179723J2305722D01*
G01*
X139138500Y-57197500D02*
X134038500Y-57197500D01*
X139138500Y-57237500D02*
X137568500Y-57237500D01*
X135608500Y-57237500D02*
X134038500Y-57237500D01*
X139137500Y-57277500D02*
X137568500Y-57277500D01*
X135608500Y-57277500D02*
X134039500Y-57277500D01*
X139136500Y-57317500D02*
X137568500Y-57317500D01*
X135608500Y-57317500D02*
X134040500Y-57317500D01*
X139134500Y-57357500D02*
X137568500Y-57357500D01*
X135608500Y-57357500D02*
X134042500Y-57357500D01*
X139131500Y-57397500D02*
X137568500Y-57397500D01*
X135608500Y-57397500D02*
X134045500Y-57397500D01*
X139127500Y-57437500D02*
X137568500Y-57437500D01*
X135608500Y-57437500D02*
X134049500Y-57437500D01*
X139123500Y-57477500D02*
X137568500Y-57477500D01*
X135608500Y-57477500D02*
X134053500Y-57477500D01*
X139119500Y-57517500D02*
X137568500Y-57517500D01*
X135608500Y-57517500D02*
X134057500Y-57517500D01*
X139113500Y-57557500D02*
X137568500Y-57557500D01*
X135608500Y-57557500D02*
X134063500Y-57557500D01*
X139107500Y-57597500D02*
X137568500Y-57597500D01*
X135608500Y-57597500D02*
X134069500Y-57597500D01*
X139101500Y-57637500D02*
X137568500Y-57637500D01*
X135608500Y-57637500D02*
X134075500Y-57637500D01*
X139094500Y-57677500D02*
X137568500Y-57677500D01*
X135608500Y-57677500D02*
X134082500Y-57677500D01*
X139086500Y-57717500D02*
X137568500Y-57717500D01*
X135608500Y-57717500D02*
X134090500Y-57717500D01*
X139077500Y-57757500D02*
X137568500Y-57757500D01*
X135608500Y-57757500D02*
X134099500Y-57757500D01*
X139068500Y-57797500D02*
X137568500Y-57797500D01*
X135608500Y-57797500D02*
X134108500Y-57797500D01*
X139058500Y-57837500D02*
X137568500Y-57837500D01*
X135608500Y-57837500D02*
X134118500Y-57837500D01*
X139048500Y-57877500D02*
X137568500Y-57877500D01*
X135608500Y-57877500D02*
X134128500Y-57877500D01*
X139036500Y-57918500D02*
X137568500Y-57918500D01*
X135608500Y-57918500D02*
X134140500Y-57918500D01*
X139024500Y-57958500D02*
X137568500Y-57958500D01*
X135608500Y-57958500D02*
X134152500Y-57958500D01*
X139012500Y-57998500D02*
X137568500Y-57998500D01*
X135608500Y-57998500D02*
X134164500Y-57998500D01*
X138998500Y-58038500D02*
X137568500Y-58038500D01*
X135608500Y-58038500D02*
X134178500Y-58038500D01*
X138984500Y-58078500D02*
X137568500Y-58078500D01*
X135608500Y-58078500D02*
X134192500Y-58078500D01*
X138970500Y-58118500D02*
X137568500Y-58118500D01*
X135608500Y-58118500D02*
X134206500Y-58118500D01*
X138954500Y-58158500D02*
X137568500Y-58158500D01*
X135608500Y-58158500D02*
X134222500Y-58158500D01*
X138938500Y-58198500D02*
X137568500Y-58198500D01*
X135608500Y-58198500D02*
X134238500Y-58198500D01*
X138921500Y-58238500D02*
X137568500Y-58238500D01*
X135608500Y-58238500D02*
X134255500Y-58238500D01*
X138903500Y-58278500D02*
X137568500Y-58278500D01*
X135608500Y-58278500D02*
X134273500Y-58278500D01*
X138884500Y-58318500D02*
X137568500Y-58318500D01*
X135608500Y-58318500D02*
X134292500Y-58318500D01*
X138864500Y-58358500D02*
X137568500Y-58358500D01*
X135608500Y-58358500D02*
X134312500Y-58358500D01*
X138844500Y-58398500D02*
X137568500Y-58398500D01*
X135608500Y-58398500D02*
X134332500Y-58398500D01*
X138822500Y-58438500D02*
X137568500Y-58438500D01*
X135608500Y-58438500D02*
X134354500Y-58438500D01*
X138800500Y-58478500D02*
X137568500Y-58478500D01*
X135608500Y-58478500D02*
X134376500Y-58478500D01*
X138777500Y-58518500D02*
X137568500Y-58518500D01*
X135608500Y-58518500D02*
X134399500Y-58518500D01*
X138753500Y-58558500D02*
X137568500Y-58558500D01*
X135608500Y-58558500D02*
X134423500Y-58558500D01*
X138728500Y-58598500D02*
X137568500Y-58598500D01*
X135608500Y-58598500D02*
X134448500Y-58598500D01*
X138701500Y-58638500D02*
X137568500Y-58638500D01*
X135608500Y-58638500D02*
X134475500Y-58638500D01*
X138674500Y-58678500D02*
X137568500Y-58678500D01*
X135608500Y-58678500D02*
X134502500Y-58678500D01*
X138646500Y-58718500D02*
X137568500Y-58718500D01*
X135608500Y-58718500D02*
X134530500Y-58718500D01*
X138616500Y-58758500D02*
X137568500Y-58758500D01*
X135608500Y-58758500D02*
X134560500Y-58758500D01*
X138585500Y-58798500D02*
X137568500Y-58798500D01*
X135608500Y-58798500D02*
X134591500Y-58798500D01*
X138553500Y-58838500D02*
X137568500Y-58838500D01*
X135608500Y-58838500D02*
X134623500Y-58838500D01*
X138520500Y-58878500D02*
X137568500Y-58878500D01*
X135608500Y-58878500D02*
X134656500Y-58878500D01*
X138485500Y-58918500D02*
X137568500Y-58918500D01*
X135608500Y-58918500D02*
X134691500Y-58918500D01*
X138449500Y-58958500D02*
X137568500Y-58958500D01*
X135608500Y-58958500D02*
X134727500Y-58958500D01*
X138411500Y-58998500D02*
X137568500Y-58998500D01*
X135608500Y-58998500D02*
X134765500Y-58998500D01*
X138371500Y-59038500D02*
X137568500Y-59038500D01*
X135608500Y-59038500D02*
X134805500Y-59038500D01*
X138330500Y-59078500D02*
X137568500Y-59078500D01*
X135608500Y-59078500D02*
X134846500Y-59078500D01*
X138287500Y-59118500D02*
X137568500Y-59118500D01*
X135608500Y-59118500D02*
X134889500Y-59118500D01*
X138242500Y-59158500D02*
X137568500Y-59158500D01*
X135608500Y-59158500D02*
X134934500Y-59158500D01*
X138194500Y-59198500D02*
X134982500Y-59198500D01*
X138144500Y-59238500D02*
X135032500Y-59238500D01*
X138092500Y-59278500D02*
X135084500Y-59278500D01*
X138036500Y-59318500D02*
X135140500Y-59318500D01*
X137978500Y-59358500D02*
X135198500Y-59358500D01*
X137915500Y-59398500D02*
X135261500Y-59398500D01*
X137849500Y-59438500D02*
X135327500Y-59438500D01*
X137777500Y-59478500D02*
X135399500Y-59478500D01*
X137700500Y-59518500D02*
X135476500Y-59518500D01*
X137616500Y-59558500D02*
X135560500Y-59558500D01*
X137522500Y-59598500D02*
X135654500Y-59598500D01*
X137417500Y-59638500D02*
X135759500Y-59638500D01*
X137295500Y-59678500D02*
X135881500Y-59678500D01*
X137147500Y-59718500D02*
X136029500Y-59718500D01*
X136942500Y-59758500D02*
X136234500Y-59758500D01*
X136588500Y-53997500D02*
X136588500Y-55197500D01*
X137238500Y-54597500D02*
X135938500Y-54597500D01*
X159429500Y-70005500D02*
X158729500Y-70005500D01*
X158729500Y-68805500D02*
X159429500Y-68805500D01*
X159417500Y-68608500D02*
X158717500Y-68608500D01*
X158717500Y-67408500D02*
X159417500Y-67408500D01*
X159862000Y-72482000D02*
X159162000Y-72482000D01*
X159162000Y-71282000D02*
X159862000Y-71282000D01*
X159862000Y-74006000D02*
X159162000Y-74006000D01*
X159162000Y-72806000D02*
X159862000Y-72806000D01*
X159544500Y-66322500D02*
X158844500Y-66322500D01*
X158844500Y-65122500D02*
X159544500Y-65122500D01*
X159556500Y-64925500D02*
X158856500Y-64925500D01*
X158856500Y-63725500D02*
X159556500Y-63725500D01*
X160497000Y-34001000D02*
X159797000Y-34001000D01*
X159797000Y-32801000D02*
X160497000Y-32801000D01*
X161199723Y-60233722D02*
G75*
G03X161200000Y-55622420I-1179723J2305722D01*
G01*
X158840277Y-60233722D02*
G75*
G02X158840000Y-55622420I1179723J2305722D01*
G01*
X158840277Y-60233722D02*
G75*
G03X161200000Y-60233580I1179723J2305722D01*
G01*
X162570000Y-57928000D02*
X157470000Y-57928000D01*
X162570000Y-57968000D02*
X161000000Y-57968000D01*
X159040000Y-57968000D02*
X157470000Y-57968000D01*
X162569000Y-58008000D02*
X161000000Y-58008000D01*
X159040000Y-58008000D02*
X157471000Y-58008000D01*
X162568000Y-58048000D02*
X161000000Y-58048000D01*
X159040000Y-58048000D02*
X157472000Y-58048000D01*
X162566000Y-58088000D02*
X161000000Y-58088000D01*
X159040000Y-58088000D02*
X157474000Y-58088000D01*
X162563000Y-58128000D02*
X161000000Y-58128000D01*
X159040000Y-58128000D02*
X157477000Y-58128000D01*
X162559000Y-58168000D02*
X161000000Y-58168000D01*
X159040000Y-58168000D02*
X157481000Y-58168000D01*
X162555000Y-58208000D02*
X161000000Y-58208000D01*
X159040000Y-58208000D02*
X157485000Y-58208000D01*
X162551000Y-58248000D02*
X161000000Y-58248000D01*
X159040000Y-58248000D02*
X157489000Y-58248000D01*
X162545000Y-58288000D02*
X161000000Y-58288000D01*
X159040000Y-58288000D02*
X157495000Y-58288000D01*
X162539000Y-58328000D02*
X161000000Y-58328000D01*
X159040000Y-58328000D02*
X157501000Y-58328000D01*
X162533000Y-58368000D02*
X161000000Y-58368000D01*
X159040000Y-58368000D02*
X157507000Y-58368000D01*
X162526000Y-58408000D02*
X161000000Y-58408000D01*
X159040000Y-58408000D02*
X157514000Y-58408000D01*
X162518000Y-58448000D02*
X161000000Y-58448000D01*
X159040000Y-58448000D02*
X157522000Y-58448000D01*
X162509000Y-58488000D02*
X161000000Y-58488000D01*
X159040000Y-58488000D02*
X157531000Y-58488000D01*
X162500000Y-58528000D02*
X161000000Y-58528000D01*
X159040000Y-58528000D02*
X157540000Y-58528000D01*
X162490000Y-58568000D02*
X161000000Y-58568000D01*
X159040000Y-58568000D02*
X157550000Y-58568000D01*
X162480000Y-58608000D02*
X161000000Y-58608000D01*
X159040000Y-58608000D02*
X157560000Y-58608000D01*
X162468000Y-58649000D02*
X161000000Y-58649000D01*
X159040000Y-58649000D02*
X157572000Y-58649000D01*
X162456000Y-58689000D02*
X161000000Y-58689000D01*
X159040000Y-58689000D02*
X157584000Y-58689000D01*
X162444000Y-58729000D02*
X161000000Y-58729000D01*
X159040000Y-58729000D02*
X157596000Y-58729000D01*
X162430000Y-58769000D02*
X161000000Y-58769000D01*
X159040000Y-58769000D02*
X157610000Y-58769000D01*
X162416000Y-58809000D02*
X161000000Y-58809000D01*
X159040000Y-58809000D02*
X157624000Y-58809000D01*
X162402000Y-58849000D02*
X161000000Y-58849000D01*
X159040000Y-58849000D02*
X157638000Y-58849000D01*
X162386000Y-58889000D02*
X161000000Y-58889000D01*
X159040000Y-58889000D02*
X157654000Y-58889000D01*
X162370000Y-58929000D02*
X161000000Y-58929000D01*
X159040000Y-58929000D02*
X157670000Y-58929000D01*
X162353000Y-58969000D02*
X161000000Y-58969000D01*
X159040000Y-58969000D02*
X157687000Y-58969000D01*
X162335000Y-59009000D02*
X161000000Y-59009000D01*
X159040000Y-59009000D02*
X157705000Y-59009000D01*
X162316000Y-59049000D02*
X161000000Y-59049000D01*
X159040000Y-59049000D02*
X157724000Y-59049000D01*
X162296000Y-59089000D02*
X161000000Y-59089000D01*
X159040000Y-59089000D02*
X157744000Y-59089000D01*
X162276000Y-59129000D02*
X161000000Y-59129000D01*
X159040000Y-59129000D02*
X157764000Y-59129000D01*
X162254000Y-59169000D02*
X161000000Y-59169000D01*
X159040000Y-59169000D02*
X157786000Y-59169000D01*
X162232000Y-59209000D02*
X161000000Y-59209000D01*
X159040000Y-59209000D02*
X157808000Y-59209000D01*
X162209000Y-59249000D02*
X161000000Y-59249000D01*
X159040000Y-59249000D02*
X157831000Y-59249000D01*
X162185000Y-59289000D02*
X161000000Y-59289000D01*
X159040000Y-59289000D02*
X157855000Y-59289000D01*
X162160000Y-59329000D02*
X161000000Y-59329000D01*
X159040000Y-59329000D02*
X157880000Y-59329000D01*
X162133000Y-59369000D02*
X161000000Y-59369000D01*
X159040000Y-59369000D02*
X157907000Y-59369000D01*
X162106000Y-59409000D02*
X161000000Y-59409000D01*
X159040000Y-59409000D02*
X157934000Y-59409000D01*
X162078000Y-59449000D02*
X161000000Y-59449000D01*
X159040000Y-59449000D02*
X157962000Y-59449000D01*
X162048000Y-59489000D02*
X161000000Y-59489000D01*
X159040000Y-59489000D02*
X157992000Y-59489000D01*
X162017000Y-59529000D02*
X161000000Y-59529000D01*
X159040000Y-59529000D02*
X158023000Y-59529000D01*
X161985000Y-59569000D02*
X161000000Y-59569000D01*
X159040000Y-59569000D02*
X158055000Y-59569000D01*
X161952000Y-59609000D02*
X161000000Y-59609000D01*
X159040000Y-59609000D02*
X158088000Y-59609000D01*
X161917000Y-59649000D02*
X161000000Y-59649000D01*
X159040000Y-59649000D02*
X158123000Y-59649000D01*
X161881000Y-59689000D02*
X161000000Y-59689000D01*
X159040000Y-59689000D02*
X158159000Y-59689000D01*
X161843000Y-59729000D02*
X161000000Y-59729000D01*
X159040000Y-59729000D02*
X158197000Y-59729000D01*
X161803000Y-59769000D02*
X161000000Y-59769000D01*
X159040000Y-59769000D02*
X158237000Y-59769000D01*
X161762000Y-59809000D02*
X161000000Y-59809000D01*
X159040000Y-59809000D02*
X158278000Y-59809000D01*
X161719000Y-59849000D02*
X161000000Y-59849000D01*
X159040000Y-59849000D02*
X158321000Y-59849000D01*
X161674000Y-59889000D02*
X161000000Y-59889000D01*
X159040000Y-59889000D02*
X158366000Y-59889000D01*
X161626000Y-59929000D02*
X158414000Y-59929000D01*
X161576000Y-59969000D02*
X158464000Y-59969000D01*
X161524000Y-60009000D02*
X158516000Y-60009000D01*
X161468000Y-60049000D02*
X158572000Y-60049000D01*
X161410000Y-60089000D02*
X158630000Y-60089000D01*
X161347000Y-60129000D02*
X158693000Y-60129000D01*
X161281000Y-60169000D02*
X158759000Y-60169000D01*
X161209000Y-60209000D02*
X158831000Y-60209000D01*
X161132000Y-60249000D02*
X158908000Y-60249000D01*
X161048000Y-60289000D02*
X158992000Y-60289000D01*
X160954000Y-60329000D02*
X159086000Y-60329000D01*
X160849000Y-60369000D02*
X159191000Y-60369000D01*
X160727000Y-60409000D02*
X159313000Y-60409000D01*
X160579000Y-60449000D02*
X159461000Y-60449000D01*
X160374000Y-60489000D02*
X159666000Y-60489000D01*
X160020000Y-54728000D02*
X160020000Y-55928000D01*
X160670000Y-55328000D02*
X159370000Y-55328000D01*
X132972500Y-34230000D02*
X132972500Y-39430000D01*
X138112500Y-34230000D02*
X132972500Y-34230000D01*
X140712500Y-39430000D02*
X132972500Y-39430000D01*
X138112500Y-34230000D02*
X138112500Y-36830000D01*
X138112500Y-36830000D02*
X140712500Y-36830000D01*
X140712500Y-36830000D02*
X140712500Y-39430000D01*
X139382500Y-34230000D02*
X140712500Y-34230000D01*
X140712500Y-34230000D02*
X140712500Y-35560000D01*
X155583000Y-57180000D02*
X156583000Y-57180000D01*
X156583000Y-57180000D02*
X156583000Y-55080000D01*
X155583000Y-57180000D02*
X155583000Y-55080000D01*
X155603500Y-76726500D02*
X156603500Y-76726500D01*
X156603500Y-78086500D02*
X155603500Y-78086500D01*
X161985000Y-87690000D02*
X161985000Y-82490000D01*
X139065000Y-87690000D02*
X161985000Y-87690000D01*
X136465000Y-82490000D02*
X161985000Y-82490000D01*
X139065000Y-87690000D02*
X139065000Y-85090000D01*
X139065000Y-85090000D02*
X136465000Y-85090000D01*
X136465000Y-85090000D02*
X136465000Y-82490000D01*
X137795000Y-87690000D02*
X136465000Y-87690000D01*
X136465000Y-87690000D02*
X136465000Y-86360000D01*
X159960500Y-76435500D02*
X158960500Y-76435500D01*
X158960500Y-75075500D02*
X159960500Y-75075500D01*
X140290000Y-56265000D02*
X140290000Y-55265000D01*
X141650000Y-55265000D02*
X141650000Y-56265000D01*
X131874500Y-72525500D02*
X131874500Y-74025500D01*
X131874500Y-74025500D02*
X132144500Y-74025500D01*
X132144500Y-74025500D02*
X132144500Y-76855500D01*
X138774500Y-72525500D02*
X138774500Y-74025500D01*
X138774500Y-74025500D02*
X138504500Y-74025500D01*
X138504500Y-74025500D02*
X138504500Y-75125500D01*
X133436000Y-58939000D02*
X133436000Y-57139000D01*
X130216000Y-57139000D02*
X130216000Y-59589000D01*
X150633000Y-76876000D02*
X148833000Y-76876000D01*
X148833000Y-80096000D02*
X151783000Y-80096000D01*
D14*
X155621500Y-74310500D02*
X155621500Y-73585500D01*
X141271500Y-74310500D02*
X141271500Y-73510500D01*
X141271500Y-59960500D02*
X141271500Y-60760500D01*
X155621500Y-59960500D02*
X155621500Y-60760500D01*
X155621500Y-74310500D02*
X154821500Y-74310500D01*
X155621500Y-59960500D02*
X154821500Y-59960500D01*
X141271500Y-59960500D02*
X142071500Y-59960500D01*
X141271500Y-74310500D02*
X142071500Y-74310500D01*
X155621500Y-73585500D02*
X156896500Y-73585500D01*
D13*
X157287500Y-36124000D02*
X157287500Y-35194000D01*
X157287500Y-32964000D02*
X157287500Y-33894000D01*
X157287500Y-32964000D02*
X155127500Y-32964000D01*
X157287500Y-36124000D02*
X155827500Y-36124000D01*
D14*
X155702000Y-47879000D02*
X160782000Y-47879000D01*
X160782000Y-47879000D02*
X160782000Y-52451000D01*
X160782000Y-52451000D02*
X155702000Y-52451000D01*
X155702000Y-52451000D02*
X155702000Y-47879000D01*
X155702000Y-49403000D02*
X156210000Y-49403000D01*
X156210000Y-49403000D02*
X156210000Y-50673000D01*
X156210000Y-50673000D02*
X155702000Y-50673000D01*
D13*
X125142000Y-76748000D02*
X125142000Y-66508000D01*
X129783000Y-76748000D02*
X129783000Y-66508000D01*
X125142000Y-76748000D02*
X129783000Y-76748000D01*
X125142000Y-66508000D02*
X129783000Y-66508000D01*
X126652000Y-76748000D02*
X126652000Y-66508000D01*
X125142000Y-73478000D02*
X126652000Y-73478000D01*
X125142000Y-69777000D02*
X126652000Y-69777000D01*
X131378000Y-35119000D02*
X126178000Y-35119000D01*
X131378000Y-52959000D02*
X131378000Y-35119000D01*
X126178000Y-55559000D02*
X126178000Y-35119000D01*
X131378000Y-52959000D02*
X128778000Y-52959000D01*
X128778000Y-52959000D02*
X128778000Y-55559000D01*
X128778000Y-55559000D02*
X126178000Y-55559000D01*
X131378000Y-54229000D02*
X131378000Y-55559000D01*
X131378000Y-55559000D02*
X130048000Y-55559000D01*
X165795000Y-45279000D02*
X163135000Y-45279000D01*
X165795000Y-60579000D02*
X165795000Y-45279000D01*
X163135000Y-60579000D02*
X163135000Y-45279000D01*
X165795000Y-60579000D02*
X163135000Y-60579000D01*
X165795000Y-61849000D02*
X165795000Y-63179000D01*
X165795000Y-63179000D02*
X164465000Y-63179000D01*
X165630000Y-36844000D02*
X160930000Y-36844000D01*
X160930000Y-36844000D02*
X160930000Y-42944000D01*
X160930000Y-42944000D02*
X165630000Y-42944000D01*
X165630000Y-42944000D02*
X165630000Y-36844000D01*
X165630000Y-39394000D02*
X165030000Y-39394000D01*
X165030000Y-39394000D02*
X165030000Y-37444000D01*
X165030000Y-37444000D02*
X161530000Y-37444000D01*
X161530000Y-37444000D02*
X161530000Y-42344000D01*
X161530000Y-42344000D02*
X165030000Y-42344000D01*
X165030000Y-42344000D02*
X165030000Y-40394000D01*
X165030000Y-40394000D02*
X165630000Y-40394000D01*
X164330000Y-36844000D02*
X164330000Y-37444000D01*
X163030000Y-36844000D02*
X163030000Y-37444000D01*
X164330000Y-42944000D02*
X164330000Y-42344000D01*
X163030000Y-42944000D02*
X163030000Y-42344000D01*
X165630000Y-38594000D02*
X165830000Y-38594000D01*
X165830000Y-38594000D02*
X165830000Y-38294000D01*
X165830000Y-38294000D02*
X165630000Y-38294000D01*
X165730000Y-38594000D02*
X165730000Y-38294000D01*
X161530000Y-39794000D02*
X162030000Y-39794000D01*
X162030000Y-39794000D02*
X162030000Y-39994000D01*
X162030000Y-39994000D02*
X161530000Y-39994000D01*
X161530000Y-39894000D02*
X162030000Y-39894000D01*
X165930000Y-37794000D02*
X165930000Y-36544000D01*
X165930000Y-36544000D02*
X164680000Y-36544000D01*
X158758000Y-41470000D02*
X159758000Y-41470000D01*
X159758000Y-41470000D02*
X159758000Y-39370000D01*
X158758000Y-41470000D02*
X158758000Y-39370000D01*
X156688000Y-41918000D02*
X156688000Y-42918000D01*
X156688000Y-42918000D02*
X158788000Y-42918000D01*
X156688000Y-41918000D02*
X158788000Y-41918000D01*
D14*
X143798000Y-46033000D02*
X152798000Y-46033000D01*
X152798000Y-46033000D02*
X152798000Y-55033000D01*
X152798000Y-55033000D02*
X143798000Y-55033000D01*
X143798000Y-55033000D02*
X143798000Y-46033000D01*
X145498000Y-47333000D02*
G75*
G03X145498000Y-47333000I-400000J0D01*
G01*
M02*
