G04 #@! TF.FileFunction,Copper,L1,Top,Signal*
%FSLAX46Y46*%
G04 Gerber Fmt 4.6, Leading zero omitted, Abs format (unit mm)*
G04 Created by KiCad (PCBNEW 4.0.5) date 07/19/18 22:11:56*
%MOMM*%
%LPD*%
G01*
G04 APERTURE LIST*
%ADD10C,0.100000*%
%ADD11R,1.200000X1.700000*%
%ADD12O,1.200000X1.700000*%
%ADD13R,1.750000X0.450000*%
%ADD14R,0.250000X1.300000*%
%ADD15R,1.300000X0.250000*%
%ADD16R,1.600000X1.600000*%
%ADD17C,1.600000*%
%ADD18R,0.800000X0.750000*%
%ADD19R,1.700000X1.700000*%
%ADD20O,1.700000X1.700000*%
%ADD21R,0.800000X0.800000*%
%ADD22R,1.200000X0.900000*%
%ADD23R,0.500000X0.900000*%
%ADD24R,0.900000X0.500000*%
%ADD25C,1.500000*%
%ADD26R,1.200000X2.200000*%
%ADD27R,5.800000X6.400000*%
%ADD28R,2.750000X3.050000*%
%ADD29R,0.650000X1.060000*%
%ADD30R,1.560000X0.650000*%
%ADD31R,1.500000X0.300000*%
%ADD32R,0.300000X1.500000*%
%ADD33R,6.200000X6.200000*%
%ADD34R,0.900000X0.800000*%
%ADD35R,0.508000X1.143000*%
%ADD36R,1.800000X1.800000*%
%ADD37O,1.800000X1.800000*%
%ADD38R,1.700000X1.200000*%
%ADD39O,1.700000X1.200000*%
%ADD40C,0.350000*%
%ADD41C,0.355600*%
%ADD42C,0.600000*%
%ADD43C,0.127000*%
%ADD44C,0.250000*%
%ADD45C,0.254000*%
G04 APERTURE END LIST*
D10*
D11*
X135066000Y-28956000D03*
D12*
X137066000Y-28956000D03*
X139066000Y-28956000D03*
X141066000Y-28956000D03*
X143066000Y-28956000D03*
X145066000Y-28956000D03*
X147066000Y-28956000D03*
X149066000Y-28956000D03*
X151066000Y-28956000D03*
X153066000Y-28956000D03*
X155066000Y-28956000D03*
X157066000Y-28956000D03*
D13*
X140506000Y-53090000D03*
X140506000Y-52440000D03*
X140506000Y-51790000D03*
X140506000Y-51140000D03*
X140506000Y-50490000D03*
X140506000Y-49840000D03*
X140506000Y-49190000D03*
X140506000Y-48540000D03*
X140506000Y-47890000D03*
X140506000Y-47240000D03*
X133306000Y-47240000D03*
X133306000Y-47890000D03*
X133306000Y-48540000D03*
X133306000Y-49190000D03*
X133306000Y-49840000D03*
X133306000Y-50490000D03*
X133306000Y-51140000D03*
X133306000Y-51790000D03*
X133306000Y-52440000D03*
X133306000Y-53090000D03*
D14*
X145840000Y-42450000D03*
X146340000Y-42450000D03*
X146840000Y-42450000D03*
X147340000Y-42450000D03*
X147840000Y-42450000D03*
X148340000Y-42450000D03*
X148840000Y-42450000D03*
X149340000Y-42450000D03*
X149840000Y-42450000D03*
X150340000Y-42450000D03*
X150840000Y-42450000D03*
X151340000Y-42450000D03*
D15*
X152940000Y-40850000D03*
X152940000Y-40350000D03*
X152940000Y-39850000D03*
X152940000Y-39350000D03*
X152940000Y-38850000D03*
X152940000Y-38350000D03*
X152940000Y-37850000D03*
X152940000Y-37350000D03*
X152940000Y-36850000D03*
X152940000Y-36350000D03*
X152940000Y-35850000D03*
X152940000Y-35350000D03*
D14*
X151340000Y-33750000D03*
X150840000Y-33750000D03*
X150340000Y-33750000D03*
X149840000Y-33750000D03*
X149340000Y-33750000D03*
X148840000Y-33750000D03*
X148340000Y-33750000D03*
X147840000Y-33750000D03*
X147340000Y-33750000D03*
X146840000Y-33750000D03*
X146340000Y-33750000D03*
X145840000Y-33750000D03*
D15*
X144240000Y-35350000D03*
X144240000Y-35850000D03*
X144240000Y-36350000D03*
X144240000Y-36850000D03*
X144240000Y-37350000D03*
X144240000Y-37850000D03*
X144240000Y-38350000D03*
X144240000Y-38850000D03*
X144240000Y-39350000D03*
X144240000Y-39850000D03*
X144240000Y-40350000D03*
X144240000Y-40850000D03*
D16*
X139065000Y-42069000D03*
D17*
X139065000Y-44069000D03*
D16*
X130302000Y-81407000D03*
D17*
X128302000Y-81407000D03*
D16*
X130810000Y-63849000D03*
D17*
X130810000Y-61849000D03*
D16*
X136652000Y-63849000D03*
D17*
X136652000Y-61849000D03*
D16*
X136588500Y-56197500D03*
D17*
X136588500Y-58197500D03*
D18*
X159829500Y-69405500D03*
X158329500Y-69405500D03*
X159817500Y-68008500D03*
X158317500Y-68008500D03*
X160262000Y-71882000D03*
X158762000Y-71882000D03*
X160262000Y-73406000D03*
X158762000Y-73406000D03*
X159944500Y-65722500D03*
X158444500Y-65722500D03*
X159956500Y-64325500D03*
X158456500Y-64325500D03*
X160897000Y-33401000D03*
X159397000Y-33401000D03*
D16*
X160020000Y-56928000D03*
D17*
X160020000Y-58928000D03*
D19*
X139382500Y-35560000D03*
D20*
X139382500Y-38100000D03*
X136842500Y-35560000D03*
X136842500Y-38100000D03*
X134302500Y-35560000D03*
X134302500Y-38100000D03*
D21*
X156083000Y-55080000D03*
X156083000Y-56680000D03*
D22*
X157203500Y-77406500D03*
X155003500Y-77406500D03*
D19*
X137795000Y-86360000D03*
D20*
X137795000Y-83820000D03*
X140335000Y-86360000D03*
X140335000Y-83820000D03*
X142875000Y-86360000D03*
X142875000Y-83820000D03*
X145415000Y-86360000D03*
X145415000Y-83820000D03*
X147955000Y-86360000D03*
X147955000Y-83820000D03*
X150495000Y-86360000D03*
X150495000Y-83820000D03*
X153035000Y-86360000D03*
X153035000Y-83820000D03*
X155575000Y-86360000D03*
X155575000Y-83820000D03*
X158115000Y-86360000D03*
X158115000Y-83820000D03*
X160655000Y-86360000D03*
X160655000Y-83820000D03*
D23*
X158710500Y-75755500D03*
X160210500Y-75755500D03*
D24*
X140970000Y-55015000D03*
X140970000Y-56515000D03*
D25*
X160274000Y-77724000D03*
X144780000Y-77724000D03*
X141478000Y-76962000D03*
X137414000Y-78740000D03*
X139700000Y-78740000D03*
D26*
X133044500Y-75755500D03*
X137604500Y-75755500D03*
D27*
X135324500Y-69455500D03*
D28*
X136849500Y-67780500D03*
X133799500Y-71130500D03*
X133799500Y-67780500D03*
X136849500Y-71130500D03*
D29*
X130876000Y-59139000D03*
X131826000Y-59139000D03*
X132776000Y-59139000D03*
X132776000Y-56939000D03*
X130876000Y-56939000D03*
D30*
X151083000Y-79436000D03*
X151083000Y-78486000D03*
X151083000Y-77536000D03*
X148383000Y-77536000D03*
X148383000Y-79436000D03*
X148383000Y-78486000D03*
D31*
X156146500Y-73135500D03*
X156146500Y-72635500D03*
X156146500Y-72135500D03*
X156146500Y-71635500D03*
X156146500Y-71135500D03*
X156146500Y-70635500D03*
X156146500Y-70135500D03*
X156146500Y-69635500D03*
X156146500Y-69135500D03*
X156146500Y-68635500D03*
X156146500Y-68135500D03*
X156146500Y-67635500D03*
X156146500Y-67135500D03*
X156146500Y-66635500D03*
X156146500Y-66135500D03*
X156146500Y-65635500D03*
X156146500Y-65135500D03*
X156146500Y-64635500D03*
X156146500Y-64135500D03*
X156146500Y-63635500D03*
X156146500Y-63135500D03*
X156146500Y-62635500D03*
X156146500Y-62135500D03*
X156146500Y-61635500D03*
X156146500Y-61135500D03*
D32*
X154446500Y-59435500D03*
X153946500Y-59435500D03*
X153446500Y-59435500D03*
X152946500Y-59435500D03*
X152446500Y-59435500D03*
X151946500Y-59435500D03*
X151446500Y-59435500D03*
X150946500Y-59435500D03*
X150446500Y-59435500D03*
X149946500Y-59435500D03*
X149446500Y-59435500D03*
X148946500Y-59435500D03*
X148446500Y-59435500D03*
X147946500Y-59435500D03*
X147446500Y-59435500D03*
X146946500Y-59435500D03*
X146446500Y-59435500D03*
X145946500Y-59435500D03*
X145446500Y-59435500D03*
X144946500Y-59435500D03*
X144446500Y-59435500D03*
X143946500Y-59435500D03*
X143446500Y-59435500D03*
X142946500Y-59435500D03*
X142446500Y-59435500D03*
D31*
X140746500Y-61135500D03*
X140746500Y-61635500D03*
X140746500Y-62135500D03*
X140746500Y-62635500D03*
X140746500Y-63135500D03*
X140746500Y-63635500D03*
X140746500Y-64135500D03*
X140746500Y-64635500D03*
X140746500Y-65135500D03*
X140746500Y-65635500D03*
X140746500Y-66135500D03*
X140746500Y-66635500D03*
X140746500Y-67135500D03*
X140746500Y-67635500D03*
X140746500Y-68135500D03*
X140746500Y-68635500D03*
X140746500Y-69135500D03*
X140746500Y-69635500D03*
X140746500Y-70135500D03*
X140746500Y-70635500D03*
X140746500Y-71135500D03*
X140746500Y-71635500D03*
X140746500Y-72135500D03*
X140746500Y-72635500D03*
X140746500Y-73135500D03*
D32*
X142446500Y-74835500D03*
X142946500Y-74835500D03*
X143446500Y-74835500D03*
X143946500Y-74835500D03*
X144446500Y-74835500D03*
X144946500Y-74835500D03*
X145446500Y-74835500D03*
X145946500Y-74835500D03*
X146446500Y-74835500D03*
X146946500Y-74835500D03*
X147446500Y-74835500D03*
X147946500Y-74835500D03*
X148446500Y-74835500D03*
X148946500Y-74835500D03*
X149446500Y-74835500D03*
X149946500Y-74835500D03*
X150446500Y-74835500D03*
X150946500Y-74835500D03*
X151446500Y-74835500D03*
X151946500Y-74835500D03*
X152446500Y-74835500D03*
X152946500Y-74835500D03*
X153446500Y-74835500D03*
X153946500Y-74835500D03*
X154446500Y-74835500D03*
D33*
X148446500Y-67135500D03*
D34*
X155527500Y-33594000D03*
X155527500Y-35494000D03*
X157527500Y-34544000D03*
D35*
X156337000Y-46990000D03*
X157607000Y-46990000D03*
X158877000Y-46990000D03*
X160147000Y-46990000D03*
X160147000Y-53340000D03*
X158877000Y-53340000D03*
X157607000Y-53340000D03*
X156337000Y-53340000D03*
D36*
X127762000Y-74168000D03*
D37*
X127762000Y-71628000D03*
X127762000Y-69088000D03*
D19*
X130048000Y-54229000D03*
D20*
X127508000Y-54229000D03*
X130048000Y-51689000D03*
X127508000Y-51689000D03*
X130048000Y-49149000D03*
X127508000Y-49149000D03*
X130048000Y-46609000D03*
X127508000Y-46609000D03*
X130048000Y-44069000D03*
X127508000Y-44069000D03*
X130048000Y-41529000D03*
X127508000Y-41529000D03*
X130048000Y-38989000D03*
X127508000Y-38989000D03*
X130048000Y-36449000D03*
X127508000Y-36449000D03*
D25*
X157099000Y-59944000D03*
X159004000Y-61722000D03*
D19*
X164465000Y-61849000D03*
D20*
X164465000Y-59309000D03*
X164465000Y-56769000D03*
X164465000Y-54229000D03*
X164465000Y-51689000D03*
X164465000Y-49149000D03*
X164465000Y-46609000D03*
D38*
X163830000Y-38894000D03*
D39*
X163830000Y-40894000D03*
D21*
X159258000Y-39370000D03*
X159258000Y-40970000D03*
X158788000Y-42418000D03*
X157188000Y-42418000D03*
D40*
X144298000Y-46533000D03*
X145098000Y-46533000D03*
X145898000Y-46533000D03*
X146698000Y-46533000D03*
X147498000Y-46533000D03*
X148298000Y-46533000D03*
X149098000Y-46533000D03*
X149898000Y-46533000D03*
X150698000Y-46533000D03*
X151498000Y-46533000D03*
X152298000Y-46533000D03*
X144298000Y-47333000D03*
X144298000Y-48133000D03*
X144298000Y-48933000D03*
X144298000Y-49733000D03*
X144298000Y-50533000D03*
X144298000Y-51333000D03*
X144298000Y-52133000D03*
X144298000Y-52933000D03*
X152298000Y-47333000D03*
X151498000Y-47333000D03*
X150698000Y-47333000D03*
X149898000Y-47333000D03*
X149098000Y-47333000D03*
X148298000Y-47333000D03*
X147498000Y-47333000D03*
X145098000Y-47333000D03*
X145898000Y-47333000D03*
X146698000Y-47333000D03*
X145098000Y-48133000D03*
X145898000Y-48133000D03*
X146698000Y-48133000D03*
X147498000Y-48133000D03*
X148298000Y-48133000D03*
X149098000Y-48133000D03*
X149898000Y-48133000D03*
X150698000Y-48133000D03*
X145098000Y-48933000D03*
X145898000Y-48933000D03*
X146698000Y-48933000D03*
X147498000Y-48933000D03*
X148298000Y-48933000D03*
X149098000Y-48933000D03*
X149898000Y-48933000D03*
X150698000Y-48933000D03*
X145098000Y-49733000D03*
X145898000Y-49733000D03*
X146698000Y-49733000D03*
X151498000Y-48133000D03*
X151498000Y-48933000D03*
X152298000Y-48133000D03*
X152298000Y-48933000D03*
X145098000Y-50533000D03*
X145898000Y-50533000D03*
X146698000Y-50533000D03*
X146698000Y-51333000D03*
X145898000Y-51333000D03*
X145098000Y-51333000D03*
X145098000Y-52133000D03*
X145898000Y-52133000D03*
X146698000Y-52133000D03*
X146698000Y-52933000D03*
X145898000Y-52933000D03*
X145098000Y-52933000D03*
X144298000Y-53733000D03*
X145098000Y-53733000D03*
X145898000Y-53733000D03*
X146698000Y-53733000D03*
X146698000Y-54533000D03*
X145898000Y-54533000D03*
X145098000Y-54533000D03*
X144298000Y-54533000D03*
X149898000Y-49733000D03*
X149098000Y-49733000D03*
X148298000Y-49733000D03*
X147498000Y-49733000D03*
X147498000Y-50533000D03*
X148298000Y-50533000D03*
X149098000Y-50533000D03*
X149898000Y-50533000D03*
X147498000Y-51333000D03*
X148298000Y-51333000D03*
X149098000Y-51333000D03*
X149898000Y-51333000D03*
X147498000Y-52133000D03*
X148298000Y-52133000D03*
X149098000Y-52133000D03*
X149898000Y-52133000D03*
X147498000Y-52933000D03*
X148298000Y-52933000D03*
X149098000Y-52933000D03*
X149898000Y-52933000D03*
X147498000Y-53733000D03*
X148298000Y-53733000D03*
X149098000Y-53733000D03*
X149898000Y-53733000D03*
X147498000Y-54533000D03*
X148298000Y-54533000D03*
X149098000Y-54533000D03*
X149898000Y-54533000D03*
X150698000Y-49733000D03*
X151498000Y-49733000D03*
X152298000Y-49733000D03*
X150698000Y-50533000D03*
X151498000Y-50533000D03*
X152298000Y-50533000D03*
X150698000Y-52933000D03*
X152298000Y-51333000D03*
X151498000Y-51333000D03*
X150698000Y-51333000D03*
X150698000Y-52133000D03*
X151498000Y-52133000D03*
X152298000Y-52133000D03*
X151498000Y-52933000D03*
X152298000Y-52933000D03*
X150698000Y-54533000D03*
X150698000Y-53733000D03*
X151498000Y-53733000D03*
X151498000Y-54533000D03*
X152298000Y-54533000D03*
X152298000Y-53733000D03*
D41*
X149513272Y-50932999D03*
X147110912Y-50903836D03*
X147891500Y-50927000D03*
X147891500Y-51689000D03*
X148717000Y-49339500D03*
X147117928Y-52495872D03*
X147096888Y-51718881D03*
X149505837Y-51725714D03*
X149479000Y-49339500D03*
D42*
X157988000Y-41148000D03*
X155956000Y-42926000D03*
X159004000Y-45466000D03*
X161036000Y-53340000D03*
X153416000Y-31496000D03*
X152146000Y-33020000D03*
X160909000Y-32385000D03*
D41*
X151892000Y-50927000D03*
X147955000Y-50165000D03*
X148698000Y-46148272D03*
X142733710Y-50687290D03*
X146298000Y-51717728D03*
X146298000Y-50117728D03*
X153035000Y-48768000D03*
X153035000Y-50165000D03*
D42*
X150495000Y-41275000D03*
X142748000Y-35179000D03*
X151862998Y-38862000D03*
X147193000Y-31496000D03*
X147193000Y-32258000D03*
X146727164Y-41232836D03*
X146050000Y-41148000D03*
X157480000Y-71882000D03*
X146812000Y-57912000D03*
X160909000Y-74803000D03*
D41*
X150195354Y-39832354D03*
X147082728Y-49332999D03*
D42*
X134747000Y-61849000D03*
X128778000Y-61468000D03*
X131826000Y-58039000D03*
X154559000Y-80391000D03*
X152486998Y-78867000D03*
X147320000Y-81788000D03*
X147320000Y-80137000D03*
X145796000Y-80137000D03*
X149860000Y-78486000D03*
X157480000Y-79375000D03*
X145923000Y-70231000D03*
X151892000Y-68707000D03*
X150749000Y-70231000D03*
X152908000Y-72136000D03*
X154813000Y-69215000D03*
X154813000Y-68199000D03*
X142113000Y-68961000D03*
X142113716Y-69591950D03*
X136398000Y-73787000D03*
X140843000Y-75438000D03*
X146304000Y-72644000D03*
X142113000Y-72136000D03*
X142113000Y-65659000D03*
X142113000Y-63119000D03*
X149987000Y-73406000D03*
X149860000Y-76073000D03*
X145542000Y-73279000D03*
X144907000Y-73279000D03*
X144272000Y-73279000D03*
X143637000Y-73279000D03*
X143002000Y-73279000D03*
X142349500Y-73279000D03*
X147574000Y-76200000D03*
X144145000Y-67564000D03*
X144907000Y-67437000D03*
X144907000Y-64008000D03*
X146558000Y-65278000D03*
X146558000Y-66548000D03*
X146558000Y-67818000D03*
X146558000Y-69088000D03*
X150368000Y-69088000D03*
X149098000Y-69088000D03*
X147828000Y-69088000D03*
X150368000Y-67818000D03*
X149098000Y-67818000D03*
X147828000Y-67818000D03*
X150368000Y-66548000D03*
X149098000Y-66548000D03*
X147828000Y-66548000D03*
X150368000Y-65278000D03*
X149098000Y-65278000D03*
X147828000Y-65278000D03*
X148082000Y-63246000D03*
X147320000Y-63246000D03*
X147574000Y-60960000D03*
X153924000Y-60833000D03*
X152527000Y-60960000D03*
X153035000Y-64770000D03*
X152781000Y-68199000D03*
X152400000Y-64516000D03*
X152146000Y-72263000D03*
X151384000Y-76200000D03*
X144526000Y-61214000D03*
X149377516Y-73403681D03*
X158496000Y-77724000D03*
X158740677Y-76971323D03*
X158496000Y-74422000D03*
X157480000Y-71120000D03*
X160020000Y-70358000D03*
X160528000Y-67056000D03*
X161036000Y-68580000D03*
X157480000Y-66548000D03*
X159766000Y-66802000D03*
X161036000Y-65024000D03*
X157734000Y-62484000D03*
X157734000Y-63246000D03*
X159766000Y-63246000D03*
X141172052Y-78434052D03*
X141732000Y-80010000D03*
X159766000Y-37846000D03*
X159766000Y-36830000D03*
D41*
X154349413Y-54888096D03*
X155067000Y-56769000D03*
D42*
X149733000Y-31115000D03*
X148116999Y-34925001D03*
X146177000Y-38735000D03*
X147701000Y-38735000D03*
X151003000Y-38735000D03*
X149479000Y-38735000D03*
X154432000Y-35306000D03*
X150241000Y-34925000D03*
X150876000Y-34925000D03*
X135890000Y-78867000D03*
X135890000Y-77978000D03*
X134620000Y-76327000D03*
D41*
X131826000Y-46990000D03*
X135001000Y-46990000D03*
D42*
X139065000Y-49691997D03*
X131572000Y-50292000D03*
X151701500Y-39751000D03*
X151828500Y-40386000D03*
X142938500Y-36830000D03*
X142938500Y-36322000D03*
X161290000Y-36576000D03*
X155448000Y-45974000D03*
D41*
X161798000Y-50800000D03*
D42*
X155194000Y-49276000D03*
D41*
X161036000Y-48768000D03*
X160909000Y-50165000D03*
X146290439Y-50940561D03*
X148699388Y-48531612D03*
D42*
X130048000Y-71628000D03*
X136187000Y-76454000D03*
X135173999Y-50535981D03*
X136271000Y-54461398D03*
X132588000Y-54483000D03*
X127254000Y-58293000D03*
D41*
X160274000Y-54356000D03*
X153670000Y-46609000D03*
X140081000Y-54229000D03*
D42*
X139065000Y-50419000D03*
D41*
X147882728Y-52533000D03*
X152781000Y-54737000D03*
X150299113Y-50118882D03*
X146282727Y-49333001D03*
D42*
X159893000Y-36068000D03*
X136144000Y-75311000D03*
X136849500Y-71130500D03*
X136849500Y-67930500D03*
X135324500Y-69455500D03*
X135324500Y-69455500D03*
X133799500Y-67930500D03*
X140280038Y-76073000D03*
X133799500Y-71130500D03*
X134112000Y-54991000D03*
X154305000Y-56896000D03*
X134620000Y-42291000D03*
D41*
X146298001Y-52548272D03*
X146299035Y-48518802D03*
X150269330Y-48545469D03*
X150313272Y-52533001D03*
D42*
X143002000Y-71501000D03*
X154876501Y-71755000D03*
X154876501Y-70993000D03*
X154559000Y-69977000D03*
X142875000Y-72517000D03*
X142367000Y-71374000D03*
X154876500Y-64198500D03*
X146685000Y-76454000D03*
X145796000Y-76581000D03*
X142113000Y-70612000D03*
X143256000Y-67564000D03*
X144145000Y-63754000D03*
X148590000Y-60706000D03*
X149860000Y-77216000D03*
X150656997Y-76200000D03*
X140081000Y-77089000D03*
X154876500Y-67246500D03*
X154876500Y-66484500D03*
X151447500Y-73596500D03*
X151638000Y-41148000D03*
X149479000Y-34925000D03*
X148844000Y-34925000D03*
X142113000Y-67945000D03*
X134874000Y-57785000D03*
X146685000Y-60706000D03*
X142049500Y-62166500D03*
X155638500Y-59880500D03*
X149352000Y-80391000D03*
X148653500Y-73469500D03*
X149098000Y-76200000D03*
X148336000Y-76200000D03*
X153479500Y-76263500D03*
X157543500Y-65087500D03*
X153660677Y-77225323D03*
X157416500Y-68643500D03*
X152273000Y-76708000D03*
X155065498Y-74231500D03*
X154368500Y-76136500D03*
X147510500Y-73469500D03*
X157988000Y-33020000D03*
X147389998Y-34925000D03*
X151638000Y-56615500D03*
D41*
X147898001Y-53348273D03*
D42*
X150993924Y-57167500D03*
D41*
X148336000Y-55118000D03*
X147897999Y-47717727D03*
X147083569Y-47733810D03*
X132524500Y-40386000D03*
X157099000Y-54737000D03*
X150313272Y-54133000D03*
X151892000Y-47752000D03*
X135064500Y-49720500D03*
X144682728Y-52533000D03*
X142494000Y-53594000D03*
X139192000Y-51181000D03*
X139193918Y-47709063D03*
X143764000Y-51741077D03*
X144705047Y-51741077D03*
X131826000Y-48641000D03*
X135716816Y-49153460D03*
X135064500Y-52451000D03*
X143637000Y-53721000D03*
X135001000Y-51371500D03*
X143637000Y-52933000D03*
X138557000Y-53802867D03*
X146812000Y-56896000D03*
X143637000Y-55483422D03*
X135382000Y-53090000D03*
X155328272Y-54148272D03*
X151897999Y-54148272D03*
X156845000Y-51943000D03*
D42*
X151765000Y-81280000D03*
D41*
X153308973Y-54524867D03*
X157607000Y-52451000D03*
X151113272Y-53332999D03*
X151098001Y-54148272D03*
X151129700Y-55054500D03*
X157734000Y-49276000D03*
X144698819Y-50118578D03*
X144697126Y-49318635D03*
X145482728Y-48533000D03*
X142786617Y-48892233D03*
D42*
X131826000Y-75311000D03*
X139477476Y-72078169D03*
X144272000Y-34798000D03*
D41*
X158877000Y-52324000D03*
X157607000Y-48387000D03*
X146282728Y-53333000D03*
X154940000Y-62674500D03*
X154876500Y-62166500D03*
X147082728Y-53332999D03*
X154813000Y-61595000D03*
X149484308Y-53334525D03*
X147961428Y-56330928D03*
X147898001Y-54148273D03*
X147090705Y-55093295D03*
X147090705Y-54140829D03*
X146298000Y-55112000D03*
X146298000Y-54148272D03*
X145497199Y-55136699D03*
X145497199Y-54147440D03*
X144716500Y-55054500D03*
X145484046Y-53334272D03*
X145478500Y-45974000D03*
X145498001Y-46917728D03*
X146304000Y-45974000D03*
X146304000Y-46926500D03*
X147082727Y-45990427D03*
X147082727Y-46932999D03*
X150427117Y-43667126D03*
X149513272Y-47733000D03*
X150933072Y-43681572D03*
X150299280Y-47746946D03*
X150304500Y-45910500D03*
X150304500Y-46926500D03*
X151066500Y-45910500D03*
X151113273Y-46932999D03*
X152971500Y-45275500D03*
X151066500Y-47752000D03*
X145041572Y-44711572D03*
X146282728Y-47733001D03*
X144660572Y-45092572D03*
X145490181Y-47740304D03*
X143732200Y-48533000D03*
X144682728Y-48533000D03*
X143700500Y-47688500D03*
X144690162Y-47725715D03*
X144319321Y-45433823D03*
X144698000Y-46917728D03*
X139065000Y-47244000D03*
X145288000Y-36703000D03*
D42*
X160274000Y-39370000D03*
X159766000Y-42926000D03*
D41*
X150313272Y-53333000D03*
D43*
X149098000Y-50533000D02*
X149113273Y-50533000D01*
X149113273Y-50533000D02*
X149513272Y-50932999D01*
X147498000Y-50533000D02*
X147481748Y-50533000D01*
X147481748Y-50533000D02*
X147110912Y-50903836D01*
X148298000Y-50533000D02*
X148285500Y-50533000D01*
X148285500Y-50533000D02*
X147891500Y-50927000D01*
X148298000Y-51333000D02*
X148247500Y-51333000D01*
X148247500Y-51333000D02*
X147891500Y-51689000D01*
X148298000Y-49733000D02*
X148323500Y-49733000D01*
X148323500Y-49733000D02*
X148717000Y-49339500D01*
X147498000Y-52133000D02*
X147480800Y-52133000D01*
X147480800Y-52133000D02*
X147117928Y-52495872D01*
X147498000Y-51333000D02*
X147482769Y-51333000D01*
X147482769Y-51333000D02*
X147096888Y-51718881D01*
X149098000Y-51333000D02*
X149113123Y-51333000D01*
X149113123Y-51333000D02*
X149505837Y-51725714D01*
X149098000Y-49733000D02*
X149098000Y-49720500D01*
X149098000Y-49720500D02*
X149479000Y-49339500D01*
D44*
X159258000Y-40970000D02*
X158166000Y-40970000D01*
X158166000Y-40970000D02*
X157988000Y-41148000D01*
X157188000Y-42418000D02*
X156464000Y-42418000D01*
X156464000Y-42418000D02*
X155956000Y-42926000D01*
X160147000Y-53340000D02*
X161036000Y-53340000D01*
X151340000Y-33750000D02*
X151416000Y-33750000D01*
X151416000Y-33750000D02*
X152146000Y-33020000D01*
X160897000Y-33401000D02*
X160897000Y-32397000D01*
X160897000Y-32397000D02*
X160909000Y-32385000D01*
X147340000Y-33750000D02*
X147340000Y-32405000D01*
X147340000Y-32405000D02*
X147193000Y-32258000D01*
X146340000Y-42450000D02*
X146340000Y-41620000D01*
X146340000Y-41620000D02*
X146727164Y-41232836D01*
X145840000Y-42450000D02*
X145840000Y-41358000D01*
X145840000Y-41358000D02*
X146050000Y-41148000D01*
X156146500Y-72135500D02*
X157226500Y-72135500D01*
X157226500Y-72135500D02*
X157480000Y-71882000D01*
X146446500Y-59435500D02*
X146446500Y-58277500D01*
X146446500Y-58277500D02*
X146812000Y-57912000D01*
X160210500Y-75755500D02*
X160210500Y-75501500D01*
X160210500Y-75501500D02*
X160909000Y-74803000D01*
D43*
X147482729Y-49733000D02*
X147082728Y-49332999D01*
D44*
X131826000Y-59139000D02*
X131826000Y-58039000D01*
X151083000Y-78486000D02*
X149860000Y-78486000D01*
X156146500Y-69635500D02*
X155233500Y-69635500D01*
X155233500Y-69635500D02*
X154813000Y-69215000D01*
X156146500Y-67635500D02*
X155376500Y-67635500D01*
X155376500Y-67635500D02*
X154813000Y-68199000D01*
X140746500Y-69135500D02*
X141938500Y-69135500D01*
X141938500Y-69135500D02*
X142113000Y-68961000D01*
X140746500Y-69635500D02*
X142070166Y-69635500D01*
X142070166Y-69635500D02*
X142113716Y-69591950D01*
X140746500Y-71635500D02*
X141612500Y-71635500D01*
X141612500Y-71635500D02*
X142113000Y-72136000D01*
X140746500Y-65635500D02*
X142089500Y-65635500D01*
X142089500Y-65635500D02*
X142113000Y-65659000D01*
X140746500Y-62635500D02*
X141629500Y-62635500D01*
X141629500Y-62635500D02*
X142113000Y-63119000D01*
X150446500Y-74835500D02*
X150446500Y-73865500D01*
X150446500Y-73865500D02*
X149987000Y-73406000D01*
X149946500Y-74835500D02*
X149946500Y-75986500D01*
X149946500Y-75986500D02*
X149860000Y-76073000D01*
X145946500Y-74835500D02*
X145946500Y-73683500D01*
X145946500Y-73683500D02*
X145542000Y-73279000D01*
X145446500Y-74835500D02*
X145446500Y-73818500D01*
X145446500Y-73818500D02*
X144907000Y-73279000D01*
X144446500Y-74835500D02*
X144446500Y-73453500D01*
X144446500Y-73453500D02*
X144272000Y-73279000D01*
X143946500Y-74835500D02*
X143946500Y-73588500D01*
X143946500Y-73588500D02*
X143637000Y-73279000D01*
X142946500Y-74835500D02*
X142946500Y-73334500D01*
X142946500Y-73334500D02*
X143002000Y-73279000D01*
X142446500Y-74835500D02*
X142446500Y-73376000D01*
X142446500Y-73376000D02*
X142349500Y-73279000D01*
X147446500Y-74835500D02*
X147446500Y-76072500D01*
X147446500Y-76072500D02*
X147574000Y-76200000D01*
X147446500Y-59435500D02*
X147446500Y-60832500D01*
X147446500Y-60832500D02*
X147574000Y-60960000D01*
X153946500Y-59435500D02*
X153946500Y-60810500D01*
X153946500Y-60810500D02*
X153924000Y-60833000D01*
X151946500Y-74835500D02*
X151946500Y-75637500D01*
X151946500Y-75637500D02*
X151384000Y-76200000D01*
X149446500Y-74835500D02*
X149446500Y-73472665D01*
X149446500Y-73472665D02*
X149377516Y-73403681D01*
X156956500Y-71135500D02*
X156972000Y-71120000D01*
X156972000Y-71120000D02*
X157480000Y-71120000D01*
X156146500Y-71135500D02*
X156956500Y-71135500D01*
X159829500Y-69405500D02*
X159829500Y-70167500D01*
X159829500Y-70167500D02*
X160020000Y-70358000D01*
X159817500Y-68008500D02*
X159817500Y-67766500D01*
X159817500Y-67766500D02*
X160528000Y-67056000D01*
X156146500Y-66135500D02*
X157067500Y-66135500D01*
X157067500Y-66135500D02*
X157480000Y-66548000D01*
X159944500Y-65722500D02*
X159944500Y-66623500D01*
X159944500Y-66623500D02*
X159766000Y-66802000D01*
X156146500Y-63135500D02*
X157082500Y-63135500D01*
X157082500Y-63135500D02*
X157734000Y-62484000D01*
X156146500Y-63635500D02*
X157344500Y-63635500D01*
X157344500Y-63635500D02*
X157734000Y-63246000D01*
X159956500Y-64325500D02*
X159956500Y-63436500D01*
X159956500Y-63436500D02*
X159766000Y-63246000D01*
D43*
X156083000Y-56680000D02*
X155156000Y-56680000D01*
X155156000Y-56680000D02*
X155067000Y-56769000D01*
D44*
X148340000Y-33750000D02*
X148340000Y-34650000D01*
X148340000Y-34650000D02*
X148116999Y-34873001D01*
X148116999Y-34873001D02*
X148116999Y-34925001D01*
X155527500Y-35494000D02*
X154620000Y-35494000D01*
X154620000Y-35494000D02*
X154432000Y-35306000D01*
X150340000Y-33750000D02*
X150340000Y-34826000D01*
X150340000Y-34826000D02*
X150241000Y-34925000D01*
X150840000Y-33750000D02*
X150840000Y-34889000D01*
X150840000Y-34889000D02*
X150876000Y-34925000D01*
X140506000Y-49840000D02*
X139213003Y-49840000D01*
X139213003Y-49840000D02*
X139065000Y-49691997D01*
X133306000Y-50490000D02*
X131770000Y-50490000D01*
X131770000Y-50490000D02*
X131572000Y-50292000D01*
X152940000Y-39850000D02*
X151800500Y-39850000D01*
X151800500Y-39850000D02*
X151701500Y-39751000D01*
X152940000Y-40350000D02*
X151864500Y-40350000D01*
X151864500Y-40350000D02*
X151828500Y-40386000D01*
X144240000Y-36850000D02*
X142958500Y-36850000D01*
X142958500Y-36850000D02*
X142938500Y-36830000D01*
X144240000Y-36350000D02*
X142966500Y-36350000D01*
X142966500Y-36350000D02*
X142938500Y-36322000D01*
D43*
X147498000Y-49733000D02*
X147482729Y-49733000D01*
D44*
X156337000Y-46990000D02*
X156337000Y-46863000D01*
X156337000Y-46863000D02*
X155448000Y-45974000D01*
X146698000Y-51333000D02*
X146682878Y-51333000D01*
X146682878Y-51333000D02*
X146290439Y-50940561D01*
X148298000Y-48933000D02*
X148699388Y-48531612D01*
X127254000Y-71628000D02*
X130048000Y-71628000D01*
X137604500Y-75755500D02*
X136885500Y-75755500D01*
X136885500Y-75755500D02*
X136187000Y-76454000D01*
X135844001Y-75011001D02*
X136144000Y-75311000D01*
X133306000Y-49840000D02*
X134478018Y-49840000D01*
X134478018Y-49840000D02*
X135173999Y-50535981D01*
D43*
X140970000Y-55015000D02*
X140770000Y-55015000D01*
X140770000Y-55015000D02*
X140081000Y-54326000D01*
X140081000Y-54326000D02*
X140081000Y-54229000D01*
D44*
X139065000Y-50419000D02*
X140435000Y-50419000D01*
X140435000Y-50419000D02*
X140506000Y-50490000D01*
D43*
X148298000Y-52133000D02*
X148282728Y-52133000D01*
X148282728Y-52133000D02*
X147882728Y-52533000D01*
D44*
X152298000Y-54533000D02*
X152577000Y-54533000D01*
X152577000Y-54533000D02*
X152781000Y-54737000D01*
D43*
X149898000Y-50533000D02*
X149898000Y-50519995D01*
X149898000Y-50519995D02*
X150299113Y-50118882D01*
X148298000Y-48933000D02*
X148298000Y-48916799D01*
X146698000Y-49733000D02*
X146682726Y-49733000D01*
X146682726Y-49733000D02*
X146282727Y-49333001D01*
X146698000Y-51333000D02*
X146698000Y-51348272D01*
D44*
X136144000Y-75311000D02*
X137160000Y-75311000D01*
X137160000Y-75311000D02*
X137604500Y-75755500D01*
X132116000Y-60579000D02*
X135386000Y-63849000D01*
X135386000Y-63849000D02*
X136652000Y-63849000D01*
X131536000Y-60579000D02*
X132116000Y-60579000D01*
X130876000Y-59919000D02*
X131536000Y-60579000D01*
X130876000Y-59139000D02*
X130876000Y-59919000D01*
X132776000Y-59919000D02*
X132776000Y-59139000D01*
X132116000Y-60579000D02*
X132776000Y-59919000D01*
X136652000Y-63849000D02*
X136652000Y-67583000D01*
X136652000Y-67583000D02*
X136849500Y-67780500D01*
X135324500Y-69455500D02*
X135324500Y-69605500D01*
X135324500Y-69605500D02*
X133799500Y-71130500D01*
X135324500Y-69455500D02*
X135324500Y-69305500D01*
X135324500Y-69305500D02*
X136849500Y-67780500D01*
X135324500Y-69605500D02*
X136849500Y-71130500D01*
D43*
X149898000Y-48916799D02*
X150269330Y-48545469D01*
X149898000Y-48933000D02*
X149898000Y-48916799D01*
D44*
X136588500Y-56197500D02*
X136588500Y-54960860D01*
X136823001Y-54196437D02*
X136535961Y-53909397D01*
X136588500Y-54960860D02*
X136823001Y-54726359D01*
X136823001Y-54726359D02*
X136823001Y-54196437D01*
X136535961Y-53909397D02*
X134480603Y-53909397D01*
X134480603Y-53909397D02*
X131451000Y-56939000D01*
X131451000Y-56939000D02*
X130876000Y-56939000D01*
X132238000Y-55372000D02*
X134112000Y-55372000D01*
X134112000Y-55372000D02*
X134713000Y-55372000D01*
D43*
X146698000Y-52148273D02*
X146298001Y-52548272D01*
X146698000Y-48933000D02*
X146698000Y-48917767D01*
X146698000Y-48917767D02*
X146299035Y-48518802D01*
X149898000Y-52133000D02*
X149913271Y-52133000D01*
X149913271Y-52133000D02*
X150313272Y-52533001D01*
X146698000Y-52133000D02*
X146698000Y-52148273D01*
D44*
X135538500Y-56197500D02*
X136588500Y-56197500D01*
X134713000Y-55372000D02*
X135538500Y-56197500D01*
X130876000Y-56939000D02*
X130876000Y-56734000D01*
X130876000Y-56734000D02*
X132238000Y-55372000D01*
X154876501Y-71755000D02*
X154996001Y-71635500D01*
X154996001Y-71635500D02*
X156146500Y-71635500D01*
X156146500Y-70635500D02*
X155234001Y-70635500D01*
X155234001Y-70635500D02*
X154876501Y-70993000D01*
X154559000Y-69977000D02*
X154717500Y-70135500D01*
X154717500Y-70135500D02*
X156146500Y-70135500D01*
X156106500Y-70675500D02*
X156146500Y-70635500D01*
X156114500Y-70167500D02*
X156146500Y-70135500D01*
X154876500Y-64198500D02*
X156083500Y-64198500D01*
X156083500Y-64198500D02*
X156146500Y-64135500D01*
X146946500Y-74835500D02*
X146946500Y-76192500D01*
X146946500Y-76192500D02*
X146685000Y-76454000D01*
X146446500Y-74835500D02*
X146446500Y-75930500D01*
X146446500Y-75930500D02*
X145796000Y-76581000D01*
X146446500Y-74835500D02*
X146946500Y-74835500D01*
X146494500Y-74787500D02*
X146446500Y-74835500D01*
X142113000Y-70612000D02*
X141636500Y-70135500D01*
X141636500Y-70135500D02*
X140746500Y-70135500D01*
X147946500Y-59435500D02*
X147946500Y-60435500D01*
X147946500Y-60435500D02*
X148217000Y-60706000D01*
X148217000Y-60706000D02*
X148590000Y-60706000D01*
X148018500Y-59507500D02*
X147946500Y-59435500D01*
X148383000Y-78486000D02*
X148991602Y-78486000D01*
X148991602Y-78486000D02*
X149860000Y-77617602D01*
X149860000Y-77617602D02*
X149860000Y-77216000D01*
X150656997Y-76200000D02*
X150656997Y-76125003D01*
X150656997Y-76125003D02*
X150946500Y-75835500D01*
X150946500Y-75835500D02*
X150946500Y-74835500D01*
X154876500Y-67246500D02*
X154987500Y-67135500D01*
X154987500Y-67135500D02*
X156146500Y-67135500D01*
X154876500Y-66484500D02*
X155027500Y-66635500D01*
X155027500Y-66635500D02*
X156146500Y-66635500D01*
X151447500Y-73596500D02*
X151447500Y-74834500D01*
X151447500Y-74834500D02*
X151446500Y-74835500D01*
X152940000Y-40850000D02*
X152642000Y-41148000D01*
X152642000Y-41148000D02*
X151638000Y-41148000D01*
X149340000Y-33750000D02*
X149340000Y-34786000D01*
X149340000Y-34786000D02*
X149479000Y-34925000D01*
X148840000Y-33750000D02*
X148840000Y-34921000D01*
X148840000Y-34921000D02*
X148844000Y-34925000D01*
X140746500Y-68635500D02*
X141600102Y-68635500D01*
X141600102Y-68635500D02*
X141813001Y-68422601D01*
X141813001Y-68422601D02*
X141813001Y-68244999D01*
X141813001Y-68244999D02*
X142113000Y-67945000D01*
X146946500Y-59435500D02*
X146946500Y-60444500D01*
X146946500Y-60444500D02*
X146685000Y-60706000D01*
X146939000Y-59780499D02*
X146946500Y-59772999D01*
X146946500Y-59772999D02*
X146946500Y-59435500D01*
X140754500Y-68643500D02*
X140746500Y-68635500D01*
X142049500Y-62166500D02*
X140777500Y-62166500D01*
X140777500Y-62166500D02*
X140746500Y-62135500D01*
X146875500Y-59506500D02*
X146946500Y-59435500D01*
X155638500Y-59880500D02*
X154891500Y-59880500D01*
X154891500Y-59880500D02*
X154446500Y-59435500D01*
X151083000Y-79436000D02*
X150307000Y-79436000D01*
X150307000Y-79436000D02*
X149352000Y-80391000D01*
X148653500Y-73469500D02*
X148946500Y-73762500D01*
X148946500Y-73762500D02*
X148946500Y-74835500D01*
X149098000Y-76200000D02*
X148946500Y-76048500D01*
X148946500Y-76048500D02*
X148946500Y-74835500D01*
X148446500Y-74835500D02*
X148446500Y-76089500D01*
X148446500Y-76089500D02*
X148336000Y-76200000D01*
X158329500Y-69405500D02*
X157679500Y-69405500D01*
X157244499Y-69233499D02*
X157146500Y-69135500D01*
X157679500Y-69405500D02*
X157507499Y-69233499D01*
X157507499Y-69233499D02*
X157244499Y-69233499D01*
X157146500Y-69135500D02*
X156146500Y-69135500D01*
X158317500Y-68008500D02*
X157667500Y-68008500D01*
X157667500Y-68008500D02*
X157638499Y-68037501D01*
X157146500Y-68135500D02*
X156146500Y-68135500D01*
X157638499Y-68037501D02*
X157244499Y-68037501D01*
X157244499Y-68037501D02*
X157146500Y-68135500D01*
X153446500Y-74835500D02*
X153446500Y-76230500D01*
X153446500Y-76230500D02*
X153479500Y-76263500D01*
D43*
X158710500Y-75755500D02*
X158710500Y-76160500D01*
X158710500Y-76160500D02*
X159524001Y-76974001D01*
X159524001Y-76974001D02*
X160274000Y-77724000D01*
D44*
X158710500Y-75755500D02*
X158710500Y-75555500D01*
X158710500Y-75555500D02*
X160262000Y-74004000D01*
X160262000Y-74004000D02*
X160262000Y-73406000D01*
X160262000Y-71882000D02*
X160262000Y-73406000D01*
X158710500Y-75755500D02*
X158710500Y-75465500D01*
X155003500Y-77406500D02*
X155153500Y-77406500D01*
X155153500Y-77406500D02*
X156804500Y-75755500D01*
X156804500Y-75755500D02*
X158210500Y-75755500D01*
X158210500Y-75755500D02*
X158710500Y-75755500D01*
X158762000Y-71882000D02*
X158737000Y-71882000D01*
X158737000Y-71882000D02*
X157983500Y-72635500D01*
X157983500Y-72635500D02*
X157146500Y-72635500D01*
X157146500Y-72635500D02*
X156146500Y-72635500D01*
X157543500Y-65087500D02*
X156194500Y-65087500D01*
X156194500Y-65087500D02*
X156146500Y-65135500D01*
X153416000Y-76980646D02*
X153660677Y-77225323D01*
X152823510Y-75958490D02*
X152823510Y-76441548D01*
X152823510Y-76441548D02*
X153362608Y-76980646D01*
X153362608Y-76980646D02*
X153416000Y-76980646D01*
X152946500Y-75835500D02*
X152823510Y-75958490D01*
X152946500Y-74835500D02*
X152946500Y-75835500D01*
X156146500Y-73135500D02*
X158491500Y-73135500D01*
X158491500Y-73135500D02*
X158762000Y-73406000D01*
X157416500Y-68643500D02*
X156154500Y-68643500D01*
X156154500Y-68643500D02*
X156146500Y-68635500D01*
X152446500Y-74835500D02*
X152446500Y-76153500D01*
X152446500Y-76153500D02*
X152273000Y-76327000D01*
X152273000Y-76327000D02*
X152273000Y-76708000D01*
X152375499Y-74906501D02*
X152446500Y-74835500D01*
X154446500Y-74835500D02*
X154461498Y-74835500D01*
X154461498Y-74835500D02*
X155065498Y-74231500D01*
X158444500Y-65722500D02*
X156233500Y-65722500D01*
X156233500Y-65722500D02*
X156146500Y-65635500D01*
X156146500Y-64635500D02*
X157146500Y-64635500D01*
X157146500Y-64635500D02*
X157456500Y-64325500D01*
X157456500Y-64325500D02*
X157806500Y-64325500D01*
X157806500Y-64325500D02*
X158456500Y-64325500D01*
X153946500Y-74835500D02*
X153946500Y-75714500D01*
X153946500Y-75714500D02*
X154368500Y-76136500D01*
X147510500Y-73469500D02*
X147946500Y-73905500D01*
X147946500Y-73905500D02*
X147946500Y-74835500D01*
X159397000Y-33401000D02*
X158369000Y-33401000D01*
X158369000Y-33401000D02*
X157988000Y-33020000D01*
X155527500Y-33594000D02*
X154827500Y-33594000D01*
X154827500Y-33594000D02*
X153769499Y-34652001D01*
X153769499Y-34652001D02*
X152409397Y-34652001D01*
X152409397Y-34652001D02*
X152009398Y-35052000D01*
X145840000Y-34650000D02*
X145840000Y-33750000D01*
X152009398Y-35052000D02*
X151565962Y-35052000D01*
X151057962Y-35560000D02*
X146750000Y-35560000D01*
X151565962Y-35052000D02*
X151057962Y-35560000D01*
X146750000Y-35560000D02*
X145840000Y-34650000D01*
X157988000Y-33020000D02*
X156101500Y-33020000D01*
X145859500Y-33769500D02*
X145840000Y-33750000D01*
X156101500Y-33020000D02*
X155527500Y-33594000D01*
X147389998Y-34925000D02*
X146786398Y-34925000D01*
X146786398Y-34925000D02*
X146340000Y-34478602D01*
X146340000Y-34478602D02*
X146340000Y-33750000D01*
X160147000Y-57531000D02*
X153398370Y-57531000D01*
X153398370Y-57531000D02*
X152482870Y-56615500D01*
X152482870Y-56615500D02*
X151638000Y-56615500D01*
D43*
X147898001Y-53348273D02*
X147898001Y-53332999D01*
X147898001Y-53332999D02*
X148298000Y-52933000D01*
D44*
X160147000Y-59531000D02*
X158524010Y-57908010D01*
X158524010Y-57908010D02*
X151734434Y-57908010D01*
X151734434Y-57908010D02*
X150993924Y-57167500D01*
X150993924Y-57289700D02*
X150993924Y-57167500D01*
D43*
X148298000Y-54533000D02*
X148298000Y-55080000D01*
X148298000Y-55080000D02*
X148336000Y-55118000D01*
X147897999Y-47717727D02*
X147897999Y-47732999D01*
X147897999Y-47732999D02*
X148298000Y-48133000D01*
X148298000Y-48133000D02*
X148282728Y-48133000D01*
X147083569Y-47733810D02*
X147098810Y-47733810D01*
X147098810Y-47733810D02*
X147498000Y-48133000D01*
X147498000Y-48133000D02*
X147482759Y-48133000D01*
X137374981Y-47420205D02*
X137374981Y-40346981D01*
X137374981Y-40346981D02*
X135636000Y-38608000D01*
X135636000Y-38608000D02*
X135636000Y-35226558D01*
X135636000Y-35226558D02*
X136343059Y-34519499D01*
X136343059Y-34519499D02*
X137364999Y-34519499D01*
X137364999Y-34519499D02*
X138405500Y-35560000D01*
X138405500Y-35560000D02*
X139382500Y-35560000D01*
X139255914Y-51790000D02*
X137757914Y-50292000D01*
X137757914Y-50292000D02*
X137757914Y-47803138D01*
X137757914Y-47803138D02*
X137374981Y-47420205D01*
X140506000Y-51790000D02*
X139255914Y-51790000D01*
X140506000Y-48540000D02*
X139218000Y-48540000D01*
X139218000Y-48540000D02*
X137883001Y-47205001D01*
X137883001Y-47205001D02*
X137883001Y-36600501D01*
X137883001Y-36600501D02*
X137692499Y-36409999D01*
X137692499Y-36409999D02*
X136842500Y-35560000D01*
X140506000Y-49190000D02*
X139504000Y-49190000D01*
X137628991Y-47314991D02*
X137628991Y-40005000D01*
X139504000Y-49190000D02*
X137628991Y-47314991D01*
X137628991Y-40005000D02*
X137545419Y-40005000D01*
X136842500Y-39302081D02*
X136842500Y-38100000D01*
X137545419Y-40005000D02*
X136842500Y-39302081D01*
X133306000Y-47240000D02*
X133306000Y-41167500D01*
X133306000Y-41167500D02*
X132524500Y-40386000D01*
X132524500Y-40386000D02*
X132524500Y-37338000D01*
X132524500Y-37338000D02*
X134302500Y-35560000D01*
X133306000Y-47240000D02*
X132656000Y-47240000D01*
X133223000Y-47157000D02*
X133306000Y-47240000D01*
X156083000Y-55080000D02*
X156756000Y-55080000D01*
X156756000Y-55080000D02*
X157099000Y-54737000D01*
X149913272Y-53733000D02*
X150313272Y-54133000D01*
X149898000Y-53733000D02*
X149913272Y-53733000D01*
X151498000Y-48133000D02*
X151511000Y-48133000D01*
X151511000Y-48133000D02*
X151892000Y-47752000D01*
X133306000Y-49190000D02*
X134534000Y-49190000D01*
X134534000Y-49190000D02*
X135064500Y-49720500D01*
X133306000Y-49190000D02*
X133328500Y-49212500D01*
X130048000Y-49149000D02*
X133265000Y-49149000D01*
X133265000Y-49149000D02*
X133306000Y-49190000D01*
X145082728Y-52133000D02*
X144682728Y-52533000D01*
X145098000Y-52133000D02*
X145082728Y-52133000D01*
X140506000Y-52440000D02*
X141508000Y-52440000D01*
X141508000Y-52440000D02*
X142494000Y-53426000D01*
X142494000Y-53426000D02*
X142494000Y-53594000D01*
X139192000Y-51181000D02*
X140465000Y-51181000D01*
X140465000Y-51181000D02*
X140506000Y-51140000D01*
X143574000Y-52133000D02*
X142581000Y-51140000D01*
X142581000Y-51140000D02*
X140506000Y-51140000D01*
X144298000Y-52133000D02*
X143574000Y-52133000D01*
X140506000Y-47890000D02*
X139374855Y-47890000D01*
X139374855Y-47890000D02*
X139193918Y-47709063D01*
X143764000Y-51741077D02*
X143394423Y-51371500D01*
X143394423Y-51371500D02*
X143394423Y-50827147D01*
X143394423Y-50827147D02*
X141571501Y-49004225D01*
X141571501Y-49004225D02*
X141571501Y-47953501D01*
X141571501Y-47953501D02*
X141508000Y-47890000D01*
X141508000Y-47890000D02*
X140506000Y-47890000D01*
X145098000Y-51333000D02*
X145098000Y-51348124D01*
X145098000Y-51348124D02*
X144705047Y-51741077D01*
X131826000Y-48641000D02*
X133205000Y-48641000D01*
X133205000Y-48641000D02*
X133306000Y-48540000D01*
X133306000Y-48540000D02*
X134582500Y-48540000D01*
X139297979Y-70563979D02*
X139869500Y-71135500D01*
X134582500Y-48540000D02*
X136017000Y-49974500D01*
X136017000Y-49974500D02*
X136017000Y-50742011D01*
X139869500Y-71135500D02*
X140746500Y-71135500D01*
X136017000Y-50742011D02*
X139297979Y-54022990D01*
X139297979Y-54022990D02*
X139297979Y-70563979D01*
X135716816Y-49153460D02*
X136370713Y-49807357D01*
X136370713Y-49807357D02*
X136370713Y-50736500D01*
X133306000Y-47890000D02*
X134453356Y-47890000D01*
X134453356Y-47890000D02*
X135539017Y-48975661D01*
X135539017Y-48975661D02*
X135716816Y-49153460D01*
X139551989Y-53917776D02*
X139551989Y-70317989D01*
X136370713Y-50736500D02*
X139551989Y-53917776D01*
X139551989Y-70317989D02*
X139869500Y-70635500D01*
X139869500Y-70635500D02*
X140746500Y-70635500D01*
X134620000Y-52451000D02*
X135064500Y-52451000D01*
X131635500Y-53618500D02*
X131635500Y-53108500D01*
X131635500Y-53108500D02*
X132304000Y-52440000D01*
X132304000Y-52440000D02*
X133306000Y-52440000D01*
X130048000Y-54229000D02*
X131025000Y-54229000D01*
X131025000Y-54229000D02*
X131635500Y-53618500D01*
X134620000Y-52451000D02*
X133317000Y-52451000D01*
X133317000Y-52451000D02*
X133306000Y-52440000D01*
X144298000Y-53733000D02*
X143649000Y-53733000D01*
X143649000Y-53733000D02*
X143637000Y-53721000D01*
X133306000Y-51140000D02*
X134782800Y-51140000D01*
X134782800Y-51140000D02*
X135064500Y-51421700D01*
X130048000Y-51689000D02*
X131250081Y-51689000D01*
X131250081Y-51689000D02*
X131799081Y-51140000D01*
X131799081Y-51140000D02*
X132304000Y-51140000D01*
X132304000Y-51140000D02*
X133306000Y-51140000D01*
X144298000Y-52933000D02*
X143637000Y-52933000D01*
X138986975Y-72009000D02*
X138986975Y-72313610D01*
X138557000Y-53802867D02*
X138811000Y-54056867D01*
X138986975Y-72009000D02*
X138986975Y-54232842D01*
X138986975Y-54232842D02*
X138811000Y-54056867D01*
X133306000Y-51790000D02*
X136544133Y-51790000D01*
X136544133Y-51790000D02*
X136842500Y-52088367D01*
X136842500Y-52088367D02*
X138557000Y-53802867D01*
X141732000Y-73914000D02*
X141237098Y-74408902D01*
X141732000Y-73914000D02*
X141732000Y-72744000D01*
X141732000Y-72744000D02*
X141623500Y-72635500D01*
X141623500Y-72635500D02*
X140746500Y-72635500D01*
X138986975Y-72313610D02*
X139308865Y-72635500D01*
X139308865Y-72635500D02*
X140746500Y-72635500D01*
X140208000Y-74676000D02*
X139446000Y-75438000D01*
X141237098Y-74408902D02*
X140716000Y-74408902D01*
X140716000Y-74408902D02*
X140448902Y-74676000D01*
X140448902Y-74676000D02*
X140208000Y-74676000D01*
X139446000Y-75438000D02*
X139446000Y-78740000D01*
X148844000Y-55962627D02*
X149352000Y-55962627D01*
X148336000Y-55962627D02*
X148844000Y-55962627D01*
X163615001Y-55919001D02*
X153416000Y-55919001D01*
X148844000Y-55962627D02*
X153372374Y-55962627D01*
X153372374Y-55962627D02*
X153416000Y-55919001D01*
X149352000Y-55962627D02*
X149687459Y-55962627D01*
X164465000Y-56769000D02*
X163615001Y-55919001D01*
X146812000Y-56896000D02*
X147193000Y-56515000D01*
X148336000Y-55962627D02*
X147745373Y-55962627D01*
X147745373Y-55962627D02*
X147193000Y-56515000D01*
X150698000Y-54952086D02*
X150698000Y-54886822D01*
X150698000Y-54886822D02*
X150698000Y-54533000D01*
X149687459Y-55962627D02*
X150698000Y-54952086D01*
X140970000Y-56515000D02*
X141170000Y-56515000D01*
X141170000Y-56515000D02*
X142201578Y-55483422D01*
X142201578Y-55483422D02*
X143637000Y-55483422D01*
X140506000Y-53090000D02*
X141156000Y-53090000D01*
X141156000Y-53090000D02*
X143549422Y-55483422D01*
X143549422Y-55483422D02*
X143637000Y-55483422D01*
X140746500Y-73135500D02*
X139449641Y-73135500D01*
X139449641Y-73135500D02*
X138732966Y-72418825D01*
X138732966Y-72418825D02*
X138732966Y-54807007D01*
X138732966Y-54807007D02*
X137015959Y-53090000D01*
X137015959Y-53090000D02*
X135382000Y-53090000D01*
X137160000Y-78740000D02*
X138395001Y-77504999D01*
X138395001Y-77504999D02*
X138395001Y-75763999D01*
X138395001Y-75763999D02*
X140746500Y-73412500D01*
X140746500Y-73412500D02*
X140746500Y-73135500D01*
X135382000Y-53090000D02*
X134308000Y-53090000D01*
X134308000Y-53090000D02*
X133306000Y-53090000D01*
X155328272Y-54148272D02*
X157480000Y-54148272D01*
X157480000Y-54148272D02*
X158449728Y-55118000D01*
X163615001Y-55078999D02*
X164465000Y-54229000D01*
X158449728Y-55118000D02*
X163576000Y-55118000D01*
X163576000Y-55118000D02*
X163615001Y-55078999D01*
X156845000Y-51943000D02*
X156845000Y-53213000D01*
X156718000Y-53340000D02*
X156337000Y-53340000D01*
X156845000Y-53213000D02*
X156718000Y-53340000D01*
X155328272Y-54148272D02*
X156136544Y-53340000D01*
X156136544Y-53340000D02*
X156337000Y-53340000D01*
X151897999Y-54148272D02*
X151897999Y-54132999D01*
X151897999Y-54132999D02*
X151498000Y-53733000D01*
D44*
X155575000Y-83820000D02*
X155575000Y-78885000D01*
X155575000Y-78885000D02*
X157053500Y-77406500D01*
X157053500Y-77406500D02*
X157203500Y-77406500D01*
X157416500Y-77619500D02*
X157203500Y-77406500D01*
X147955000Y-83820000D02*
X151130000Y-80645000D01*
X153038999Y-78461999D02*
X152113000Y-77536000D01*
X151130000Y-80645000D02*
X151525960Y-80645000D01*
X151525960Y-80645000D02*
X153038999Y-79131961D01*
X153038999Y-79131961D02*
X153038999Y-78461999D01*
X152113000Y-77536000D02*
X151083000Y-77536000D01*
X151765000Y-83058000D02*
X151765000Y-81280000D01*
X151765000Y-85090000D02*
X151765000Y-83058000D01*
X150495000Y-86360000D02*
X151765000Y-85090000D01*
D43*
X152298000Y-50533000D02*
X152908000Y-51143000D01*
X152908000Y-51143000D02*
X152908000Y-54123894D01*
X152908000Y-54123894D02*
X153308973Y-54524867D01*
X157607000Y-52451000D02*
X158369000Y-51689000D01*
X158369000Y-51689000D02*
X164465000Y-51689000D01*
X157607000Y-53340000D02*
X157607000Y-52451000D01*
X150713273Y-52933000D02*
X151113272Y-53332999D01*
X150698000Y-52933000D02*
X150713273Y-52933000D01*
X162306000Y-46990000D02*
X160147000Y-46990000D01*
X164465000Y-49149000D02*
X162306000Y-46990000D01*
X160147000Y-48095914D02*
X159982914Y-48260000D01*
X159982914Y-48260000D02*
X154025688Y-54217226D01*
X164465000Y-49149000D02*
X163615001Y-48299001D01*
X160147000Y-46990000D02*
X160147000Y-48095914D01*
X153302641Y-55435509D02*
X151259262Y-55435509D01*
X154025688Y-54217226D02*
X154025688Y-54712462D01*
X154025688Y-54712462D02*
X153302641Y-55435509D01*
X151259262Y-55435509D02*
X151129700Y-55305947D01*
X151129700Y-55305947D02*
X151129700Y-55054500D01*
X150698000Y-53748271D02*
X151098001Y-54148272D01*
X160210510Y-47476214D02*
X160210510Y-46990000D01*
X159956500Y-47371000D02*
X159956500Y-47053500D01*
X150698000Y-53733000D02*
X150698000Y-53748271D01*
X164465000Y-46609000D02*
X163615001Y-45759001D01*
X163615001Y-45759001D02*
X159790499Y-45759001D01*
X159790499Y-45759001D02*
X158877000Y-46672500D01*
X158877000Y-46672500D02*
X158877000Y-46990000D01*
X153771678Y-54607248D02*
X153771678Y-53238322D01*
X153771678Y-53238322D02*
X157556201Y-49453799D01*
X157556201Y-49453799D02*
X157734000Y-49276000D01*
X158877000Y-48133000D02*
X158877000Y-46990000D01*
X157734000Y-49276000D02*
X158877000Y-48133000D01*
X151498000Y-54886822D02*
X151498000Y-54533000D01*
X151765000Y-55153822D02*
X151498000Y-54886822D01*
X151765000Y-55168500D02*
X151765000Y-55153822D01*
X153210426Y-55168500D02*
X151765000Y-55168500D01*
X153771678Y-54607248D02*
X153210426Y-55168500D01*
X145098000Y-50533000D02*
X145098000Y-50517759D01*
X145098000Y-50517759D02*
X144698819Y-50118578D01*
X145098000Y-49733000D02*
X145098000Y-49719509D01*
X145098000Y-49719509D02*
X144697126Y-49318635D01*
X141668500Y-34062500D02*
X141668500Y-34290000D01*
X137066000Y-28956000D02*
X137066000Y-29206000D01*
X141668500Y-34290000D02*
X141668500Y-36322000D01*
X137066000Y-29206000D02*
X141668500Y-33808500D01*
X141668500Y-33808500D02*
X141668500Y-34290000D01*
X141668500Y-43116500D02*
X141668500Y-36322000D01*
X141668500Y-36322000D02*
X141668500Y-35750500D01*
X144298000Y-49733000D02*
X144285500Y-49720500D01*
X144285500Y-49720500D02*
X143006224Y-49720500D01*
X143006224Y-49720500D02*
X142239960Y-48954236D01*
X142239960Y-48954236D02*
X142239960Y-43684304D01*
X141858980Y-43303324D02*
X141855324Y-43303324D01*
X142239960Y-43684304D02*
X141858980Y-43303324D01*
X141855324Y-43303324D02*
X141668500Y-43116500D01*
X141922510Y-34290000D02*
X141922510Y-35052000D01*
X141922510Y-33957286D02*
X141922510Y-34290000D01*
X141922510Y-34290000D02*
X141922510Y-32062510D01*
X141922510Y-32062510D02*
X139066000Y-29206000D01*
X139066000Y-29206000D02*
X139066000Y-28956000D01*
X141922510Y-43011286D02*
X141922510Y-35052000D01*
X141922510Y-35052000D02*
X141922510Y-35003412D01*
X142786617Y-48892233D02*
X142786617Y-48640786D01*
X142786617Y-48640786D02*
X142493970Y-48348139D01*
X142493970Y-48348139D02*
X142493970Y-43579090D01*
X142493970Y-43579090D02*
X141964194Y-43049314D01*
X141964194Y-43049314D02*
X141960538Y-43049314D01*
X141960538Y-43049314D02*
X141922510Y-43011286D01*
X145882728Y-48933000D02*
X145482728Y-48533000D01*
X145898000Y-48933000D02*
X145882728Y-48933000D01*
X145898000Y-48933000D02*
X145897485Y-48933000D01*
D44*
X143066000Y-28956000D02*
X143066000Y-29206000D01*
X143066000Y-29206000D02*
X146840000Y-32980000D01*
X146840000Y-32980000D02*
X146840000Y-33750000D01*
X143066000Y-29210000D02*
X143066000Y-29460000D01*
X147066000Y-28956000D02*
X147066000Y-30056000D01*
X147066000Y-30056000D02*
X147840000Y-30830000D01*
X147840000Y-30830000D02*
X147840000Y-32850000D01*
X147840000Y-32850000D02*
X147840000Y-33750000D01*
X149840000Y-33750000D02*
X149840000Y-31824962D01*
X149840000Y-31824962D02*
X151066000Y-30598962D01*
X151066000Y-30598962D02*
X151066000Y-28956000D01*
X133044500Y-75755500D02*
X132270500Y-75755500D01*
X132270500Y-75755500D02*
X131826000Y-75311000D01*
X139477476Y-72078169D02*
X140689169Y-72078169D01*
X140689169Y-72078169D02*
X140746500Y-72135500D01*
X144240000Y-35350000D02*
X144240000Y-34830000D01*
X144240000Y-34830000D02*
X144272000Y-34798000D01*
D43*
X158877000Y-53340000D02*
X158877000Y-52575447D01*
X158877000Y-52575447D02*
X158877000Y-52324000D01*
X157353000Y-46672500D02*
X157353000Y-46990000D01*
X157607000Y-48387000D02*
X157607000Y-46990000D01*
D44*
X143446500Y-74835500D02*
X143446500Y-78359000D01*
X143446500Y-78359000D02*
X144523500Y-79436000D01*
X144523500Y-79436000D02*
X148383000Y-79436000D01*
D43*
X141478000Y-76962000D02*
X142538660Y-76962000D01*
X142538660Y-76962000D02*
X143446500Y-76054160D01*
X143446500Y-76054160D02*
X143446500Y-75712500D01*
X143446500Y-75712500D02*
X143446500Y-74835500D01*
D44*
X148383000Y-77536000D02*
X147353000Y-77536000D01*
X147353000Y-77536000D02*
X147033000Y-77216000D01*
X147033000Y-77216000D02*
X145614038Y-77216000D01*
X145614038Y-77216000D02*
X144946500Y-76548462D01*
X144946500Y-75350500D02*
X144946500Y-74835500D01*
X144946500Y-76548462D02*
X144946500Y-75350500D01*
D43*
X144946500Y-74835500D02*
X144946500Y-77557500D01*
X144946500Y-77557500D02*
X144780000Y-77724000D01*
X154940000Y-62674500D02*
X156107500Y-62674500D01*
X146682728Y-52933000D02*
X146282728Y-53333000D01*
X156107500Y-62674500D02*
X156146500Y-62635500D01*
X146698000Y-52933000D02*
X146682728Y-52933000D01*
D44*
X156146500Y-62135500D02*
X157265538Y-62135500D01*
X157265538Y-62135500D02*
X157679038Y-61722000D01*
X157679038Y-61722000D02*
X157943340Y-61722000D01*
X157943340Y-61722000D02*
X159004000Y-61722000D01*
D43*
X156146500Y-62135500D02*
X154907500Y-62135500D01*
X154907500Y-62135500D02*
X154876500Y-62166500D01*
X147498000Y-52933000D02*
X147482727Y-52933000D01*
X147482727Y-52933000D02*
X147082728Y-53332999D01*
D44*
X157099000Y-59944000D02*
X157848999Y-60693999D01*
X157848999Y-60693999D02*
X157848999Y-60933001D01*
X157848999Y-60933001D02*
X157146500Y-61635500D01*
X157146500Y-61635500D02*
X156146500Y-61635500D01*
D43*
X156146500Y-61635500D02*
X154853500Y-61635500D01*
X154853500Y-61635500D02*
X154813000Y-61595000D01*
X149098000Y-52948217D02*
X149484308Y-53334525D01*
X149098000Y-52933000D02*
X149098000Y-52948217D01*
X153446500Y-59435500D02*
X153446500Y-58558500D01*
X153446500Y-58558500D02*
X153181000Y-58293000D01*
X153181000Y-58293000D02*
X149110856Y-58293000D01*
X149110856Y-58293000D02*
X147961428Y-57143572D01*
X147961428Y-57143572D02*
X147961428Y-56330928D01*
X148298000Y-53733000D02*
X148298000Y-53748274D01*
X148298000Y-53748274D02*
X147898001Y-54148273D01*
X145946500Y-59435500D02*
X145946500Y-57207395D01*
X145946500Y-57207395D02*
X147527895Y-55626000D01*
X147527895Y-55626000D02*
X148358822Y-55626000D01*
X148358822Y-55626000D02*
X149098000Y-54886822D01*
X149098000Y-54886822D02*
X149098000Y-54533000D01*
X147498000Y-54533000D02*
X147498000Y-55296671D01*
X147498000Y-55296671D02*
X145446500Y-57348171D01*
X145446500Y-57348171D02*
X145446500Y-59435500D01*
X147090705Y-55093295D02*
X147090705Y-55344742D01*
X147090705Y-55344742D02*
X144946500Y-57488947D01*
X144946500Y-57488947D02*
X144946500Y-58558500D01*
X144946500Y-58558500D02*
X144946500Y-59435500D01*
X147498000Y-53733000D02*
X147498000Y-53733534D01*
X147498000Y-53733534D02*
X147090705Y-54140829D01*
X146698000Y-54533000D02*
X146698000Y-55322671D01*
X146698000Y-55322671D02*
X144446500Y-57574171D01*
X144446500Y-57574171D02*
X144446500Y-58558500D01*
X144446500Y-58558500D02*
X144446500Y-59435500D01*
X146298000Y-55112000D02*
X146298000Y-55363447D01*
X146298000Y-55363447D02*
X143946500Y-57714947D01*
X143946500Y-57714947D02*
X143946500Y-59435500D01*
X146698000Y-53733000D02*
X146698000Y-53748272D01*
X146698000Y-53748272D02*
X146298000Y-54148272D01*
X145898000Y-54533000D02*
X145898000Y-55346569D01*
X145898000Y-55346569D02*
X143446500Y-57798069D01*
X143446500Y-57798069D02*
X143446500Y-59435500D01*
X145497199Y-55136699D02*
X145497199Y-55388146D01*
X145497199Y-55388146D02*
X142946500Y-57938845D01*
X142946500Y-57938845D02*
X142946500Y-58558500D01*
X142946500Y-58558500D02*
X142946500Y-59435500D01*
X145898000Y-53733000D02*
X145898000Y-53746639D01*
X145898000Y-53746639D02*
X145497199Y-54147440D01*
X144920309Y-55492041D02*
X142446500Y-57965850D01*
X142446500Y-57965850D02*
X142446500Y-59435500D01*
X145098000Y-55308000D02*
X144920310Y-55485690D01*
X144920310Y-55485690D02*
X144920309Y-55492041D01*
X145098000Y-54533000D02*
X145098000Y-55308000D01*
X140746500Y-61135500D02*
X140746500Y-59306626D01*
X140746500Y-59306626D02*
X144666301Y-55386825D01*
X144666301Y-55386825D02*
X144666301Y-55380475D01*
X144666301Y-55380475D02*
X144716500Y-55330276D01*
X144716500Y-55330276D02*
X144716500Y-55305947D01*
X144716500Y-55305947D02*
X144716500Y-55054500D01*
X145885318Y-52933000D02*
X145484046Y-53334272D01*
X145898000Y-52933000D02*
X145885318Y-52933000D01*
X144298000Y-54533000D02*
X144298000Y-55395902D01*
X144298000Y-55395902D02*
X139805999Y-59887903D01*
X139805999Y-59887903D02*
X139805999Y-61571999D01*
X139805999Y-61571999D02*
X139869500Y-61635500D01*
X139869500Y-61635500D02*
X140746500Y-61635500D01*
X144298000Y-46533000D02*
X144298000Y-45976000D01*
X144298000Y-45976000D02*
X146840000Y-43434000D01*
X146840000Y-43434000D02*
X146840000Y-42450000D01*
X145098000Y-46533000D02*
X145098000Y-45535224D01*
X145098000Y-45535224D02*
X147340000Y-43293224D01*
X147340000Y-43293224D02*
X147340000Y-42450000D01*
X147840000Y-42450000D02*
X147840000Y-43152448D01*
X147840000Y-43152448D02*
X145478500Y-45513948D01*
X145478500Y-45513948D02*
X145478500Y-45722553D01*
X145478500Y-45722553D02*
X145478500Y-45974000D01*
X145898000Y-47333000D02*
X145898000Y-47317727D01*
X145898000Y-47317727D02*
X145498001Y-46917728D01*
X145898000Y-47333000D02*
X145882727Y-47333000D01*
X148340000Y-42450000D02*
X148340000Y-43011672D01*
X148340000Y-43011672D02*
X145898000Y-45453672D01*
X145898000Y-45453672D02*
X145898000Y-46533000D01*
X146304000Y-45974000D02*
X146304000Y-45406896D01*
X146304000Y-45406896D02*
X148147698Y-43563198D01*
X148147698Y-43563198D02*
X148503802Y-43563198D01*
X148503802Y-43563198D02*
X148840000Y-43227000D01*
X148840000Y-43227000D02*
X148840000Y-42450000D01*
X146698000Y-47320500D02*
X146304000Y-46926500D01*
X146698000Y-47333000D02*
X146682728Y-47333000D01*
X146698000Y-47333000D02*
X146698000Y-47320500D01*
X149340000Y-42450000D02*
X149340000Y-43227000D01*
X149340000Y-43227000D02*
X148749792Y-43817208D01*
X148749792Y-43817208D02*
X148312016Y-43817208D01*
X148312016Y-43817208D02*
X146698000Y-45431224D01*
X146698000Y-45431224D02*
X146698000Y-46533000D01*
X149288500Y-42501500D02*
X149340000Y-42450000D01*
X148417230Y-44071218D02*
X147256500Y-45231948D01*
X147082727Y-45990427D02*
X147082727Y-45405721D01*
X147082727Y-45405721D02*
X147256500Y-45231948D01*
X149840000Y-42450000D02*
X149840000Y-43227000D01*
X149840000Y-43227000D02*
X149619776Y-43447224D01*
X149619776Y-43447224D02*
X149479000Y-43447224D01*
X149479000Y-43447224D02*
X148855006Y-44071218D01*
X148855006Y-44071218D02*
X148417230Y-44071218D01*
X149796500Y-42493500D02*
X149840000Y-42450000D01*
X147498000Y-47333000D02*
X147482728Y-47333000D01*
X147482728Y-47333000D02*
X147082727Y-46932999D01*
X147498000Y-47333000D02*
X147498000Y-47317455D01*
X147498000Y-46533000D02*
X147498000Y-45349672D01*
X149584214Y-43701234D02*
X149865766Y-43701234D01*
X147498000Y-45349672D02*
X148522444Y-44325228D01*
X148522444Y-44325228D02*
X148960220Y-44325228D01*
X148960220Y-44325228D02*
X149584214Y-43701234D01*
X149865766Y-43701234D02*
X150340000Y-43227000D01*
X150340000Y-43227000D02*
X150340000Y-42450000D01*
X150304500Y-42485500D02*
X150340000Y-42450000D01*
X150427117Y-43667126D02*
X150604916Y-43489327D01*
X150604916Y-43489327D02*
X150604916Y-43462084D01*
X150604916Y-43462084D02*
X150840000Y-43227000D01*
X150840000Y-43227000D02*
X150840000Y-42450000D01*
X149098000Y-48133000D02*
X149113272Y-48133000D01*
X149113272Y-48133000D02*
X149513272Y-47733000D01*
X150933072Y-43681572D02*
X151340000Y-43274644D01*
X151340000Y-43274644D02*
X151340000Y-42450000D01*
X149898000Y-48133000D02*
X149913226Y-48133000D01*
X149913226Y-48133000D02*
X150299280Y-47746946D01*
X148298000Y-46533000D02*
X148298000Y-45948500D01*
X148298000Y-45948500D02*
X148907500Y-45339000D01*
X148907500Y-45339000D02*
X149546881Y-45339000D01*
X150609340Y-44526160D02*
X153860500Y-41275000D01*
X149546881Y-45339000D02*
X150359721Y-44526160D01*
X150359721Y-44526160D02*
X150609340Y-44526160D01*
X153860500Y-41275000D02*
X153860500Y-39493500D01*
X153860500Y-39493500D02*
X153717000Y-39350000D01*
X153717000Y-39350000D02*
X152940000Y-39350000D01*
X149098000Y-46533000D02*
X149098000Y-46147105D01*
X149098000Y-46147105D02*
X150464935Y-44780170D01*
X150464935Y-44780170D02*
X150714554Y-44780170D01*
X150714554Y-44780170D02*
X154114510Y-41380214D01*
X154114510Y-41380214D02*
X154114509Y-39247509D01*
X154114509Y-39247509D02*
X153717000Y-38850000D01*
X153717000Y-38850000D02*
X152940000Y-38850000D01*
X149898000Y-46533000D02*
X149898000Y-45706329D01*
X154368519Y-41485427D02*
X154368519Y-39001519D01*
X149898000Y-45706329D02*
X150570149Y-45034180D01*
X150570149Y-45034180D02*
X150819768Y-45034180D01*
X150819768Y-45034180D02*
X154368519Y-41485427D01*
X154368519Y-39001519D02*
X153717000Y-38350000D01*
X153717000Y-38350000D02*
X152940000Y-38350000D01*
X150304500Y-45910500D02*
X150304500Y-45659053D01*
X150675363Y-45288190D02*
X150924982Y-45288190D01*
X150304500Y-45659053D02*
X150675363Y-45288190D01*
X150924982Y-45288190D02*
X154622528Y-41590644D01*
X154622528Y-41590644D02*
X154622528Y-38755528D01*
X153717000Y-37850000D02*
X152940000Y-37850000D01*
X154622528Y-38755528D02*
X153717000Y-37850000D01*
X149898000Y-47333000D02*
X150304500Y-46926500D01*
X150698000Y-46037500D02*
X150698000Y-45732500D01*
X150698000Y-46533000D02*
X150698000Y-46037500D01*
X154876537Y-41695857D02*
X152249395Y-44323000D01*
X150698000Y-46037500D02*
X150698000Y-45733914D01*
X150698000Y-45733914D02*
X150889715Y-45542199D01*
X150889715Y-45542199D02*
X151030196Y-45542199D01*
X151030196Y-45542199D02*
X152249395Y-44323000D01*
X152940000Y-37350000D02*
X153717000Y-37350000D01*
X153717000Y-37350000D02*
X154876537Y-38509537D01*
X154876537Y-38509537D02*
X154876537Y-41695857D01*
X150698000Y-45732500D02*
X150685500Y-45720000D01*
X153174000Y-37350000D02*
X152940000Y-37350000D01*
X151066500Y-45910500D02*
X151244299Y-45732701D01*
X151244299Y-45732701D02*
X151244299Y-45687321D01*
X151244299Y-45687321D02*
X155130546Y-41801074D01*
X155130546Y-41801074D02*
X155130546Y-38263546D01*
X155130546Y-38263546D02*
X153717000Y-36850000D01*
X153717000Y-36850000D02*
X152940000Y-36850000D01*
X150698000Y-47333000D02*
X150713272Y-47333000D01*
X150713272Y-47333000D02*
X151113273Y-46932999D01*
X152940000Y-36350000D02*
X153717000Y-36350000D01*
X153717000Y-36350000D02*
X155384555Y-38017555D01*
X151498000Y-45792844D02*
X151498000Y-46533000D01*
X155384555Y-38017555D02*
X155384555Y-41906289D01*
X155384555Y-41906289D02*
X151498000Y-45792844D01*
X153717000Y-35850000D02*
X155003500Y-37136500D01*
X152298000Y-45352068D02*
X155638565Y-42011503D01*
X155003500Y-37136500D02*
X155050547Y-37183547D01*
X152298000Y-46533000D02*
X152298000Y-45352068D01*
X155638565Y-42011503D02*
X155638565Y-37771565D01*
X155638565Y-37771565D02*
X155003500Y-37136500D01*
X152940000Y-35850000D02*
X153717000Y-35850000D01*
X153495792Y-44513500D02*
X155892574Y-42116718D01*
X152971500Y-45275500D02*
X153495792Y-44751208D01*
X153495792Y-44751208D02*
X153495792Y-44513500D01*
X155892574Y-42116718D02*
X155892574Y-37525574D01*
X155892574Y-37525574D02*
X153717000Y-35350000D01*
X153717000Y-35350000D02*
X152940000Y-35350000D01*
X150698000Y-48133000D02*
X150698000Y-48120500D01*
X150698000Y-48120500D02*
X151066500Y-47752000D01*
X145041572Y-44711572D02*
X145041572Y-41525554D01*
X145041572Y-41525554D02*
X145395019Y-41172107D01*
X145395019Y-37887117D02*
X144857902Y-37350000D01*
X145395019Y-41172107D02*
X145395019Y-37887117D01*
X144857902Y-37350000D02*
X144240000Y-37350000D01*
X146698000Y-48133000D02*
X146682727Y-48133000D01*
X146682727Y-48133000D02*
X146282728Y-47733001D01*
X144660572Y-45092572D02*
X144660572Y-41547330D01*
X144660572Y-41547330D02*
X145141010Y-41066892D01*
X144363000Y-37973000D02*
X144240000Y-37850000D01*
X145141010Y-41066892D02*
X145141010Y-38133108D01*
X145141010Y-38133108D02*
X144980902Y-37973000D01*
X144980902Y-37973000D02*
X144363000Y-37973000D01*
X145898000Y-48133000D02*
X145882877Y-48133000D01*
X145882877Y-48133000D02*
X145490181Y-47740304D01*
X145898000Y-48133000D02*
X145898000Y-48117877D01*
X144298000Y-48933000D02*
X143458129Y-48933000D01*
X143458129Y-48933000D02*
X142747980Y-48222851D01*
X142747980Y-48222851D02*
X142747979Y-43473875D01*
X142747979Y-43473875D02*
X142176520Y-42902416D01*
X142176520Y-39560480D02*
X143387000Y-38350000D01*
X142176520Y-42902416D02*
X142176520Y-39560480D01*
X143387000Y-38350000D02*
X144240000Y-38350000D01*
X144240000Y-38850000D02*
X143463000Y-38850000D01*
X143463000Y-38850000D02*
X142811500Y-39501500D01*
X142811500Y-39501500D02*
X142807000Y-39501500D01*
X143001990Y-48054237D02*
X143480753Y-48533000D01*
X142807000Y-39501500D02*
X142430530Y-39877970D01*
X142430530Y-39877970D02*
X142430530Y-42672030D01*
X142430530Y-42672030D02*
X143001990Y-43243490D01*
X143001990Y-43243490D02*
X143001990Y-48054237D01*
X143480753Y-48533000D02*
X143732200Y-48533000D01*
X145098000Y-48933000D02*
X145082728Y-48933000D01*
X145082728Y-48933000D02*
X144682728Y-48533000D01*
X145098000Y-48933000D02*
X145080290Y-48933000D01*
X144298000Y-48133000D02*
X143599914Y-48133000D01*
X143599914Y-48133000D02*
X143256000Y-47789086D01*
X143256000Y-47789086D02*
X143256000Y-43116500D01*
X143256000Y-43116500D02*
X142684540Y-42545040D01*
X142684540Y-42545040D02*
X142684540Y-40128460D01*
X142684540Y-40128460D02*
X143463000Y-39350000D01*
X143463000Y-39350000D02*
X144240000Y-39350000D01*
X144887000Y-39350000D02*
X144240000Y-39350000D01*
X143700500Y-47688500D02*
X143573500Y-47561500D01*
X143573500Y-47561500D02*
X143573500Y-43074776D01*
X143573500Y-43074776D02*
X143002000Y-42503276D01*
X143002000Y-42503276D02*
X143002000Y-40311000D01*
X143002000Y-40311000D02*
X143463000Y-39850000D01*
X143463000Y-39850000D02*
X144240000Y-39850000D01*
X145097447Y-48133000D02*
X144690162Y-47725715D01*
X145098000Y-48133000D02*
X145097447Y-48133000D01*
X145098000Y-48133000D02*
X145098000Y-48117728D01*
X144298000Y-47333000D02*
X143857309Y-46892309D01*
X143891000Y-45910500D02*
X143891000Y-42909501D01*
X143857309Y-46892309D02*
X143857309Y-45944191D01*
X143857309Y-45944191D02*
X143891000Y-45910500D01*
X143891000Y-42909501D02*
X143399499Y-42418000D01*
X143399499Y-42418000D02*
X143399499Y-40413501D01*
X143399499Y-40413501D02*
X143463000Y-40350000D01*
X143463000Y-40350000D02*
X144240000Y-40350000D01*
X144240000Y-44005500D02*
X144240000Y-40850000D01*
X144319321Y-45386321D02*
X144240000Y-45307000D01*
X144240000Y-45307000D02*
X144240000Y-44005500D01*
X144319321Y-45433823D02*
X144319321Y-45386321D01*
X145098000Y-47333000D02*
X145098000Y-47317728D01*
X145098000Y-47317728D02*
X144698000Y-46917728D01*
X140506000Y-47240000D02*
X139069000Y-47240000D01*
X139069000Y-47240000D02*
X139065000Y-47244000D01*
X140506000Y-47240000D02*
X141508000Y-47240000D01*
X143459500Y-50533000D02*
X144298000Y-50533000D01*
X141508000Y-47240000D02*
X141825511Y-47557511D01*
X141825511Y-47557511D02*
X141825511Y-48899011D01*
X141825511Y-48899011D02*
X143459500Y-50533000D01*
X145288000Y-36703000D02*
X145288000Y-36121000D01*
X145288000Y-36121000D02*
X145017000Y-35850000D01*
X145017000Y-35850000D02*
X144240000Y-35850000D01*
D44*
X159258000Y-39370000D02*
X160274000Y-39370000D01*
X158788000Y-42418000D02*
X159258000Y-42418000D01*
X159258000Y-42418000D02*
X159766000Y-42926000D01*
D43*
X149898000Y-52933000D02*
X149913272Y-52933000D01*
X149913272Y-52933000D02*
X150313272Y-53333000D01*
D45*
G36*
X130170000Y-58916750D02*
X130265250Y-59012000D01*
X130749000Y-59012000D01*
X130749000Y-58992000D01*
X131003000Y-58992000D01*
X131003000Y-59012000D01*
X131023000Y-59012000D01*
X131023000Y-59266000D01*
X131003000Y-59266000D01*
X131003000Y-59954750D01*
X131098250Y-60050000D01*
X131276785Y-60050000D01*
X131416819Y-59991996D01*
X131484235Y-59924581D01*
X131501000Y-59927976D01*
X132151000Y-59927976D01*
X132167968Y-59924783D01*
X132235181Y-59991996D01*
X132375215Y-60050000D01*
X132553750Y-60050000D01*
X132649000Y-59954750D01*
X132649000Y-59266000D01*
X132903000Y-59266000D01*
X132903000Y-59954750D01*
X132998250Y-60050000D01*
X133176785Y-60050000D01*
X133316819Y-59991996D01*
X133423996Y-59884820D01*
X133482000Y-59744786D01*
X133482000Y-59361250D01*
X133386750Y-59266000D01*
X132903000Y-59266000D01*
X132649000Y-59266000D01*
X132629000Y-59266000D01*
X132629000Y-59012000D01*
X132649000Y-59012000D01*
X132649000Y-58992000D01*
X132903000Y-58992000D01*
X132903000Y-59012000D01*
X133386750Y-59012000D01*
X133482000Y-58916750D01*
X133482000Y-58547000D01*
X133985000Y-58547000D01*
X133985000Y-60452000D01*
X133995006Y-60501410D01*
X134023447Y-60543035D01*
X134065841Y-60570315D01*
X134112000Y-60579000D01*
X138415466Y-60579000D01*
X138415466Y-65922210D01*
X138300285Y-65874500D01*
X137071750Y-65874500D01*
X136976500Y-65969750D01*
X136976500Y-67653500D01*
X136996500Y-67653500D01*
X136996500Y-67907500D01*
X136976500Y-67907500D01*
X136976500Y-71003500D01*
X136996500Y-71003500D01*
X136996500Y-71257500D01*
X136976500Y-71257500D01*
X136976500Y-71277500D01*
X136722500Y-71277500D01*
X136722500Y-71257500D01*
X133926500Y-71257500D01*
X133926500Y-71277500D01*
X133672500Y-71277500D01*
X133672500Y-71257500D01*
X132138750Y-71257500D01*
X132043500Y-71352750D01*
X132043500Y-72731286D01*
X132093501Y-72852000D01*
X131953000Y-72852000D01*
X131953000Y-68002750D01*
X132043500Y-68002750D01*
X132043500Y-69381286D01*
X132074240Y-69455500D01*
X132043500Y-69529714D01*
X132043500Y-70908250D01*
X132138750Y-71003500D01*
X133672500Y-71003500D01*
X133672500Y-67907500D01*
X133926500Y-67907500D01*
X133926500Y-71003500D01*
X136722500Y-71003500D01*
X136722500Y-67907500D01*
X133926500Y-67907500D01*
X133672500Y-67907500D01*
X132138750Y-67907500D01*
X132043500Y-68002750D01*
X131953000Y-68002750D01*
X131953000Y-66179714D01*
X132043500Y-66179714D01*
X132043500Y-67558250D01*
X132138750Y-67653500D01*
X133672500Y-67653500D01*
X133672500Y-65969750D01*
X133926500Y-65969750D01*
X133926500Y-67653500D01*
X136722500Y-67653500D01*
X136722500Y-65969750D01*
X136627250Y-65874500D01*
X135398715Y-65874500D01*
X135324500Y-65905241D01*
X135250285Y-65874500D01*
X134021750Y-65874500D01*
X133926500Y-65969750D01*
X133672500Y-65969750D01*
X133577250Y-65874500D01*
X132348715Y-65874500D01*
X132208681Y-65932504D01*
X132101504Y-66039680D01*
X132043500Y-66179714D01*
X131953000Y-66179714D01*
X131953000Y-64071250D01*
X135471000Y-64071250D01*
X135471000Y-64724786D01*
X135529004Y-64864820D01*
X135636181Y-64971996D01*
X135776215Y-65030000D01*
X136429750Y-65030000D01*
X136525000Y-64934750D01*
X136525000Y-63976000D01*
X136779000Y-63976000D01*
X136779000Y-64934750D01*
X136874250Y-65030000D01*
X137527785Y-65030000D01*
X137667819Y-64971996D01*
X137774996Y-64864820D01*
X137833000Y-64724786D01*
X137833000Y-64071250D01*
X137737750Y-63976000D01*
X136779000Y-63976000D01*
X136525000Y-63976000D01*
X135566250Y-63976000D01*
X135471000Y-64071250D01*
X131953000Y-64071250D01*
X131953000Y-62973214D01*
X135471000Y-62973214D01*
X135471000Y-63626750D01*
X135566250Y-63722000D01*
X136525000Y-63722000D01*
X136525000Y-63702000D01*
X136779000Y-63702000D01*
X136779000Y-63722000D01*
X137737750Y-63722000D01*
X137833000Y-63626750D01*
X137833000Y-62973214D01*
X137774996Y-62833180D01*
X137667819Y-62726004D01*
X137527785Y-62668000D01*
X137323453Y-62668000D01*
X137545017Y-62446823D01*
X137705817Y-62059573D01*
X137706182Y-61640266D01*
X137546059Y-61252737D01*
X137249823Y-60955983D01*
X136862573Y-60795183D01*
X136443266Y-60794818D01*
X136055737Y-60954941D01*
X135758983Y-61251177D01*
X135598183Y-61638427D01*
X135597818Y-62057734D01*
X135757941Y-62445263D01*
X135980289Y-62668000D01*
X135776215Y-62668000D01*
X135636181Y-62726004D01*
X135529004Y-62833180D01*
X135471000Y-62973214D01*
X131953000Y-62973214D01*
X131953000Y-61958714D01*
X134192904Y-61958714D01*
X134277067Y-62162406D01*
X134432774Y-62318385D01*
X134636319Y-62402904D01*
X134856714Y-62403096D01*
X135060406Y-62318933D01*
X135216385Y-62163226D01*
X135300904Y-61959681D01*
X135301096Y-61739286D01*
X135216933Y-61535594D01*
X135061226Y-61379615D01*
X134857681Y-61295096D01*
X134637286Y-61294904D01*
X134433594Y-61379067D01*
X134277615Y-61534774D01*
X134193096Y-61738319D01*
X134192904Y-61958714D01*
X131953000Y-61958714D01*
X131953000Y-60452000D01*
X131942994Y-60402590D01*
X131914553Y-60360965D01*
X131872159Y-60333685D01*
X131826000Y-60325000D01*
X129667000Y-60325000D01*
X129667000Y-59361250D01*
X130170000Y-59361250D01*
X130170000Y-59744786D01*
X130228004Y-59884820D01*
X130335181Y-59991996D01*
X130475215Y-60050000D01*
X130653750Y-60050000D01*
X130749000Y-59954750D01*
X130749000Y-59266000D01*
X130265250Y-59266000D01*
X130170000Y-59361250D01*
X129667000Y-59361250D01*
X129667000Y-58547000D01*
X130170000Y-58547000D01*
X130170000Y-58916750D01*
X130170000Y-58916750D01*
G37*
X130170000Y-58916750D02*
X130265250Y-59012000D01*
X130749000Y-59012000D01*
X130749000Y-58992000D01*
X131003000Y-58992000D01*
X131003000Y-59012000D01*
X131023000Y-59012000D01*
X131023000Y-59266000D01*
X131003000Y-59266000D01*
X131003000Y-59954750D01*
X131098250Y-60050000D01*
X131276785Y-60050000D01*
X131416819Y-59991996D01*
X131484235Y-59924581D01*
X131501000Y-59927976D01*
X132151000Y-59927976D01*
X132167968Y-59924783D01*
X132235181Y-59991996D01*
X132375215Y-60050000D01*
X132553750Y-60050000D01*
X132649000Y-59954750D01*
X132649000Y-59266000D01*
X132903000Y-59266000D01*
X132903000Y-59954750D01*
X132998250Y-60050000D01*
X133176785Y-60050000D01*
X133316819Y-59991996D01*
X133423996Y-59884820D01*
X133482000Y-59744786D01*
X133482000Y-59361250D01*
X133386750Y-59266000D01*
X132903000Y-59266000D01*
X132649000Y-59266000D01*
X132629000Y-59266000D01*
X132629000Y-59012000D01*
X132649000Y-59012000D01*
X132649000Y-58992000D01*
X132903000Y-58992000D01*
X132903000Y-59012000D01*
X133386750Y-59012000D01*
X133482000Y-58916750D01*
X133482000Y-58547000D01*
X133985000Y-58547000D01*
X133985000Y-60452000D01*
X133995006Y-60501410D01*
X134023447Y-60543035D01*
X134065841Y-60570315D01*
X134112000Y-60579000D01*
X138415466Y-60579000D01*
X138415466Y-65922210D01*
X138300285Y-65874500D01*
X137071750Y-65874500D01*
X136976500Y-65969750D01*
X136976500Y-67653500D01*
X136996500Y-67653500D01*
X136996500Y-67907500D01*
X136976500Y-67907500D01*
X136976500Y-71003500D01*
X136996500Y-71003500D01*
X136996500Y-71257500D01*
X136976500Y-71257500D01*
X136976500Y-71277500D01*
X136722500Y-71277500D01*
X136722500Y-71257500D01*
X133926500Y-71257500D01*
X133926500Y-71277500D01*
X133672500Y-71277500D01*
X133672500Y-71257500D01*
X132138750Y-71257500D01*
X132043500Y-71352750D01*
X132043500Y-72731286D01*
X132093501Y-72852000D01*
X131953000Y-72852000D01*
X131953000Y-68002750D01*
X132043500Y-68002750D01*
X132043500Y-69381286D01*
X132074240Y-69455500D01*
X132043500Y-69529714D01*
X132043500Y-70908250D01*
X132138750Y-71003500D01*
X133672500Y-71003500D01*
X133672500Y-67907500D01*
X133926500Y-67907500D01*
X133926500Y-71003500D01*
X136722500Y-71003500D01*
X136722500Y-67907500D01*
X133926500Y-67907500D01*
X133672500Y-67907500D01*
X132138750Y-67907500D01*
X132043500Y-68002750D01*
X131953000Y-68002750D01*
X131953000Y-66179714D01*
X132043500Y-66179714D01*
X132043500Y-67558250D01*
X132138750Y-67653500D01*
X133672500Y-67653500D01*
X133672500Y-65969750D01*
X133926500Y-65969750D01*
X133926500Y-67653500D01*
X136722500Y-67653500D01*
X136722500Y-65969750D01*
X136627250Y-65874500D01*
X135398715Y-65874500D01*
X135324500Y-65905241D01*
X135250285Y-65874500D01*
X134021750Y-65874500D01*
X133926500Y-65969750D01*
X133672500Y-65969750D01*
X133577250Y-65874500D01*
X132348715Y-65874500D01*
X132208681Y-65932504D01*
X132101504Y-66039680D01*
X132043500Y-66179714D01*
X131953000Y-66179714D01*
X131953000Y-64071250D01*
X135471000Y-64071250D01*
X135471000Y-64724786D01*
X135529004Y-64864820D01*
X135636181Y-64971996D01*
X135776215Y-65030000D01*
X136429750Y-65030000D01*
X136525000Y-64934750D01*
X136525000Y-63976000D01*
X136779000Y-63976000D01*
X136779000Y-64934750D01*
X136874250Y-65030000D01*
X137527785Y-65030000D01*
X137667819Y-64971996D01*
X137774996Y-64864820D01*
X137833000Y-64724786D01*
X137833000Y-64071250D01*
X137737750Y-63976000D01*
X136779000Y-63976000D01*
X136525000Y-63976000D01*
X135566250Y-63976000D01*
X135471000Y-64071250D01*
X131953000Y-64071250D01*
X131953000Y-62973214D01*
X135471000Y-62973214D01*
X135471000Y-63626750D01*
X135566250Y-63722000D01*
X136525000Y-63722000D01*
X136525000Y-63702000D01*
X136779000Y-63702000D01*
X136779000Y-63722000D01*
X137737750Y-63722000D01*
X137833000Y-63626750D01*
X137833000Y-62973214D01*
X137774996Y-62833180D01*
X137667819Y-62726004D01*
X137527785Y-62668000D01*
X137323453Y-62668000D01*
X137545017Y-62446823D01*
X137705817Y-62059573D01*
X137706182Y-61640266D01*
X137546059Y-61252737D01*
X137249823Y-60955983D01*
X136862573Y-60795183D01*
X136443266Y-60794818D01*
X136055737Y-60954941D01*
X135758983Y-61251177D01*
X135598183Y-61638427D01*
X135597818Y-62057734D01*
X135757941Y-62445263D01*
X135980289Y-62668000D01*
X135776215Y-62668000D01*
X135636181Y-62726004D01*
X135529004Y-62833180D01*
X135471000Y-62973214D01*
X131953000Y-62973214D01*
X131953000Y-61958714D01*
X134192904Y-61958714D01*
X134277067Y-62162406D01*
X134432774Y-62318385D01*
X134636319Y-62402904D01*
X134856714Y-62403096D01*
X135060406Y-62318933D01*
X135216385Y-62163226D01*
X135300904Y-61959681D01*
X135301096Y-61739286D01*
X135216933Y-61535594D01*
X135061226Y-61379615D01*
X134857681Y-61295096D01*
X134637286Y-61294904D01*
X134433594Y-61379067D01*
X134277615Y-61534774D01*
X134193096Y-61738319D01*
X134192904Y-61958714D01*
X131953000Y-61958714D01*
X131953000Y-60452000D01*
X131942994Y-60402590D01*
X131914553Y-60360965D01*
X131872159Y-60333685D01*
X131826000Y-60325000D01*
X129667000Y-60325000D01*
X129667000Y-59361250D01*
X130170000Y-59361250D01*
X130170000Y-59744786D01*
X130228004Y-59884820D01*
X130335181Y-59991996D01*
X130475215Y-60050000D01*
X130653750Y-60050000D01*
X130749000Y-59954750D01*
X130749000Y-59266000D01*
X130265250Y-59266000D01*
X130170000Y-59361250D01*
X129667000Y-59361250D01*
X129667000Y-58547000D01*
X130170000Y-58547000D01*
X130170000Y-58916750D01*
D10*
G36*
X138126000Y-54540159D02*
X138126000Y-57862000D01*
X137506991Y-57862000D01*
X137417244Y-57644797D01*
X137142649Y-57369722D01*
X136978351Y-57301500D01*
X137448970Y-57301500D01*
X137560702Y-57255219D01*
X137646219Y-57169702D01*
X137692500Y-57057969D01*
X137692500Y-56477500D01*
X137616500Y-56401500D01*
X136792500Y-56401500D01*
X136792500Y-56421500D01*
X136384500Y-56421500D01*
X136384500Y-56401500D01*
X135560500Y-56401500D01*
X135484500Y-56477500D01*
X135484500Y-57057969D01*
X135530781Y-57169702D01*
X135616298Y-57255219D01*
X135728030Y-57301500D01*
X136198569Y-57301500D01*
X136035797Y-57368756D01*
X135760722Y-57643351D01*
X135669931Y-57862000D01*
X135350933Y-57862000D01*
X135351083Y-57690535D01*
X135278617Y-57515154D01*
X135144552Y-57380855D01*
X134969297Y-57308083D01*
X134779535Y-57307917D01*
X134604154Y-57380383D01*
X134469855Y-57514448D01*
X134397083Y-57689703D01*
X134396932Y-57862000D01*
X132268980Y-57862000D01*
X132230617Y-57769154D01*
X132096552Y-57634855D01*
X131921297Y-57562083D01*
X131731535Y-57561917D01*
X131556154Y-57634383D01*
X131421855Y-57768448D01*
X131383009Y-57862000D01*
X129590000Y-57862000D01*
X129590000Y-57219000D01*
X130247000Y-57219000D01*
X130247000Y-57529469D01*
X130293281Y-57641202D01*
X130378798Y-57726719D01*
X130490530Y-57773000D01*
X130637500Y-57773000D01*
X130713500Y-57697000D01*
X130713500Y-57143000D01*
X131038500Y-57143000D01*
X131038500Y-57697000D01*
X131114500Y-57773000D01*
X131261470Y-57773000D01*
X131373202Y-57726719D01*
X131458719Y-57641202D01*
X131505000Y-57529469D01*
X131505000Y-57219000D01*
X131429000Y-57143000D01*
X131038500Y-57143000D01*
X130713500Y-57143000D01*
X130323000Y-57143000D01*
X130247000Y-57219000D01*
X129590000Y-57219000D01*
X129590000Y-56348531D01*
X130247000Y-56348531D01*
X130247000Y-56659000D01*
X130323000Y-56735000D01*
X130713500Y-56735000D01*
X130713500Y-56181000D01*
X131038500Y-56181000D01*
X131038500Y-56735000D01*
X131429000Y-56735000D01*
X131505000Y-56659000D01*
X131505000Y-56409000D01*
X132270533Y-56409000D01*
X132270533Y-57469000D01*
X132282875Y-57534592D01*
X132321640Y-57594834D01*
X132380788Y-57635249D01*
X132451000Y-57649467D01*
X133101000Y-57649467D01*
X133166592Y-57637125D01*
X133226834Y-57598360D01*
X133267249Y-57539212D01*
X133281467Y-57469000D01*
X133281467Y-56409000D01*
X133269125Y-56343408D01*
X133230360Y-56283166D01*
X133171212Y-56242751D01*
X133101000Y-56228533D01*
X132451000Y-56228533D01*
X132385408Y-56240875D01*
X132325166Y-56279640D01*
X132284751Y-56338788D01*
X132270533Y-56409000D01*
X131505000Y-56409000D01*
X131505000Y-56348531D01*
X131458719Y-56236798D01*
X131373202Y-56151281D01*
X131261470Y-56105000D01*
X131114500Y-56105000D01*
X131038500Y-56181000D01*
X130713500Y-56181000D01*
X130637500Y-56105000D01*
X130490530Y-56105000D01*
X130378798Y-56151281D01*
X130293281Y-56236798D01*
X130247000Y-56348531D01*
X129590000Y-56348531D01*
X129590000Y-55422000D01*
X131064000Y-55422000D01*
X131083453Y-55418061D01*
X131094000Y-55412000D01*
X131193958Y-55337031D01*
X135484500Y-55337031D01*
X135484500Y-55917500D01*
X135560500Y-55993500D01*
X136384500Y-55993500D01*
X136384500Y-55169500D01*
X136792500Y-55169500D01*
X136792500Y-55993500D01*
X137616500Y-55993500D01*
X137692500Y-55917500D01*
X137692500Y-55337031D01*
X137646219Y-55225298D01*
X137560702Y-55139781D01*
X137448970Y-55093500D01*
X136868500Y-55093500D01*
X136792500Y-55169500D01*
X136384500Y-55169500D01*
X136308500Y-55093500D01*
X135728030Y-55093500D01*
X135616298Y-55139781D01*
X135530781Y-55225298D01*
X135484500Y-55337031D01*
X131193958Y-55337031D01*
X132133580Y-54632315D01*
X132183383Y-54752846D01*
X132317448Y-54887145D01*
X132492703Y-54959917D01*
X132682465Y-54960083D01*
X132857846Y-54887617D01*
X132992145Y-54753552D01*
X133064917Y-54578297D01*
X133064936Y-54555863D01*
X135793917Y-54555863D01*
X135866383Y-54731244D01*
X136000448Y-54865543D01*
X136175703Y-54938315D01*
X136365465Y-54938481D01*
X136540846Y-54866015D01*
X136675145Y-54731950D01*
X136747917Y-54556695D01*
X136748083Y-54366933D01*
X136675617Y-54191552D01*
X136541552Y-54057253D01*
X136366297Y-53984481D01*
X136176535Y-53984315D01*
X136001154Y-54056781D01*
X135866855Y-54190846D01*
X135794083Y-54366101D01*
X135793917Y-54555863D01*
X133064936Y-54555863D01*
X133065083Y-54388535D01*
X132992617Y-54213154D01*
X132864107Y-54084420D01*
X133112667Y-53898000D01*
X137483841Y-53898000D01*
X138126000Y-54540159D01*
X138126000Y-54540159D01*
G37*
X138126000Y-54540159D02*
X138126000Y-57862000D01*
X137506991Y-57862000D01*
X137417244Y-57644797D01*
X137142649Y-57369722D01*
X136978351Y-57301500D01*
X137448970Y-57301500D01*
X137560702Y-57255219D01*
X137646219Y-57169702D01*
X137692500Y-57057969D01*
X137692500Y-56477500D01*
X137616500Y-56401500D01*
X136792500Y-56401500D01*
X136792500Y-56421500D01*
X136384500Y-56421500D01*
X136384500Y-56401500D01*
X135560500Y-56401500D01*
X135484500Y-56477500D01*
X135484500Y-57057969D01*
X135530781Y-57169702D01*
X135616298Y-57255219D01*
X135728030Y-57301500D01*
X136198569Y-57301500D01*
X136035797Y-57368756D01*
X135760722Y-57643351D01*
X135669931Y-57862000D01*
X135350933Y-57862000D01*
X135351083Y-57690535D01*
X135278617Y-57515154D01*
X135144552Y-57380855D01*
X134969297Y-57308083D01*
X134779535Y-57307917D01*
X134604154Y-57380383D01*
X134469855Y-57514448D01*
X134397083Y-57689703D01*
X134396932Y-57862000D01*
X132268980Y-57862000D01*
X132230617Y-57769154D01*
X132096552Y-57634855D01*
X131921297Y-57562083D01*
X131731535Y-57561917D01*
X131556154Y-57634383D01*
X131421855Y-57768448D01*
X131383009Y-57862000D01*
X129590000Y-57862000D01*
X129590000Y-57219000D01*
X130247000Y-57219000D01*
X130247000Y-57529469D01*
X130293281Y-57641202D01*
X130378798Y-57726719D01*
X130490530Y-57773000D01*
X130637500Y-57773000D01*
X130713500Y-57697000D01*
X130713500Y-57143000D01*
X131038500Y-57143000D01*
X131038500Y-57697000D01*
X131114500Y-57773000D01*
X131261470Y-57773000D01*
X131373202Y-57726719D01*
X131458719Y-57641202D01*
X131505000Y-57529469D01*
X131505000Y-57219000D01*
X131429000Y-57143000D01*
X131038500Y-57143000D01*
X130713500Y-57143000D01*
X130323000Y-57143000D01*
X130247000Y-57219000D01*
X129590000Y-57219000D01*
X129590000Y-56348531D01*
X130247000Y-56348531D01*
X130247000Y-56659000D01*
X130323000Y-56735000D01*
X130713500Y-56735000D01*
X130713500Y-56181000D01*
X131038500Y-56181000D01*
X131038500Y-56735000D01*
X131429000Y-56735000D01*
X131505000Y-56659000D01*
X131505000Y-56409000D01*
X132270533Y-56409000D01*
X132270533Y-57469000D01*
X132282875Y-57534592D01*
X132321640Y-57594834D01*
X132380788Y-57635249D01*
X132451000Y-57649467D01*
X133101000Y-57649467D01*
X133166592Y-57637125D01*
X133226834Y-57598360D01*
X133267249Y-57539212D01*
X133281467Y-57469000D01*
X133281467Y-56409000D01*
X133269125Y-56343408D01*
X133230360Y-56283166D01*
X133171212Y-56242751D01*
X133101000Y-56228533D01*
X132451000Y-56228533D01*
X132385408Y-56240875D01*
X132325166Y-56279640D01*
X132284751Y-56338788D01*
X132270533Y-56409000D01*
X131505000Y-56409000D01*
X131505000Y-56348531D01*
X131458719Y-56236798D01*
X131373202Y-56151281D01*
X131261470Y-56105000D01*
X131114500Y-56105000D01*
X131038500Y-56181000D01*
X130713500Y-56181000D01*
X130637500Y-56105000D01*
X130490530Y-56105000D01*
X130378798Y-56151281D01*
X130293281Y-56236798D01*
X130247000Y-56348531D01*
X129590000Y-56348531D01*
X129590000Y-55422000D01*
X131064000Y-55422000D01*
X131083453Y-55418061D01*
X131094000Y-55412000D01*
X131193958Y-55337031D01*
X135484500Y-55337031D01*
X135484500Y-55917500D01*
X135560500Y-55993500D01*
X136384500Y-55993500D01*
X136384500Y-55169500D01*
X136792500Y-55169500D01*
X136792500Y-55993500D01*
X137616500Y-55993500D01*
X137692500Y-55917500D01*
X137692500Y-55337031D01*
X137646219Y-55225298D01*
X137560702Y-55139781D01*
X137448970Y-55093500D01*
X136868500Y-55093500D01*
X136792500Y-55169500D01*
X136384500Y-55169500D01*
X136308500Y-55093500D01*
X135728030Y-55093500D01*
X135616298Y-55139781D01*
X135530781Y-55225298D01*
X135484500Y-55337031D01*
X131193958Y-55337031D01*
X132133580Y-54632315D01*
X132183383Y-54752846D01*
X132317448Y-54887145D01*
X132492703Y-54959917D01*
X132682465Y-54960083D01*
X132857846Y-54887617D01*
X132992145Y-54753552D01*
X133064917Y-54578297D01*
X133064936Y-54555863D01*
X135793917Y-54555863D01*
X135866383Y-54731244D01*
X136000448Y-54865543D01*
X136175703Y-54938315D01*
X136365465Y-54938481D01*
X136540846Y-54866015D01*
X136675145Y-54731950D01*
X136747917Y-54556695D01*
X136748083Y-54366933D01*
X136675617Y-54191552D01*
X136541552Y-54057253D01*
X136366297Y-53984481D01*
X136176535Y-53984315D01*
X136001154Y-54056781D01*
X135866855Y-54190846D01*
X135794083Y-54366101D01*
X135793917Y-54555863D01*
X133064936Y-54555863D01*
X133065083Y-54388535D01*
X132992617Y-54213154D01*
X132864107Y-54084420D01*
X133112667Y-53898000D01*
X137483841Y-53898000D01*
X138126000Y-54540159D01*
G36*
X129706000Y-62988531D02*
X129706000Y-63423000D01*
X129782000Y-63499000D01*
X130460000Y-63499000D01*
X130460000Y-63479000D01*
X131160000Y-63479000D01*
X131160000Y-63499000D01*
X131180000Y-63499000D01*
X131180000Y-64199000D01*
X131160000Y-64199000D01*
X131160000Y-64877000D01*
X131236000Y-64953000D01*
X131395000Y-64953000D01*
X131395000Y-68448076D01*
X131378566Y-68530693D01*
X131334557Y-68596557D01*
X131268693Y-68640566D01*
X131084043Y-68677296D01*
X131066019Y-68684762D01*
X130983616Y-68739822D01*
X130969822Y-68753616D01*
X130914762Y-68836019D01*
X130907296Y-68854043D01*
X130887961Y-68951245D01*
X130887000Y-68961000D01*
X130887000Y-69726077D01*
X130851841Y-69902832D01*
X130754505Y-70048505D01*
X130608832Y-70145841D01*
X130432077Y-70181000D01*
X129663923Y-70181000D01*
X129487168Y-70145841D01*
X129341495Y-70048505D01*
X129244159Y-69902832D01*
X129209000Y-69726077D01*
X129209000Y-64275000D01*
X129706000Y-64275000D01*
X129706000Y-64709469D01*
X129752281Y-64821202D01*
X129837798Y-64906719D01*
X129949530Y-64953000D01*
X130384000Y-64953000D01*
X130460000Y-64877000D01*
X130460000Y-64199000D01*
X129782000Y-64199000D01*
X129706000Y-64275000D01*
X129209000Y-64275000D01*
X129209000Y-63369923D01*
X129244159Y-63193168D01*
X129341495Y-63047495D01*
X129487168Y-62950159D01*
X129663923Y-62915000D01*
X129736457Y-62915000D01*
X129706000Y-62988531D01*
X129706000Y-62988531D01*
G37*
X129706000Y-62988531D02*
X129706000Y-63423000D01*
X129782000Y-63499000D01*
X130460000Y-63499000D01*
X130460000Y-63479000D01*
X131160000Y-63479000D01*
X131160000Y-63499000D01*
X131180000Y-63499000D01*
X131180000Y-64199000D01*
X131160000Y-64199000D01*
X131160000Y-64877000D01*
X131236000Y-64953000D01*
X131395000Y-64953000D01*
X131395000Y-68448076D01*
X131378566Y-68530693D01*
X131334557Y-68596557D01*
X131268693Y-68640566D01*
X131084043Y-68677296D01*
X131066019Y-68684762D01*
X130983616Y-68739822D01*
X130969822Y-68753616D01*
X130914762Y-68836019D01*
X130907296Y-68854043D01*
X130887961Y-68951245D01*
X130887000Y-68961000D01*
X130887000Y-69726077D01*
X130851841Y-69902832D01*
X130754505Y-70048505D01*
X130608832Y-70145841D01*
X130432077Y-70181000D01*
X129663923Y-70181000D01*
X129487168Y-70145841D01*
X129341495Y-70048505D01*
X129244159Y-69902832D01*
X129209000Y-69726077D01*
X129209000Y-64275000D01*
X129706000Y-64275000D01*
X129706000Y-64709469D01*
X129752281Y-64821202D01*
X129837798Y-64906719D01*
X129949530Y-64953000D01*
X130384000Y-64953000D01*
X130460000Y-64877000D01*
X130460000Y-64199000D01*
X129782000Y-64199000D01*
X129706000Y-64275000D01*
X129209000Y-64275000D01*
X129209000Y-63369923D01*
X129244159Y-63193168D01*
X129341495Y-63047495D01*
X129487168Y-62950159D01*
X129663923Y-62915000D01*
X129736457Y-62915000D01*
X129706000Y-62988531D01*
G36*
X130566833Y-70187141D02*
X130695355Y-70249672D01*
X130797735Y-70349394D01*
X130863626Y-70476226D01*
X130887000Y-70621334D01*
X130887000Y-72779000D01*
X130887961Y-72788754D01*
X130926021Y-72980096D01*
X130933487Y-72998121D01*
X131041874Y-73160332D01*
X131055668Y-73174126D01*
X131217879Y-73282513D01*
X131235904Y-73289979D01*
X131427246Y-73328039D01*
X131437000Y-73329000D01*
X135936758Y-73329000D01*
X135847278Y-73418324D01*
X135748113Y-73657140D01*
X135747888Y-73915726D01*
X135846636Y-74154714D01*
X136029324Y-74337722D01*
X136268140Y-74436887D01*
X136526726Y-74437112D01*
X136765714Y-74338364D01*
X136948722Y-74155676D01*
X137047887Y-73916860D01*
X137048112Y-73658274D01*
X136949364Y-73419286D01*
X136859236Y-73329000D01*
X137544077Y-73329000D01*
X137720832Y-73364159D01*
X137866505Y-73461495D01*
X137963841Y-73607168D01*
X137999000Y-73783923D01*
X137999000Y-74351500D01*
X137757500Y-74351500D01*
X137681500Y-74427500D01*
X137681500Y-75678500D01*
X137701500Y-75678500D01*
X137701500Y-75832500D01*
X137681500Y-75832500D01*
X137681500Y-77083500D01*
X137757500Y-77159500D01*
X137981501Y-77159500D01*
X137981501Y-77333721D01*
X137662922Y-77652300D01*
X137633763Y-77640192D01*
X137196156Y-77639810D01*
X136806046Y-77801000D01*
X136520166Y-77801000D01*
X136441364Y-77610286D01*
X136258676Y-77427278D01*
X136019860Y-77328113D01*
X135761274Y-77327888D01*
X135522286Y-77426636D01*
X135339278Y-77609324D01*
X135259687Y-77801000D01*
X129409923Y-77801000D01*
X129233168Y-77765841D01*
X129087495Y-77668505D01*
X128990159Y-77522832D01*
X128955000Y-77346077D01*
X128955000Y-75439726D01*
X131175888Y-75439726D01*
X131274636Y-75678714D01*
X131457324Y-75861722D01*
X131696140Y-75960887D01*
X131804229Y-75960981D01*
X131934624Y-76091376D01*
X132087644Y-76193621D01*
X132087644Y-76855500D01*
X132112049Y-76985202D01*
X132188703Y-77104325D01*
X132305663Y-77184241D01*
X132444500Y-77212356D01*
X133644500Y-77212356D01*
X133774202Y-77187951D01*
X133893325Y-77111297D01*
X133973241Y-76994337D01*
X134001356Y-76855500D01*
X134001356Y-76531884D01*
X134068636Y-76694714D01*
X134251324Y-76877722D01*
X134490140Y-76976887D01*
X134748726Y-76977112D01*
X134987714Y-76878364D01*
X135170722Y-76695676D01*
X135269887Y-76456860D01*
X135270112Y-76198274D01*
X135171364Y-75959286D01*
X135120667Y-75908500D01*
X136700500Y-75908500D01*
X136700500Y-76915969D01*
X136746781Y-77027702D01*
X136832298Y-77113219D01*
X136944030Y-77159500D01*
X137451500Y-77159500D01*
X137527500Y-77083500D01*
X137527500Y-75832500D01*
X136776500Y-75832500D01*
X136700500Y-75908500D01*
X135120667Y-75908500D01*
X134988676Y-75776278D01*
X134749860Y-75677113D01*
X134491274Y-75676888D01*
X134252286Y-75775636D01*
X134069278Y-75958324D01*
X134001356Y-76121898D01*
X134001356Y-74655500D01*
X133989979Y-74595031D01*
X136700500Y-74595031D01*
X136700500Y-75602500D01*
X136776500Y-75678500D01*
X137527500Y-75678500D01*
X137527500Y-74427500D01*
X137451500Y-74351500D01*
X136944030Y-74351500D01*
X136832298Y-74397781D01*
X136746781Y-74483298D01*
X136700500Y-74595031D01*
X133989979Y-74595031D01*
X133976951Y-74525798D01*
X133900297Y-74406675D01*
X133783337Y-74326759D01*
X133644500Y-74298644D01*
X132444500Y-74298644D01*
X132314798Y-74323049D01*
X132195675Y-74399703D01*
X132115759Y-74516663D01*
X132087644Y-74655500D01*
X132087644Y-74715834D01*
X131955860Y-74661113D01*
X131697274Y-74660888D01*
X131458286Y-74759636D01*
X131275278Y-74942324D01*
X131176113Y-75181140D01*
X131175888Y-75439726D01*
X128955000Y-75439726D01*
X128955000Y-75259145D01*
X128990741Y-75206837D01*
X129018856Y-75068000D01*
X129018856Y-73268000D01*
X128994451Y-73138298D01*
X128917797Y-73019175D01*
X128800837Y-72939259D01*
X128662000Y-72911144D01*
X126862000Y-72911144D01*
X126732298Y-72935549D01*
X126670990Y-72975000D01*
X126615923Y-72975000D01*
X126439168Y-72939841D01*
X126293495Y-72842505D01*
X126196159Y-72696832D01*
X126161000Y-72520077D01*
X126161000Y-72153910D01*
X126678897Y-72153910D01*
X126962600Y-72528363D01*
X127236096Y-72711070D01*
X127412000Y-72700326D01*
X127412000Y-71978000D01*
X128112000Y-71978000D01*
X128112000Y-72700326D01*
X128287904Y-72711070D01*
X128561400Y-72528363D01*
X128845103Y-72153910D01*
X128838039Y-71978000D01*
X128112000Y-71978000D01*
X127412000Y-71978000D01*
X126685961Y-71978000D01*
X126678897Y-72153910D01*
X126161000Y-72153910D01*
X126161000Y-71102090D01*
X126678897Y-71102090D01*
X126685961Y-71278000D01*
X127412000Y-71278000D01*
X127412000Y-70555674D01*
X128112000Y-70555674D01*
X128112000Y-71278000D01*
X128838039Y-71278000D01*
X128845103Y-71102090D01*
X128561400Y-70727637D01*
X128287904Y-70544930D01*
X128112000Y-70555674D01*
X127412000Y-70555674D01*
X127236096Y-70544930D01*
X126962600Y-70727637D01*
X126678897Y-71102090D01*
X126161000Y-71102090D01*
X126161000Y-70722856D01*
X126195007Y-70548904D01*
X126289323Y-70404689D01*
X126431001Y-70306616D01*
X126604002Y-70268044D01*
X127258909Y-70250810D01*
X127283646Y-70267338D01*
X127762000Y-70362489D01*
X128240354Y-70267338D01*
X128306343Y-70223245D01*
X130421163Y-70167592D01*
X130566833Y-70187141D01*
X130566833Y-70187141D01*
G37*
X130566833Y-70187141D02*
X130695355Y-70249672D01*
X130797735Y-70349394D01*
X130863626Y-70476226D01*
X130887000Y-70621334D01*
X130887000Y-72779000D01*
X130887961Y-72788754D01*
X130926021Y-72980096D01*
X130933487Y-72998121D01*
X131041874Y-73160332D01*
X131055668Y-73174126D01*
X131217879Y-73282513D01*
X131235904Y-73289979D01*
X131427246Y-73328039D01*
X131437000Y-73329000D01*
X135936758Y-73329000D01*
X135847278Y-73418324D01*
X135748113Y-73657140D01*
X135747888Y-73915726D01*
X135846636Y-74154714D01*
X136029324Y-74337722D01*
X136268140Y-74436887D01*
X136526726Y-74437112D01*
X136765714Y-74338364D01*
X136948722Y-74155676D01*
X137047887Y-73916860D01*
X137048112Y-73658274D01*
X136949364Y-73419286D01*
X136859236Y-73329000D01*
X137544077Y-73329000D01*
X137720832Y-73364159D01*
X137866505Y-73461495D01*
X137963841Y-73607168D01*
X137999000Y-73783923D01*
X137999000Y-74351500D01*
X137757500Y-74351500D01*
X137681500Y-74427500D01*
X137681500Y-75678500D01*
X137701500Y-75678500D01*
X137701500Y-75832500D01*
X137681500Y-75832500D01*
X137681500Y-77083500D01*
X137757500Y-77159500D01*
X137981501Y-77159500D01*
X137981501Y-77333721D01*
X137662922Y-77652300D01*
X137633763Y-77640192D01*
X137196156Y-77639810D01*
X136806046Y-77801000D01*
X136520166Y-77801000D01*
X136441364Y-77610286D01*
X136258676Y-77427278D01*
X136019860Y-77328113D01*
X135761274Y-77327888D01*
X135522286Y-77426636D01*
X135339278Y-77609324D01*
X135259687Y-77801000D01*
X129409923Y-77801000D01*
X129233168Y-77765841D01*
X129087495Y-77668505D01*
X128990159Y-77522832D01*
X128955000Y-77346077D01*
X128955000Y-75439726D01*
X131175888Y-75439726D01*
X131274636Y-75678714D01*
X131457324Y-75861722D01*
X131696140Y-75960887D01*
X131804229Y-75960981D01*
X131934624Y-76091376D01*
X132087644Y-76193621D01*
X132087644Y-76855500D01*
X132112049Y-76985202D01*
X132188703Y-77104325D01*
X132305663Y-77184241D01*
X132444500Y-77212356D01*
X133644500Y-77212356D01*
X133774202Y-77187951D01*
X133893325Y-77111297D01*
X133973241Y-76994337D01*
X134001356Y-76855500D01*
X134001356Y-76531884D01*
X134068636Y-76694714D01*
X134251324Y-76877722D01*
X134490140Y-76976887D01*
X134748726Y-76977112D01*
X134987714Y-76878364D01*
X135170722Y-76695676D01*
X135269887Y-76456860D01*
X135270112Y-76198274D01*
X135171364Y-75959286D01*
X135120667Y-75908500D01*
X136700500Y-75908500D01*
X136700500Y-76915969D01*
X136746781Y-77027702D01*
X136832298Y-77113219D01*
X136944030Y-77159500D01*
X137451500Y-77159500D01*
X137527500Y-77083500D01*
X137527500Y-75832500D01*
X136776500Y-75832500D01*
X136700500Y-75908500D01*
X135120667Y-75908500D01*
X134988676Y-75776278D01*
X134749860Y-75677113D01*
X134491274Y-75676888D01*
X134252286Y-75775636D01*
X134069278Y-75958324D01*
X134001356Y-76121898D01*
X134001356Y-74655500D01*
X133989979Y-74595031D01*
X136700500Y-74595031D01*
X136700500Y-75602500D01*
X136776500Y-75678500D01*
X137527500Y-75678500D01*
X137527500Y-74427500D01*
X137451500Y-74351500D01*
X136944030Y-74351500D01*
X136832298Y-74397781D01*
X136746781Y-74483298D01*
X136700500Y-74595031D01*
X133989979Y-74595031D01*
X133976951Y-74525798D01*
X133900297Y-74406675D01*
X133783337Y-74326759D01*
X133644500Y-74298644D01*
X132444500Y-74298644D01*
X132314798Y-74323049D01*
X132195675Y-74399703D01*
X132115759Y-74516663D01*
X132087644Y-74655500D01*
X132087644Y-74715834D01*
X131955860Y-74661113D01*
X131697274Y-74660888D01*
X131458286Y-74759636D01*
X131275278Y-74942324D01*
X131176113Y-75181140D01*
X131175888Y-75439726D01*
X128955000Y-75439726D01*
X128955000Y-75259145D01*
X128990741Y-75206837D01*
X129018856Y-75068000D01*
X129018856Y-73268000D01*
X128994451Y-73138298D01*
X128917797Y-73019175D01*
X128800837Y-72939259D01*
X128662000Y-72911144D01*
X126862000Y-72911144D01*
X126732298Y-72935549D01*
X126670990Y-72975000D01*
X126615923Y-72975000D01*
X126439168Y-72939841D01*
X126293495Y-72842505D01*
X126196159Y-72696832D01*
X126161000Y-72520077D01*
X126161000Y-72153910D01*
X126678897Y-72153910D01*
X126962600Y-72528363D01*
X127236096Y-72711070D01*
X127412000Y-72700326D01*
X127412000Y-71978000D01*
X128112000Y-71978000D01*
X128112000Y-72700326D01*
X128287904Y-72711070D01*
X128561400Y-72528363D01*
X128845103Y-72153910D01*
X128838039Y-71978000D01*
X128112000Y-71978000D01*
X127412000Y-71978000D01*
X126685961Y-71978000D01*
X126678897Y-72153910D01*
X126161000Y-72153910D01*
X126161000Y-71102090D01*
X126678897Y-71102090D01*
X126685961Y-71278000D01*
X127412000Y-71278000D01*
X127412000Y-70555674D01*
X128112000Y-70555674D01*
X128112000Y-71278000D01*
X128838039Y-71278000D01*
X128845103Y-71102090D01*
X128561400Y-70727637D01*
X128287904Y-70544930D01*
X128112000Y-70555674D01*
X127412000Y-70555674D01*
X127236096Y-70544930D01*
X126962600Y-70727637D01*
X126678897Y-71102090D01*
X126161000Y-71102090D01*
X126161000Y-70722856D01*
X126195007Y-70548904D01*
X126289323Y-70404689D01*
X126431001Y-70306616D01*
X126604002Y-70268044D01*
X127258909Y-70250810D01*
X127283646Y-70267338D01*
X127762000Y-70362489D01*
X128240354Y-70267338D01*
X128306343Y-70223245D01*
X130421163Y-70167592D01*
X130566833Y-70187141D01*
M02*
